<svg id="Layer_1" data-name="Layer 1" xmlns="http://www.w3.org/2000/svg" viewBox="0 0 215.81 32.31"><defs><style>.cls-1{fill:#fff;}.cls-2{fill:#fff;}</style></defs><title>Kidcoland_logo</title><rect class="cls-1" x="10.63" y="21.25" width="10.63" height="10.62"/><rect class="cls-1" y="10.62" width="10.63" height="10.62"/><rect class="cls-1" x="10.63" width="10.63" height="10.62"/><circle class="cls-1" cx="37.19" cy="26.56" r="5.31"/><path class="cls-2" d="M227.29,79.14l7.53-8.4a1.77,1.77,0,0,1,1.32-.6,1.75,1.75,0,0,1,1.76,1.76,1.71,1.71,0,0,1-.47,1.19l-5.9,6.4,6.93,9.44a1.71,1.71,0,0,1,.35,1,1.78,1.78,0,0,1-3.26,1L229.07,82l-1.79,1.88v6a1.82,1.82,0,1,1-3.64,0V72a1.82,1.82,0,1,1,3.64,0v7.18Z" transform="translate(-160.8 -59.62)"/><path class="cls-2" d="M244.06,73.33a2,2,0,1,1,4,0A2,2,0,0,1,244.06,73.33ZM247.76,90a1.69,1.69,0,1,1-3.39,0V78.7a1.69,1.69,0,1,1,3.39,0V90Z" transform="translate(-160.8 -59.62)"/><path class="cls-2" d="M263.5,78.07V70.86a1.69,1.69,0,1,1,3.39,0V85.63c0,4.17-2.7,6.27-6.49,6.27-4.23,0-6.71-2.41-6.71-7.53s2.41-7.56,6.37-7.56A5.14,5.14,0,0,1,263.5,78.07Zm0,3.23a4.32,4.32,0,0,0-3.1-1.6c-2.13,0-3.35,1.57-3.35,4.67S258.23,89,260.39,89c1.82,0,3.1-1.22,3.1-3.39V81.3Z" transform="translate(-160.8 -59.62)"/><path class="cls-2" d="M272.8,81c0-7.43,3.57-11,9.81-11,3.79,0,6.27,1.5,7.56,3.39a1.77,1.77,0,0,1,.35,1A1.68,1.68,0,0,1,288.83,76a1.74,1.74,0,0,1-1.29-.63,6,6,0,0,0-4.92-2.2c-4.17,0-6.05,2.57-6.05,7.75,0,5.49,1.88,7.71,6.05,7.71a6.12,6.12,0,0,0,5.08-2.07,1.87,1.87,0,0,1,1.35-.69,1.69,1.69,0,0,1,1.69,1.69,1.54,1.54,0,0,1-.31.94,9.8,9.8,0,0,1-7.81,3.39C276.38,91.93,272.8,88.64,272.8,81Z" transform="translate(-160.8 -59.62)"/><path class="cls-2" d="M303,91.9c-4.23,0-6.87-2.41-6.87-7.53s2.63-7.56,6.87-7.56,6.87,2.41,6.87,7.56S307.26,91.9,303,91.9Zm0-12.2c-2.26,0-3.45,1.57-3.45,4.67S300.77,89,303,89s3.45-1.57,3.45-4.64S305.28,79.7,303,79.7Z" transform="translate(-160.8 -59.62)"/><path class="cls-2" d="M319.2,70.86V88a0.61,0.61,0,0,0,.6.56,1.57,1.57,0,0,1,0,3.14,3.64,3.64,0,0,1-4-4V70.86A1.69,1.69,0,0,1,319.2,70.86Z" transform="translate(-160.8 -59.62)"/><path class="cls-2" d="M329.2,81a1.5,1.5,0,0,1-2.41-1.16,1.55,1.55,0,0,1,.41-1,6.58,6.58,0,0,1,5.14-2c3.89,0,6.21,1.91,6.21,5.24v8a1.66,1.66,0,1,1-3.32,0c-0.85,1.35-2.23,1.82-4.11,1.82C328,91.9,326,90,326,87.16s2.35-4.42,5.08-4.42h4.11V82.18c0-1.41-1-2.35-2.85-2.35A5.18,5.18,0,0,0,329.2,81Zm6,5.24V85.38h-3.67c-1.38,0-2.13.66-2.13,1.79s0.85,1.91,2.6,1.91A3,3,0,0,0,335.19,86.25Z" transform="translate(-160.8 -59.62)"/><path class="cls-2" d="M357.64,82.27v7.84a1.63,1.63,0,0,1-1.69,1.63,1.6,1.6,0,0,1-1.69-1.63V82.9c0-1.79-.72-3-2.76-3-2.35,0-3.14,1.38-3.14,3.23v7a1.69,1.69,0,0,1-3.39,0V78.7a1.69,1.69,0,0,1,3.39,0,4.65,4.65,0,0,1,4-1.88C356.63,76.82,357.64,79.54,357.64,82.27Z" transform="translate(-160.8 -59.62)"/><path class="cls-2" d="M373.22,78.07V70.86a1.69,1.69,0,1,1,3.39,0V85.63c0,4.17-2.7,6.27-6.49,6.27-4.23,0-6.71-2.41-6.71-7.53s2.42-7.56,6.37-7.56A5.14,5.14,0,0,1,373.22,78.07Zm0,3.23a4.32,4.32,0,0,0-3.1-1.6c-2.13,0-3.36,1.57-3.36,4.67S368,89,370.11,89c1.82,0,3.1-1.22,3.1-3.39V81.3Z" transform="translate(-160.8 -59.62)"/></svg>