<svg id="Layer_1" data-name="Layer 1" xmlns="http://www.w3.org/2000/svg" viewBox="0 0 133.76 71.54"><defs><style>.cls-1{fill:#d11f26;}.cls-2,.cls-3{fill:#4d4c4d;}.cls-3{stroke:#4d4c4d;stroke-miterlimit:10;stroke-width:0.15px;}</style></defs><title>logo_vertical</title><rect class="cls-1" x="54.61" y="27.35" width="13.68" height="13.67"/><rect class="cls-1" x="40.93" y="13.67" width="13.68" height="13.67"/><rect class="cls-1" x="54.61" width="13.68" height="13.67"/><circle class="cls-1" cx="88.79" cy="34.18" r="6.84"/><path class="cls-2" d="M50.29,92.87l3.37-3.76a0.79,0.79,0,0,1,.59-0.27,0.78,0.78,0,0,1,.79.79,0.76,0.76,0,0,1-.21.53L52.18,93l3.1,4.22a0.77,0.77,0,0,1,.15.46,0.8,0.8,0,0,1-1.46.45l-2.89-4-0.8.84v2.69a0.81,0.81,0,0,1-1.63,0v-8a0.81,0.81,0,0,1,1.63,0v3.21Z" transform="translate(-48.66 -27.05)"/><path class="cls-2" d="M57.79,90.28a0.9,0.9,0,1,1,1.81,0A0.9,0.9,0,0,1,57.79,90.28Zm1.65,7.47a0.76,0.76,0,0,1-1.51,0V92.67a0.76,0.76,0,0,1,1.51,0v5.08Z" transform="translate(-48.66 -27.05)"/><path class="cls-2" d="M66.48,92.39V89.17a0.76,0.76,0,1,1,1.51,0v6.6a2.63,2.63,0,0,1-2.9,2.8c-1.89,0-3-1.08-3-3.37s1.08-3.38,2.85-3.38A2.3,2.3,0,0,1,66.48,92.39Zm0,1.44a1.93,1.93,0,0,0-1.39-.72c-1,0-1.5.7-1.5,2.09s0.53,2.08,1.5,2.08a1.36,1.36,0,0,0,1.39-1.51V93.84Z" transform="translate(-48.66 -27.05)"/><path class="cls-2" d="M70.64,93.68c0-3.32,1.6-4.92,4.39-4.92a3.89,3.89,0,0,1,3.38,1.51,0.79,0.79,0,0,1,.15.46,0.75,0.75,0,0,1-.76.74,0.78,0.78,0,0,1-.58-0.28,2.69,2.69,0,0,0-2.2-1c-1.87,0-2.71,1.15-2.71,3.46s0.84,3.45,2.71,3.45a2.74,2.74,0,0,0,2.27-.93,0.84,0.84,0,0,1,.6-0.31,0.75,0.75,0,0,1,.76.76,0.69,0.69,0,0,1-.14.42A4.38,4.38,0,0,1,75,98.59C72.24,98.59,70.64,97.12,70.64,93.68Z" transform="translate(-48.66 -27.05)"/><path class="cls-2" d="M84.16,98.58c-1.89,0-3.07-1.08-3.07-3.37s1.18-3.38,3.07-3.38,3.07,1.08,3.07,3.38S86.05,98.58,84.16,98.58Zm0-5.45c-1,0-1.54.7-1.54,2.09s0.53,2.08,1.54,2.08,1.54-.7,1.54-2.08S85.17,93.12,84.16,93.12Z" transform="translate(-48.66 -27.05)"/><path class="cls-2" d="M91.39,89.17v7.68a0.27,0.27,0,0,0,.27.25,0.7,0.7,0,0,1,0,1.4,1.63,1.63,0,0,1-1.78-1.79V89.17A0.76,0.76,0,1,1,91.39,89.17Z" transform="translate(-48.66 -27.05)"/><path class="cls-2" d="M95.86,93.71a0.67,0.67,0,0,1-1.08-.52A0.69,0.69,0,0,1,95,92.73a2.94,2.94,0,0,1,2.3-.9c1.74,0,2.78.86,2.78,2.34v3.59a0.74,0.74,0,0,1-1.49,0,2,2,0,0,1-1.84.81,2.09,2.09,0,0,1-2.29-2.12,2,2,0,0,1,2.27-2h1.84V94.23a1.09,1.09,0,0,0-1.28-1.05A2.32,2.32,0,0,0,95.86,93.71Zm2.68,2.34V95.66H96.9a0.8,0.8,0,0,0-1,.8c0,0.53.38,0.86,1.16,0.86A1.32,1.32,0,0,0,98.54,96.05Z" transform="translate(-48.66 -27.05)"/><path class="cls-2" d="M108.58,94.27v3.51a0.73,0.73,0,0,1-.76.73,0.71,0.71,0,0,1-.76-0.73V94.55a1.14,1.14,0,0,0-1.23-1.35,1.26,1.26,0,0,0-1.4,1.44v3.13a0.76,0.76,0,0,1-1.51,0v-5.1a0.76,0.76,0,1,1,1.51,0,2.08,2.08,0,0,1,1.79-.84A2.13,2.13,0,0,1,108.58,94.27Z" transform="translate(-48.66 -27.05)"/><path class="cls-2" d="M115.55,92.39V89.17a0.76,0.76,0,1,1,1.51,0v6.6a2.63,2.63,0,0,1-2.9,2.8c-1.89,0-3-1.08-3-3.37s1.08-3.38,2.85-3.38A2.3,2.3,0,0,1,115.55,92.39Zm0,1.44a1.93,1.93,0,0,0-1.39-.72c-1,0-1.5.7-1.5,2.09s0.53,2.08,1.5,2.08a1.35,1.35,0,0,0,1.39-1.51V93.84Z" transform="translate(-48.66 -27.05)"/><path class="cls-3" d="M127.81,95.5a0.68,0.68,0,0,1-.82-0.74V93.18a0.68,0.68,0,0,1,.82-0.74h5.37a0.68,0.68,0,0,1,.82.74v1.58a0.68,0.68,0,0,1-.82.74h-2.41v0.57h3.32a0.28,0.28,0,0,1,.24.32,0.29,0.29,0,0,1-.24.32h-3.32v0.67h4.07a0.26,0.26,0,0,1,.25.31,0.28,0.28,0,0,1-.25.34h-8.69a0.28,0.28,0,0,1-.26-0.34,0.27,0.27,0,0,1,.26-0.31h3.92V96.71h-3.18a0.28,0.28,0,0,1-.24-0.32,0.27,0.27,0,0,1,.24-0.32h3.18V95.5h-2.26Zm7-4.2a0.28,0.28,0,0,1,.26.32,0.27,0.27,0,0,1-.26.32h-8.61a0.27,0.27,0,0,1-.26-0.32,0.28,0.28,0,0,1,.26-0.32h2.37c-0.12-.32-0.24-0.64-0.4-1h-1.32a0.32,0.32,0,0,1,0-.63h3.21V89.14a0.31,0.31,0,0,1,.39-0.29,0.33,0.33,0,0,1,.41.29v0.58h3.3a0.32,0.32,0,0,1,0,.63h-1.36a6.9,6.9,0,0,1-.48,1h2.49ZM128,93c-0.2,0-.29.05-0.29,0.24v0.4h2.35V93H128Zm-0.29,1.21v0.43c0,0.19.09,0.24,0.29,0.24h2.06V94.24h-2.35Zm3.78-2.94a3.73,3.73,0,0,0,.45-1h-3a6.4,6.4,0,0,1,.38,1h2.13Zm1.76,2.37v-0.4c0-.19-0.09-0.24-0.3-0.24h-2.19v0.64h2.49ZM133,94.91c0.21,0,.3-0.05.3-0.24V94.24h-2.49v0.67H133Z" transform="translate(-48.66 -27.05)"/><path class="cls-3" d="M143,94.9a8,8,0,0,1-.83,2.79,0.36,0.36,0,0,1-.32.18,0.43,0.43,0,0,1-.2-0.06,0.34,0.34,0,0,1-.2-0.32,0.49,0.49,0,0,1,.05-0.19c0.75-1.31.88-2.51,0.89-4.73a0.67,0.67,0,0,1,.82-0.73h2.66a0.67,0.67,0,0,1,.82.73v1.59a0.67,0.67,0,0,1-.82.73H143Zm3.88-4.33a0.38,0.38,0,0,1,.17.31,0.33,0.33,0,0,1,0,.17,0.36,0.36,0,0,1-.32.2,0.41,0.41,0,0,1-.18-0.05,7.94,7.94,0,0,1-1.85-1.56,0.17,0.17,0,0,0-.12-0.08,0.18,0.18,0,0,0-.14.1A8.8,8.8,0,0,1,142,91.82a0.39,0.39,0,0,1-.18.05,0.35,0.35,0,0,1-.3-0.19,0.42,0.42,0,0,1-.06-0.21,0.35,0.35,0,0,1,.19-0.32,7.31,7.31,0,0,0,2.28-2,0.71,0.71,0,0,1,.57-0.28,0.7,0.7,0,0,1,.53.24A7.07,7.07,0,0,0,146.86,90.57ZM146,95.52a0.65,0.65,0,0,1,.77.73v1A0.66,0.66,0,0,1,146,98h-2.23a0.66,0.66,0,0,1-.77-0.75v-1a0.65,0.65,0,0,1,.77-0.73H146Zm-0.3-1.2c0.19,0,.29-0.05.29-0.23V93.64h-2.87c0,0.22,0,.45,0,0.68h2.62Zm-2.27-1.9c-0.19,0-.28.06-0.28,0.23v0.43h2.85V92.66c0-.17-0.1-0.23-0.29-0.23h-2.27Zm0.24-1.1a0.26,0.26,0,0,1-.25-0.3,0.26,0.26,0,0,1,.25-0.3h1.92a0.3,0.3,0,0,1,0,.6h-1.92Zm2.11,6.12c0.18,0,.27-0.05.27-0.23V96.33c0-.18-0.09-0.23-0.27-0.23h-1.79c-0.18,0-.27.05-0.27,0.23v0.88c0,0.18.09,0.23,0.27,0.23h1.79Zm2.69-1.89a0.32,0.32,0,0,1-.38.28,0.33,0.33,0,0,1-.39-0.29V89.68A0.32,0.32,0,0,1,148,89.4a0.31,0.31,0,0,1,.38.28v5.87Zm2.15,1.59a0.91,0.91,0,0,1-1.14.94,5.81,5.81,0,0,1-1-.08,0.32,0.32,0,0,1-.27-0.33,0.33,0.33,0,0,1,0-.1,0.34,0.34,0,0,1,.31-0.31h0.07a4,4,0,0,0,.77.08c0.42,0,.48-0.07.48-0.39V89.23a0.34,0.34,0,0,1,.4-0.3,0.33,0.33,0,0,1,.38.3v7.92Z" transform="translate(-48.66 -27.05)"/><path class="cls-3" d="M160.29,96.4a0.71,0.71,0,0,1-.82.81h-1.11a0.71,0.71,0,0,1-.84-0.81V90.2a0.71,0.71,0,0,1,.84-0.81h1.11a0.71,0.71,0,0,1,.82.81v6.2Zm-0.74-3.62V90.35a0.23,0.23,0,0,0-.28-0.26h-0.71c-0.2,0-.29.05-0.29,0.26v2.43h1.29Zm-1.29.68v2.78c0,0.22.09,0.26,0.29,0.26h0.71c0.19,0,.28,0,0.28-0.26V93.46h-1.29Zm4.83-2.74H161.2a0.3,0.3,0,0,1-.29-0.35A0.3,0.3,0,0,1,161.2,90h1.89V89.16a0.31,0.31,0,0,1,.36-0.29,0.32,0.32,0,0,1,.39.29V90H166a0.29,0.29,0,0,1,.27.34,0.29,0.29,0,0,1-.27.36h-2.12V92h2.51a0.29,0.29,0,0,1,.28.34,0.32,0.32,0,0,1-.28.36h-1v1.14h1a0.3,0.3,0,0,1,.28.34,0.3,0.3,0,0,1-.28.36h-1v2.72a0.9,0.9,0,0,1-1.12,1,4.51,4.51,0,0,1-1-.09,0.31,0.31,0,0,1-.27-0.33,0.44,0.44,0,0,1,0-.11,0.31,0.31,0,0,1,.3-0.29h0.09a3.41,3.41,0,0,0,.77.08c0.38,0,.47-0.08.47-0.45V94.52h-3.72a0.31,0.31,0,0,1-.3-0.36,0.3,0.3,0,0,1,.3-0.34h3.72V92.68h-3.73a0.31,0.31,0,0,1-.29-0.36,0.3,0.3,0,0,1,.29-0.34h2.25V90.72Zm0,5.5a0.49,0.49,0,0,1,.11.3,0.4,0.4,0,0,1-.16.29,0.41,0.41,0,0,1-.27.11,0.39,0.39,0,0,1-.32-0.18,10.18,10.18,0,0,0-1-1.17,0.37,0.37,0,0,1-.12-0.25,0.45,0.45,0,0,1,.43-0.41,0.43,0.43,0,0,1,.29.13A8.3,8.3,0,0,1,163.11,96.22Z" transform="translate(-48.66 -27.05)"/><path class="cls-3" d="M174.35,93.73a10,10,0,0,1,.09-1.33,7.72,7.72,0,0,1-1,1.31,0.39,0.39,0,0,1-.29.14,0.43,0.43,0,0,1-.28-0.12,0.39,0.39,0,0,1-.14-0.29,0.41,0.41,0,0,1,.11-0.26,10.8,10.8,0,0,0,2.44-4,0.31,0.31,0,0,1,.32-0.24l0.19,0a0.34,0.34,0,0,1,.27.32,0.65,0.65,0,0,1,0,.14,11.73,11.73,0,0,1-.91,2V98a0.42,0.42,0,0,1-.8,0V93.73Zm7.57-2.42h0a0.32,0.32,0,0,1,.28.34v0a0.32,0.32,0,0,1-.24.36l-3.14.32a11.37,11.37,0,0,0,.55,2.29A5.69,5.69,0,0,0,180.87,97a0.49,0.49,0,0,0,.28.14,0.27,0.27,0,0,0,.22-0.21,4,4,0,0,0,.21-1.08,0.29,0.29,0,0,1,.32-0.28H182a0.32,0.32,0,0,1,.35.34V96a4.06,4.06,0,0,1-.44,1.66,0.79,0.79,0,0,1-.71.45,1.08,1.08,0,0,1-.62-0.22,5.91,5.91,0,0,1-1.91-2.83,12.34,12.34,0,0,1-.62-2.6l-2.06.21h0a0.3,0.3,0,0,1-.28-0.35,0.26,0.26,0,0,1,0-.09,0.28,0.28,0,0,1,.24-0.3l2.06-.21c-0.08-.73-0.13-1.53-0.15-2.39a0.36,0.36,0,0,1,.41-0.37,0.37,0.37,0,0,1,.43.37c0,0.86.05,1.62,0.11,2.31Zm-0.6-1a0.38,0.38,0,0,1,.09.24,0.4,0.4,0,0,1-.12.28A0.44,0.44,0,0,1,181,91a0.34,0.34,0,0,1-.26-0.13,11.37,11.37,0,0,0-1.17-1.16,0.33,0.33,0,0,1-.13-0.25,0.32,0.32,0,0,1,.13-0.25,0.36,0.36,0,0,1,.26-0.11,0.42,0.42,0,0,1,.25.09A10.31,10.31,0,0,1,181.33,90.32Z" transform="translate(-48.66 -27.05)"/></svg>