<svg id="Layer_1" data-name="Layer 1" xmlns="http://www.w3.org/2000/svg" viewBox="0 0 986.73 93.64"><defs><style>.cls-1{fill:#fff;}.cls-2{fill:#d11f26;}.cls-3,.cls-4{fill:#4d4c4d;}.cls-4{stroke:#4d4c4d;stroke-miterlimit:10;stroke-width:0.75px;}</style></defs><title>logo</title><path class="cls-1" d="M516.93,387.86c0,9.66,14.7,9.66,14.7,0C531.63,380.62,516.93,380.62,516.93,387.86Z" transform="translate(-103.62 -365.92)"/><rect class="cls-2" x="30.2" y="60.4" width="30.2" height="30.2"/><rect class="cls-2" y="30.2" width="30.2" height="30.2"/><rect class="cls-2" x="30.2" width="30.2" height="30.2"/><circle class="cls-2" cx="105.71" cy="75.5" r="15.1"/><path class="cls-3" d="M292.6,421.4L314,397.52a5,5,0,0,1,3.74-1.69,5,5,0,0,1,5,5,4.86,4.86,0,0,1-1.34,3.39l-16.76,18.18,19.7,26.83a4.86,4.86,0,0,1,1,2.94A5.07,5.07,0,0,1,316,455l-18.36-25.4L292.6,435v17.11a5.17,5.17,0,1,1-10.34,0V401a5.17,5.17,0,1,1,10.34,0V421.4Z" transform="translate(-103.62 -365.92)"/><path class="cls-3" d="M340.27,404.91c0-4.1,2-5.88,5.7-5.88s5.79,1.78,5.79,5.88c0,3.48-2,5.62-5.79,5.62S340.27,408.39,340.27,404.91Zm10.52,47.5a4.81,4.81,0,0,1-9.63,0V420.16a4.81,4.81,0,0,1,9.63,0v32.26Z" transform="translate(-103.62 -365.92)"/><path class="cls-3" d="M395.52,418.37v-20.5a4.81,4.81,0,1,1,9.62,0v42c0,11.85-7.66,17.83-18.45,17.83-12,0-19.07-6.86-19.07-21.39s6.86-21.48,18.09-21.48A14.62,14.62,0,0,1,395.52,418.37Zm0,9.18S392,423,386.7,423c-6.06,0-9.54,4.46-9.54,13.28s3.39,13.19,9.54,13.19c5.17,0,8.82-3.48,8.82-9.63v-12.3Z" transform="translate(-103.62 -365.92)"/><path class="cls-3" d="M422,426.57c0-21.12,10.16-31.28,27.9-31.28,10.78,0,17.83,4.28,21.48,9.62a5,5,0,0,1,1,2.94,4.77,4.77,0,0,1-4.81,4.72,4.94,4.94,0,0,1-3.66-1.78c-3.65-4-7.49-6.24-14-6.24-11.85,0-17.2,7.31-17.2,22,0,15.6,5.35,21.93,17.2,21.93,6.59,0,10.16-1.51,14.44-5.88,1.42-1.43,2.58-2,3.83-2a4.79,4.79,0,0,1,4.81,4.81,4.37,4.37,0,0,1-.89,2.67c-4.28,5.7-12.65,9.63-22.19,9.63C432.14,457.77,422,448.41,422,426.57Z" transform="translate(-103.62 -365.92)"/><path class="cls-3" d="M507.88,457.68c-12,0-19.52-6.86-19.52-21.39s7.49-21.48,19.52-21.48,19.52,6.86,19.52,21.48S519.91,457.68,507.88,457.68Zm0-34.67c-6.42,0-9.8,4.46-9.8,13.28s3.39,13.19,9.8,13.19,9.8-4.46,9.8-13.19S514.3,423,507.88,423Z" transform="translate(-103.62 -365.92)"/><path class="cls-3" d="M553.86,397.87v48.84a1.72,1.72,0,0,0,1.69,1.6,4.46,4.46,0,0,1,0,8.91c-7,0-11.32-3.92-11.32-11.41V397.87A4.81,4.81,0,0,1,553.86,397.87Z" transform="translate(-103.62 -365.92)"/><path class="cls-3" d="M582.28,426.75a4.26,4.26,0,0,1-6.86-3.3,4.41,4.41,0,0,1,1.16-2.94c2.5-2.76,7-5.7,14.62-5.7,11.05,0,17.65,5.44,17.65,14.88v22.82a4.72,4.72,0,0,1-9.45,0c-2.41,3.83-6.33,5.17-11.67,5.17-8.74,0-14.53-5.44-14.53-13.46,0-8.29,6.68-12.57,14.44-12.57H599.3V430c0-4-2.94-6.68-8.11-6.68C587.27,423.36,584.51,425.15,582.28,426.75Zm17,14.88v-2.5H588.87c-3.92,0-6.06,1.87-6.06,5.08,0,3.39,2.41,5.44,7.4,5.44C594.94,449.66,599.3,446.63,599.3,441.63Z" transform="translate(-103.62 -365.92)"/><path class="cls-3" d="M663.1,430.32V452.6a4.65,4.65,0,0,1-4.81,4.64,4.54,4.54,0,0,1-4.81-4.64V432.1c0-5.08-2.05-8.56-7.84-8.56-6.68,0-8.91,3.92-8.91,9.18V452.6a4.82,4.82,0,0,1-9.63,0V420.16a4.81,4.81,0,0,1,9.63,0c1.69-2.59,5.44-5.35,11.41-5.35C660.25,414.81,663.1,422.56,663.1,430.32Z" transform="translate(-103.62 -365.92)"/><path class="cls-3" d="M707.38,418.37v-20.5a4.81,4.81,0,0,1,9.63,0v42c0,11.85-7.66,17.83-18.45,17.83-12,0-19.07-6.86-19.07-21.39s6.86-21.48,18.09-21.48A14.61,14.61,0,0,1,707.38,418.37Zm0,9.18s-3.48-4.55-8.82-4.55c-6.06,0-9.54,4.46-9.54,13.28s3.39,13.19,9.54,13.19c5.17,0,8.82-3.48,8.82-9.63v-12.3Z" transform="translate(-103.62 -365.92)"/><path class="cls-4" d="M772.73,443.15c-3.18,0-4.77-1.24-4.77-4.3v-9.2c0-3,1.59-4.3,4.77-4.3H804c3.24,0,4.77,1.3,4.77,4.3v9.2c0,3.07-1.53,4.3-4.77,4.3h-14v3.3h19.28a1.6,1.6,0,0,1,1.41,1.83,1.65,1.65,0,0,1-1.41,1.89H789.94v3.89h23.64c0.94,0,1.47.71,1.47,1.83s-0.53,1.95-1.47,1.95H763.06c-1,0-1.53-.77-1.53-1.95a1.58,1.58,0,0,1,1.53-1.83h22.81v-3.89H767.36c-0.94,0-1.42-.88-1.42-1.89a1.56,1.56,0,0,1,1.42-1.83h18.51v-3.3H772.73Zm40.67-24.4a1.63,1.63,0,0,1,1.53,1.89,1.55,1.55,0,0,1-1.53,1.83h-50a1.55,1.55,0,0,1-1.53-1.83,1.63,1.63,0,0,1,1.53-1.89h13.79c-0.71-1.89-1.41-3.71-2.3-5.54h-7.66a1.86,1.86,0,0,1,0-3.65h18.68v-3.36c0-1.24.94-1.71,2.24-1.71s2.36,0.47,2.36,1.71v3.36h19.16a1.87,1.87,0,0,1,0,3.65h-7.9a40.48,40.48,0,0,1-2.77,5.54H813.4Zm-39.49,10.08c-1.18,0-1.71.29-1.71,1.41v2.3h13.67v-3.71h-12Zm-1.71,7v2.48c0,1.12.53,1.41,1.71,1.41h12v-3.89H772.2Zm22-17.09a21.62,21.62,0,0,0,2.59-5.54H779.57a37.64,37.64,0,0,1,2.24,5.54h12.38Zm10.26,13.79v-2.3c0-1.12-.53-1.41-1.77-1.41H789.94v3.71h14.5Zm-1.77,7.19c1.24,0,1.77-.29,1.77-1.41v-2.48h-14.5v3.89h12.73Z" transform="translate(-103.62 -365.92)"/><path class="cls-4" d="M861,439.67c-0.71,5.48-2.24,11.61-4.83,16.21a2.12,2.12,0,0,1-1.89,1.06,2.45,2.45,0,0,1-1.18-.35,2,2,0,0,1-1.18-1.83,2.89,2.89,0,0,1,.29-1.12c4.36-7.6,5.13-14.62,5.19-27.47,0-3,1.47-4.24,4.77-4.24h15.44c3.3,0,4.77,1.24,4.77,4.24v9.25c0,3-1.47,4.24-4.77,4.24H861Zm22.58-25.17a2.24,2.24,0,0,1,1,1.83,1.94,1.94,0,0,1-.24,1,2.13,2.13,0,0,1-1.89,1.18,2.4,2.4,0,0,1-1.06-.29,45.89,45.89,0,0,1-10.73-9.08,1,1,0,0,0-.71-0.47,1.06,1.06,0,0,0-.83.59,51,51,0,0,1-13.79,12.5,2.21,2.21,0,0,1-1.06.29,2,2,0,0,1-1.77-1.12,2.47,2.47,0,0,1-.35-1.24,2,2,0,0,1,1.12-1.83,42.5,42.5,0,0,0,13.26-11.73,4.13,4.13,0,0,1,3.3-1.65,4.06,4.06,0,0,1,3.06,1.41A41,41,0,0,0,883.61,414.5Zm-5.3,28.77c3.07,0,4.48,1.24,4.48,4.24v6.07c0,3.07-1.41,4.36-4.48,4.36h-13c-3.07,0-4.48-1.3-4.48-4.36v-6.07c0-3,1.41-4.24,4.48-4.24h13Zm-1.77-7c1.12,0,1.71-.29,1.71-1.36v-2.59H861.56c0,1.3-.12,2.59-0.24,3.95h15.21Zm-13.2-11c-1.12,0-1.65.35-1.65,1.36v2.48h16.56v-2.48c0-1-.59-1.36-1.71-1.36h-13.2Zm1.41-6.42a1.5,1.5,0,0,1-1.47-1.71,1.55,1.55,0,0,1,1.47-1.77h11.14a1.52,1.52,0,0,1,1.47,1.77,1.49,1.49,0,0,1-1.47,1.71H864.74ZM877,454.47c1.06,0,1.59-.29,1.59-1.36V448c0-1.06-.53-1.36-1.59-1.36H866.57c-1.06,0-1.59.29-1.59,1.36v5.13c0,1.06.53,1.36,1.59,1.36H877Zm15.62-11c0,1.06-.88,1.65-2.24,1.65s-2.24-.59-2.24-1.71V409.32c0-1.06,1-1.59,2.24-1.59s2.24,0.53,2.24,1.65v34.13Zm12.5,9.25c0,3.71-2.06,5.48-6.6,5.48a34,34,0,0,1-5.89-.47,1.87,1.87,0,0,1-1.59-1.95,2,2,0,0,1,.06-0.59,2,2,0,0,1,1.83-1.83,0.88,0.88,0,0,1,.41.06,23.58,23.58,0,0,0,4.48.47c2.42,0,2.77-.41,2.77-2.24v-45c0-1.12.94-1.77,2.3-1.77s2.24,0.65,2.24,1.77v46Z" transform="translate(-103.62 -365.92)"/><path class="cls-4" d="M961.71,448.4c0,3.36-1.59,4.72-4.77,4.72h-6.42c-3.3,0-4.89-1.36-4.89-4.72v-36c0-3.36,1.59-4.72,4.89-4.72h6.42c3.18,0,4.77,1.36,4.77,4.72v36Zm-4.3-21V413.21c0-1.24-.53-1.53-1.65-1.53h-4.13c-1.18,0-1.71.29-1.71,1.53v14.15h7.49Zm-7.49,3.95v16.15c0,1.3.53,1.53,1.71,1.53h4.13c1.12,0,1.65-.24,1.65-1.53V431.3h-7.49ZM978,415.39H967a1.73,1.73,0,0,1-1.71-2,1.76,1.76,0,0,1,1.71-2h11v-5.07c0-1.12.83-1.71,2.12-1.71s2.24,0.59,2.24,1.71v5.07h12.32c1.06,0,1.59.83,1.59,1.95s-0.53,2.06-1.59,2.06H982.34v7.31H997a1.7,1.7,0,0,1,1.65,1.95c0,1.24-.65,2.12-1.65,2.12h-6.07v6.6h6a1.72,1.72,0,0,1,1.65,2c0,1.24-.59,2.06-1.65,2.06h-6v15.8c0,4-2.12,5.54-6.48,5.54a26.36,26.36,0,0,1-5.78-.53A1.81,1.81,0,0,1,977,456.3a2.61,2.61,0,0,1,.06-0.65,1.83,1.83,0,0,1,1.77-1.71,1.64,1.64,0,0,1,.53.06,19.93,19.93,0,0,0,4.48.47c2.18,0,2.71-.47,2.71-2.59V437.43H965a1.79,1.79,0,0,1-1.77-2.06,1.77,1.77,0,0,1,1.77-2h21.63v-6.6H964.89a1.78,1.78,0,0,1-1.71-2.06,1.73,1.73,0,0,1,1.71-2H978v-7.31Zm0.12,31.95a2.83,2.83,0,0,1,.65,1.71,2.32,2.32,0,0,1-.94,1.71,2.39,2.39,0,0,1-1.59.65,2.26,2.26,0,0,1-1.89-1.06,59.4,59.4,0,0,0-5.66-6.78,2.16,2.16,0,0,1-.71-1.47,2.42,2.42,0,0,1,.94-1.77,2.4,2.4,0,0,1,1.53-.59,2.49,2.49,0,0,1,1.71.77A48.17,48.17,0,0,1,978.1,447.34Z" transform="translate(-103.62 -365.92)"/><path class="cls-4" d="M1043.53,432.9a58.67,58.67,0,0,1,.53-7.72,45.05,45.05,0,0,1-5.72,7.6,2.27,2.27,0,0,1-1.71.83,2.54,2.54,0,0,1-1.65-.71,2.27,2.27,0,0,1-.83-1.71,2.36,2.36,0,0,1,.65-1.53A62.74,62.74,0,0,0,1049,406.19a1.84,1.84,0,0,1,1.89-1.42,4.36,4.36,0,0,1,1.12.18,2,2,0,0,1,1.59,1.83,3.94,3.94,0,0,1-.12.83,68.08,68.08,0,0,1-5.3,11.38v38.43c0,1.18-.94,1.77-2.36,1.77s-2.3-.59-2.3-1.77V432.9Zm44-14.09h0.12c0.94,0,1.53.83,1.65,1.95V421c0,1.06-.41,2-1.42,2.12L1069.64,425a66,66,0,0,0,3.18,13.32c2.3,6.31,5.48,11.2,8.61,13.79a2.88,2.88,0,0,0,1.65.83,1.58,1.58,0,0,0,1.3-1.24,23.38,23.38,0,0,0,1.24-6.31,1.71,1.71,0,0,1,1.89-1.65H1088a1.87,1.87,0,0,1,2,1.95V446c-0.29,3.71-1.18,7.49-2.54,9.67a4.57,4.57,0,0,1-4.13,2.59,6.26,6.26,0,0,1-3.6-1.3c-4.6-3.42-8.37-8.9-11.08-16.45a71.92,71.92,0,0,1-3.6-15.09l-12,1.24h-0.24a1.75,1.75,0,0,1-1.65-2,1.64,1.64,0,0,1-.06-0.53,1.6,1.6,0,0,1,1.42-1.77l12-1.24c-0.47-4.24-.77-8.9-0.88-13.91a2.08,2.08,0,0,1,2.36-2.12c1.36,0,2.48.71,2.48,2.12,0.06,5,.29,9.43.65,13.44Zm-3.48-5.78a2.23,2.23,0,0,1,.53,1.41,2.33,2.33,0,0,1-.71,1.65,2.57,2.57,0,0,1-1.71.71,2,2,0,0,1-1.53-.77,66.34,66.34,0,0,0-6.78-6.72,1.93,1.93,0,0,1-.77-1.47,1.84,1.84,0,0,1,.77-1.47,2.1,2.1,0,0,1,1.53-.65,2.38,2.38,0,0,1,1.47.53A59.58,59.58,0,0,1,1084.08,413Z" transform="translate(-103.62 -365.92)"/></svg>