<svg id="圖層_1" data-name="圖層 1" xmlns="http://www.w3.org/2000/svg" viewBox="0 0 77.28 25.48"><defs><style>.cls-1{fill:#231815;}</style></defs><title>exhibition</title><path class="cls-1" d="M-1.52,18.93H-4.24V9h-4.5L-11,17-13,9H-24V33.65h9L-12.53,25l2.2,8.66h6.09V21.4h2.72V33.65H1.81V9H-1.52Zm-14.3,12.43v-.18h-4.81V21.42h3.46V18.94h-3.46V11.49h4.11V9.74l3.28,12.65Zm5.53-11.8,2.72-9.5V30Z" transform="translate(23.96 -8.59)"/><rect class="cls-1" x="26.93" y="0.43" width="3.33" height="24.63"/><path class="cls-1" d="M14.13,20.57q2.38-1.21,2.38-5.5,0-6-3.95-6H7.46V33.65h5.68Q17,33.65,17,27.1,17,21.79,14.13,20.57Zm-3.34-9.51h.94q1.51,0,1.51,4.17,0,4.51-1.42,4.51h-1Zm1,20.55h-1V21.78h.89q1.93,0,1.93,5.25Q13.61,31.61,11.74,31.61Z" transform="translate(23.96 -8.59)"/><rect class="cls-1" x="41.43" y="0.43" width="3.33" height="24.63"/><polygon class="cls-1" points="44.8 2.9 47.64 2.9 47.64 25.06 51.17 25.06 51.17 2.9 53.99 2.9 53.99 0.43 44.8 0.43 44.8 2.9"/><rect class="cls-1" x="54.04" y="0.43" width="3.33" height="24.63"/><path class="cls-1" d="M39.27,8.59q-5.2,0-5.2,12.45,0,13,5.11,13t5.11-12.74Q44.28,8.59,39.27,8.59Zm1.18,21.28q-.33,2.23-1.27,2.23T37.9,29.87a70.23,70.23,0,0,1-.33-8.54,70.24,70.24,0,0,1,.33-8.54q.33-2.23,1.27-2.23t1.27,2.24a70.33,70.33,0,0,1,.33,8.54A70.3,70.3,0,0,1,40.45,29.87Z" transform="translate(23.96 -8.59)"/><polygon class="cls-1" points="76.17 0.43 76.17 17.27 70.93 0.43 68.82 0.43 68.82 25.06 69.94 25.06 69.94 9.47 74.73 25.06 77.28 25.06 77.28 0.43 76.17 0.43"/></svg>