<svg id="Layer_1" data-name="Layer 1" xmlns="http://www.w3.org/2000/svg" viewBox="0 0 245.47 73.31"><defs><style>.cls-1{fill:#fff;}</style></defs><title>footer_logo</title><path class="cls-1" d="M1705.66,2839.33a5.27,5.27,0,1,1-5.27-5.34A5.31,5.31,0,0,1,1705.66,2839.33Zm-5.27-5.73a5.74,5.74,0,1,0,5.65,5.73A5.7,5.7,0,0,0,1700.39,2833.6Z" transform="translate(-1461.87 -2823.3)"/><path class="cls-1" d="M1699.21,2837.13h1c0.53,0,.84,0,0.95,0a0.78,0.78,0,0,1,.49.26,0.81,0.81,0,0,1,.17.54,0.9,0.9,0,0,1-.13.5,0.7,0.7,0,0,1-.36.28,4.59,4.59,0,0,1-1.17.09h-1v-1.69Zm0,5.54v-2.79h0.27a2.1,2.1,0,0,1,.66.07,1.05,1.05,0,0,1,.39.28,10.35,10.35,0,0,1,.69,1l0.94,1.45h1.56l-0.79-1.3a7.72,7.72,0,0,0-.74-1.08,3,3,0,0,0-.69-0.56,2,2,0,0,0,1.27-.61,1.81,1.81,0,0,0,.42-1.24,2,2,0,0,0-.28-1,1.5,1.5,0,0,0-.75-0.64,4.59,4.59,0,0,0-1.5-.18h-2.73v6.67h1.3Z" transform="translate(-1461.87 -2823.3)"/><path class="cls-1" d="M1700.13,2855a11.53,11.53,0,0,0-2.6,2.06l0.63-3.92h-11.39l-4.62,28.6h11.39l1.46-9h0v-0.06l0.12-.76a10.24,10.24,0,0,1,3.15-5.88,11.13,11.13,0,0,1,7.32-2.19l1.73-10.69A13.41,13.41,0,0,0,1700.13,2855Z" transform="translate(-1461.87 -2823.3)"/><polygon class="cls-1" points="143.58 58.39 154.97 58.39 159.59 29.78 148.2 29.78 143.58 58.39"/><path class="cls-1" d="M1479.38,2858.68l0.26-1.63a4.93,4.93,0,0,1,3.77-3.35H1491l1.76-10.88h-8.39v0c-0.33,0-.65,0-1,0-7,0-13.59,5.8-14.88,13h0l-6.58,40.78h11.39l4.36-27h10.79l1.75-10.89h-10.79Z" transform="translate(-1461.87 -2823.3)"/><path class="cls-1" d="M1506.82,2855a11.57,11.57,0,0,0-2.59,2.06l0.63-3.92h-11.39l-4.62,28.6h11.39l1.46-9h0l0.14-.87A10.22,10.22,0,0,1,1505,2866a11.13,11.13,0,0,1,7.32-2.19l1.72-10.69A13.4,13.4,0,0,0,1506.82,2855Z" transform="translate(-1461.87 -2823.3)"/><path class="cls-1" d="M1527,2870.94l15-7.63-0.21-.07,0.17-.09a11.79,11.79,0,0,0-12-10.48c-7.92,0-15.41,6.66-16.73,14.87s4,14.88,11.94,14.88c5.57,0,10.93-3.3,14.07-8.11l-4.53-5.36a9.87,9.87,0,0,1-6.93,3.71,4.29,4.29,0,0,1-4.78-5.24c0.77-4.77,5.14-7.69,7.24-5.24,0.15,0.17.3,0.34,0.47,0.5l-5.23,2.88Z" transform="translate(-1461.87 -2823.3)"/><path class="cls-1" d="M1558.26,2872.66a4.29,4.29,0,0,1-4.78-5.24c0.77-4.77,5.14-7.69,7.24-5.24,0.15,0.17.31,0.34,0.47,0.5l-5.23,2.88,1.56,5.37,15-7.63-0.21-.07,0.17-.09a11.8,11.8,0,0,0-12-10.48c-7.91,0-15.41,6.66-16.73,14.87s4,14.88,11.93,14.88c5.57,0,10.93-3.3,14.07-8.11l-4.53-5.36A9.87,9.87,0,0,1,1558.26,2872.66Z" transform="translate(-1461.87 -2823.3)"/><path class="cls-1" d="M1668,2872.66a4.28,4.28,0,0,1-4.77-5.24c0.77-4.77,5.14-7.69,7.24-5.24,0.15,0.17.3,0.34,0.46,0.5l-5.23,2.88,1.56,5.37,15-7.63-0.22-.07,0.17-.09a11.8,11.8,0,0,0-12-10.48c-7.92,0-15.41,6.66-16.74,14.87s4,14.88,11.94,14.88c5.57,0,10.92-3.3,14.07-8.11L1675,2869A9.87,9.87,0,0,1,1668,2872.66Z" transform="translate(-1461.87 -2823.3)"/><path class="cls-1" d="M1600.46,2861.46a13.9,13.9,0,0,0,5.59-6.48,10,10,0,0,0,.55-2c1-6.36-4.7-11.5-12.79-11.5l-0.13.1c-7.18.06-14,5.83-16.47,13.42a19.47,19.47,0,0,0-.66,2.73h0l-6.27,38.9h11.39l2.41-14.92,1.3-8,0.71-4.37,2.27-14.05a3.73,3.73,0,0,1,3.59-3,2.53,2.53,0,0,1,2.62,3,3.73,3.73,0,0,1-3.59,3,3,3,0,0,1-1-.15l-1.6,9.88a3.4,3.4,0,0,1,1-.16,2.54,2.54,0,0,1,2.62,3l-0.76,4.74-1,6.13h11.76l2.17-13.43A6.31,6.31,0,0,0,1600.46,2861.46Z" transform="translate(-1461.87 -2823.3)"/><path class="cls-1" d="M1614.32,2849.51c4.86,2.06,11.84-2,15.6-9.11s2.86-14.51-2-16.56-11.84,2-15.6,9.12S1609.46,2847.45,1614.32,2849.51Z" transform="translate(-1461.87 -2823.3)"/><path class="cls-1" d="M1643.83,2842.75l-1.57,9.71h0l-2.28,14.1a3.79,3.79,0,0,1,0,.5,4.43,4.43,0,0,1-4.07,3.76,3,3,0,0,1-2.86-3.76,4.43,4.43,0,0,1,4.07-3.76,2.88,2.88,0,0,1,1.27.28l1.85-11.43c-0.32,0-.65,0-1,0-8,0-15.61,6.69-16.94,15s4.09,15,12.12,15,15.61-6.69,16.94-15l3.92-24.3h-11.38Z" transform="translate(-1461.87 -2823.3)"/></svg>