<?xml version="1.0" encoding="utf-8"?>
<!-- Generator: Adobe Illustrator 20.0.0, SVG Export Plug-In . SVG Version: 6.00 Build 0)  -->
<svg version="1.1" id="圖層_1" xmlns="http://www.w3.org/2000/svg" xmlns:xlink="http://www.w3.org/1999/xlink" x="0px" y="0px"
	 viewBox="0 0 703.6 419.4" style="enable-background:new 0 0 703.6 419.4;" xml:space="preserve">
<style type="text/css">
	.st0{fill:#B8B8B8;}
</style>
<title>資產 3</title>
<g>
	<g id="圖層_2">
		<g id="OBJECTS">
			<g>
				<path class="st0" d="M425.5,299.8c-0.3,0.7-0.1,2.1-0.4,2.5c-1.1,1.3-3.3,4.5-4.8,5.5c-2,1.4-4.5,1.2-4.5,5.2c0,1.3,1,3.4,1,4.3
					c0,0.2-1.4,3.7-1.4,3.7c-0.6,0.4-1.1,1-1.4,1.7c0,1.3,0,2.6,0.8,3.3c0.1,0.6-0.1,1-0.1,2.1c0,2.1,1.5,4.5,3.3,4.5
					c4.2,0,4.8-5.5,6.1-9.3c1.5-4.7,3.1-8.9,3.1-14.9c0.4,0.1,0.8,0.2,1.2,0.4v-1.2C427.7,305.5,427.9,300.1,425.5,299.8z"/>
				<path class="st0" d="M486,253.9c0,1.2,0.8,2.3,1.7,2.3c1.3,0,2.2-1.9,2.2-3.4c0-2.6-2-3.6-3-5.6C487,249.7,486,251.5,486,253.9z
					"/>
				<path class="st0" d="M537.3,282.8c0-0.8-0.3-2,0.4-2.3v-3.6c0-0.8-1-1.1-1.4-1.6c-0.8-0.9-1.6-1.4-1.6-3.1
					c-0.8,0-1.3-0.3-1.3-1.3l0.3-0.8c-0.1-0.3-0.3-0.8-0.6-0.8h-0.5c0-0.1,0.1-0.3,0.1-0.4c0-1.3-1.2-1.7-2.2-2.1
					c-1.9-0.8-2.7-1.8-4-3.4c-0.7-0.8-1.2-1.8-2.2-2.2c-0.3-0.1-0.6,0-0.8-0.4c-0.6-1.3-1-2.6-2.6-3.1h-2.3
					c-0.6-0.3-0.7-0.8-1.4-0.8h-0.4v0.7c0.2,0.8,1.3,3.1,1.9,3.3s1.3,0,1.6,0.7c0.4,1,0.6,1.5,1,2.5c0.5,1.2,2.1,0.8,2.6,2.7
					c0.2,1,0.5,2,1,2.9c0.2,0.2,1,0.3,1.1,0.4s0,0.7,0.2,0.7c0.5,0.6,0.9,1.3,1.2,2.1c0.6,1.8,1.5,3.6,2.7,5.1
					c1.2,1.5,2.5,2.1,3.8,3.7c0.1,0.1,1.3,2.2,1.7,2.2S537.3,283.7,537.3,282.8z"/>
				<path class="st0" d="M543.8,268.2c0,0.4,0.7,3.4,1,3.5s0.8,0.1,0.9,0.5c0,0.1-0.1,0.3-0.1,0.4c0.9,1.7-0.2,4.6,2.3,4.6
					c0.6,0,0.9-0.5,1.5-0.4c0.1,0.3,0,1.2,0.1,1.2s0.3,0.4,0.5,0.4c0.8,0,1.2-0.9,1.7-0.9c1.2,0,1.9,1,3,1.3c0,0.5,0.2,1.2,0.9,1.2
					c0.9,0,1-1,2.2-1.3c0-0.9,0.8-2.1,0.8-2.8c0-0.4-0.3-0.6-0.3-1.1c0.1-0.9,0.7-1.6,1.5-1.9c0-1.4,0.6-1.9,0.9-3.7l0.3-0.8
					c0.2-0.1,0.5-0.1,0.7-0.2c0.8,0,1.3,0.4,1.5-0.8c-1.2,0-3.1-4.1-3.1-5.4c0-0.3,0.2-0.5,0.5-0.6c-0.1-0.3-0.2-0.5-0.3-0.8
					c0.7-0.3,1.4-0.7,2-1.2c-0.1,0-0.3-0.3-0.3-0.4c0-0.7,1.5-0.3,1.5-1c0-1.6-2.9-0.7-2.9-2.4c0-1.2,0.1-2.1-1-2.1
					s-2.6,3.2-3.2,4.5c-0.3,0.7-1.9,0.3-2.5,1c-0.1,0.2-0.2,0.6-0.4,0.7s-0.3,0.3-0.7,0.6c0,0-0.8,0.7-0.5,1
					c-0.6,0.7-0.6,1.5-1.6,1.7c-0.8,0.2-1.5,0.2-1.9,0.7c-1,1.2-0.7,3.7-2.8,3.7C545.2,267.4,543.8,266.8,543.8,268.2z"/>
				<path class="st0" d="M568.1,269.2c1.2,0,1.7-0.3,2.6-0.3s1.5,0.6,2.4,0.6c1.4,0,1.9-1.4,2.1-2.6c0.2,0,0.3-0.4,0.3-0.7h-0.4
					c-0.8,0.6-1.5,1.2-2.2,1.9h-0.6l-4.8-1c-1.8,0-2.6,2.8-2.6,4.7c0,0.5-0.6,0.9-0.6,1.3c-0.5,1.9-1.2,2.6-1.2,4.5c0,1,1,1,1.4,1.1
					v4c0.1,0.6,0.5,1,1.1,1.1c0.8,0,1-2.9,1-3.3c0-1.1-0.6-1.7-0.6-2.7c0-0.5,0.5-1,1-1c0.2,0,0.3,0.1,0.5,0l-0.3,1.7
					c0,1.1,1.1,1.5,1.1,2.6c0,0.2,0,0.5,0,0.8h0.9c0-0.9,1.5-0.8,1.5-1.7c-0.5-0.3-0.9-0.9-1-1.5c0-0.2,0.2-0.3,0.3-0.5
					c-0.7-1.1-1.3-2.2-1.7-3.5c1.9,0,2.1-1.8,3.7-2.4v-0.7c-1.4,0.3-2.8,0.8-4.2,1.5l0.2-0.3c-0.3,0.4-0.3,0.8-0.8,0.8
					c-1,0-1.5-1.6-1.5-2.8C565.8,268.9,566.9,269.2,568.1,269.2z"/>
				<path class="st0" d="M554.8,290.1c0.8,0,0.8,0.6,1.5,0.6c0.1,0,0.6-0.6,0.8-0.9c-0.5-0.2-0.5-0.5-1.1-0.8s-1.2,0.4-1.7-0.1
					c-0.1-0.2-0.1-0.8-0.6-0.8c-1.1,0.1-2.2-0.3-2.9-1.1c0.1,0.1,2.5-0.2,2.6-0.6h-0.5l-2.1,0.3c-1.3,0-1.7-1.5-3.1-1.5
					c-0.8,0-1,1.2-2.1,1.2c-2.3,0-3.2-2.6-5.3-2.6c-0.4,0-0.7,0.5-1.1,0.5c-0.2,0-0.3-0.3-0.5-0.3c-0.4,0-1.7,1.5-1.7,1.7
					c1,0,1.6,1,2.3,1.8s1.7,0,2.8,0.4c1.2,0.4,2.5,0.6,3.8,0.6c0.7,0,0.9,1.1,1.7,1.1c2.5-0.2,5,0.3,7.3,1.3
					C554.8,290.7,554.6,290.1,554.8,290.1z"/>
				<path class="st0" d="M569.3,291.2c0.9-0.2,1.6-0.8,2-1.6c-0.6,0.3-1,0.8-2,0.8s-1.5-0.6-2.8-0.6c-0.5,0-1.3-0.1-1.3,0.6
					c0,0.9,1,0.8,1.5,0.8H569.3z"/>
				<path class="st0" d="M561.9,289.9c0,0.3-0.1,0.4-0.1,0.7c-0.4-0.2-0.9-0.3-1.3-0.3c-0.6,0-1.2-0.1-1.2,0.8
					c0,0.3,0.8,0.6,1.4,0.6s1-0.5,1.7-0.8l0.5,0.3h0.6c-0.1-0.2,0-0.6,0-1.3L561.9,289.9z"/>
				<path class="st0" d="M565.8,292.2h-0.7c-0.5,0-1.3-0.2-1.3,0.5s1.1,0.9,1.8,0.9c0,0.3,0.1,1.1,0.4,1.1h0.3
					c0.3-0.1,0.5-0.3,0.5-0.6C566.9,293.1,565.8,293.4,565.8,292.2z"/>
				<path class="st0" d="M558.3,289.8h-0.6v0.8c0.1,0.3,0.3,0.5,0.6,0.6c0.3,0,0.6-0.3,0.7-0.8C558.7,290.2,558.7,289.8,558.3,289.8
					z"/>
				<path class="st0" d="M575.4,292.4c1.1,0,3.4-0.7,4.1-1.9c-0.6-0.5-3.7-0.2-4.4,0.7c-0.1,0.2-0.1,0.6-0.3,0.7
					c-1,0.4-2.3,0.4-2.3,2.2c0,0.3,0.2,0.8,0.5,0.8c0.9-0.2,1.7-0.7,2.3-1.4C575.4,293.2,575.1,292.4,575.4,292.4z"/>
				<path class="st0" d="M594.5,284.1c0-0.6-0.1-0.2-0.3-0.9c-0.5,0.1-0.4,0.8-0.4,1.4s-0.7,0.6-0.7,1.4c0,0.3,0.2,0.7,0.4,0.7
					c0.6,0,0.4-0.9,0.4-1.8C594.3,284.9,594.5,284.6,594.5,284.1z"/>
				<path class="st0" d="M577.4,277.8c0,0.7,0.8,1.6,1.2,1.6c0.2,0,0.7-0.9,0.7-1.1C579.4,277.5,577.4,276.8,577.4,277.8z"/>
				<path class="st0" d="M581,277.8c0.4,0.1,0.8,0.3,1.2,0.3h1.6c1,0,1.5,0.8,2.4,0.8c0.1,0,0.4,0,0.4-0.2c0-0.7-0.8-0.8-0.8-1.5
					l-0.2,0.1c-0.4,0-0.9,0.3-1-0.3h-3.1C581.4,277.2,581,277.4,581,277.8z"/>
				<path class="st0" d="M580.8,264.6c-0.5,0.4-0.7,1-0.6,1.7c0,1.1,0.5,1.4,0.5,2.3v1.1c0,0.5,0.2,1.6,0.9,1.6
					c-0.3-0.6-0.5-0.9-0.8-1.4v-0.6c0.5,0,1.1-0.1,1.6-0.2c-0.1-0.7-0.5-0.8-0.5-1.3s0.7-0.6,0.7-1.1
					C581.5,266.6,580.8,265.7,580.8,264.6z"/>
				<path class="st0" d="M621.9,283.2c0.2,1,1.2,0.9,1.8,1.4l0,0c0.1,0.1,0.1,0.1,0.2,0.2l-0.1-0.1c0.3,0.3,0.6,0.5,1,0.6
					c1.5,0,2.1-0.9,3.3-1.2c0-1.5,1.5-1.2,1.5-2.9c0-0.5-0.2-1.2-0.6-1.2c-1,0-0.6,1.8-1.5,2.4c-0.6,0.3-1.7,0.3-2.7,0.7
					c0,0-0.6,0.3-0.8,0.3L621.9,283.2z"/>
				<path class="st0" d="M618.4,283.9c-1.7-1-1.6-3.2-3.8-4.1c-0.3-0.1-0.9-0.2-0.9-0.8c-0.8,0-1.2-1.2-2.1-1.2
					c-1.7-0.1-3.3-0.7-4.7-1.7v-0.1h-0.1c-0.1-0.1-0.1-0.1-0.2-0.2l0.2,0.2c-0.5-0.1-0.9-0.4-1.2-0.7h-1.9c-0.4-0.3-1-1.3-1.8-1.6
					c-0.2-0.1-0.8,0-0.8-0.4c-0.8,0.2-1.7,1.7-2.3,1.9c-0.7,0.1-1.3,0.5-1.7,1.1c-0.1,0.2-0.8,1.4-1.2,1.4s-1.4-1.3-1.4-1.7
					c-0.6,0-1-0.3-1-0.7v-3c-1.3-0.3-2.2-1.7-3.3-1.7s-1.7,1.4-2.6,1.4c-0.4,0-1,0.3-1,0.7c0,1.2,1.7,0.7,2.2,1.8
					c0.1,0.2,0.2,0.7,0.4,0.7c0.3,0.1,0.7,0.2,1,0.3c0.7,0,1.4-0.1,2-0.3h0.5c-0.5,1-2.6,0.8-3.5,1.4c0.1,0.7,0.9,0.3,1.2,1
					s0,1,0.3,1.8c0.1,0.3,0.5,0.3,0.7,0.3c0.5,0,0.8-0.8,1-1.5v0.7c1.1-0.4,1.5,1.7,2.6,1.7c1.3,0,2.5,0.3,3.7,0.8
					c0.7,0.4,2.6,1.3,2.9,2.3c0.3,1.2-0.1,2.4,0.9,3.6c-0.4,0.3-1.7,0.7-1.7,1.7c0,0.7,0.6,0.7,1.1,0.7h1.5c0-0.4,0.8-0.5,1-0.5
					c1.8,0,2.3,2.6,4.1,2.6h2.6c0-0.6,0.6-0.9,0.3-2c1-0.6,0.8-2.1,2.6-2.1c2.3,0,3.5,2.3,4.9,4c0.1,0.2,0.7,0.3,0.7,0.7
					c0,0.9,1.6,1.8,2.6,2.1h1.8c0.4,0.4,0.8,0.7,1.3,1h0.4c0.1-0.6,0.4-1,0.9-1.3c-0.2-0.1-1.3,0.1-1.4-0.3s-0.3-0.8-0.7-1
					s-0.7,0.3-0.8-0.2s-0.3-0.9-0.6-0.9c-0.6,0-1.2-0.3-1.5-0.8c-0.6-1-0.4-1.6-1.1-2.4c-0.1-0.2-1.3-1.6-1.3-2
					c0-0.7,1.3-0.4,1.3-1.3C620.6,283.4,619.1,284.4,618.4,283.9z"/>
				<path class="st0" d="M630,278.5c-0.7-1-1.6-1.9-2.7-2.4c0.2,0.7,0.7,0.6,1.2,1c0.9,0.6,0.8,1.6,1.7,2.1
					c-0.1,0.8-0.1,1.4,0.7,1.6c0.1,0.2,0.3,0,0.4,0c0-0.2,0-0.4,0-0.6C631.3,279,630.5,279.2,630,278.5z"/>
				<path class="st0" d="M634.5,282.9c-0.1,0.8,0.2,1.7,1,1.8v0.7c0,0.3,0.2,0.6,0.4,0.6s0.5-0.4,0.5-0.7
					C635.9,284.5,635.2,283.6,634.5,282.9z"/>
				<path class="st0" d="M647.8,294c-0.1,0.5,0.4,1.7,1.1,1.7c-0.1-0.2,0-0.3,0-0.5C648.9,294.6,648.4,294.5,647.8,294z"/>
				<path class="st0" d="M644.8,292.7c0,1,1.1,1.3,1.9,1.3c0.1,0,0.3-0.2,0.3-0.2C646.6,293.1,645.7,292.6,644.8,292.7z"/>
				<path class="st0" d="M645.1,289.5c0.1,0.6,1.3,2.6,2,2.6C646.8,291,646.1,290.1,645.1,289.5z"/>
				<path class="st0" d="M641,287.8h-0.1c0,0.9,1.6,1.6,2.1,1.6c0.2,0,0.4-0.1,0.5-0.2c-0.4-0.7-1.8-1.2-2.4-1.7L641,287.8z"/>
				<path class="st0" d="M637.8,285.4l0.3,0.3c0,0.1-0.3,0.1-0.3,0.1l1,0.8h0.6C639,285.8,638.6,286.1,637.8,285.4z"/>
				<path class="st0" d="M617.8,372.8c-0.1,0-3.8-1.3-3.8,0c0,1.7,2.3,7.9,4.3,7.9c1.4,0,3.3-4.4,3.3-6.2c0-1-0.5-1.5-0.8-2.5
					C619.9,372.4,618.9,372.7,617.8,372.8z"/>
				<path class="st0" d="M621.3,371.2c0.1-0.5,0.2-0.9,0.2-1.4c-0.3,0.1-0.6,0.1-0.9,0C620.6,370.4,620.7,370.9,621.3,371.2z"/>
				<path class="st0" d="M598.1,359c0.7,0.7,1.7,0.7,2.4,0C599.6,358.4,599.4,358.3,598.1,359z"/>
				<path class="st0" d="M587.3,298.3h0.7V297c-0.9,0-1.9,0.1-2.8,0.4C585.8,297.9,586.5,298.2,587.3,298.3z"/>
				<path class="st0" d="M630,330.5c-1.3-1.6-3.9-3-3.9-6.3c-0.9,0-2,0-2.3-1.1s-0.4-2.7-1.3-3.7c-1.2-1.4-4.2-2.2-4.7-4.1
					s-1.1-3.1-1.7-5.4c-0.3-1.3-0.3-4-1.2-4.6c-0.3-0.2-1.6-0.7-2.3-0.9c-0.8-0.7-0.4-2.2-0.7-3.3c-0.4-1.6-1.3-3.1-1.5-5.3
					c-1.2,0.8-0.8,1.8-1.9,2.8v7.5c-0.3,1.9-0.8,6.8-2.9,6.8c-1.3,0-1.7-1.8-2.6-2.2c-1.7-0.8-2.8-1.2-4.6-2.1
					c-0.3-0.1-0.3-1.3-0.7-1.7s-1.4-0.2-1.4-0.8l0.8-4.1c0.5-0.5,1.6-0.6,1.6-1.7c-0.2-0.7-0.7-1.3-1.4-1.5c-0.8,0-1,0.7-1.9,0.7
					c-2.5,0-3.9-1.2-6.2-2.3c0.1,0.9,0.8,1.1,1.2,1.9c-0.2,0.1-0.8,0.6-1.2,0.6c-1.2,0-3.9,0.8-3.9,1.9s-1,1.8-1,2.9
					c0.1,0.7,0.1,1.4-0.2,2.1c-0.1-0.1-0.7-0.6-1-0.6c-0.6,0-1.2,0.4-1.5,0.9c-0.1-1.5-0.8-3.1-2.1-3.1c-1.5,0-1.8,1.7-3.7,1.7
					c-0.1,1.9-1.5,2.2-1.5,4.6c-0.6,0-0.9-0.3-1.5-0.7c-0.3,0.9,0,2.1-0.8,2.7c-0.3-0.6-0.7-0.9-1-1.6c-0.6,0.5-1,1.3-0.9,2.1v1.4
					c0,2.8-5.7,5.1-8.2,5.6c-1.3,0.2-3.8,0.4-4.6,1.4s-2.4,3-3.7,3.1c0-0.3,0-0.6-0.1-0.8c-0.3,0.2-0.8,0.3-0.8,1v4.8
					c0,2.1,0.8,3.1,0.8,4.3c0,0.4,0.2,0.8,0,1.1c-0.3-0.3-0.5-0.7-0.6-1.1c-0.2,0.3-0.3,0.7-0.4,1.1c-0.3,1.3,1,1.7,1.4,2.9
					c0.9,3.2,1.1,4.4,1.9,8c0.4,1.5,1.4,2.8,1.4,5.2c0,1.9-1.6,2.5-1.6,3.7s3.3,2.9,4.5,2.9c3.1,0,4.2-2.7,6.6-2.7
					c0.8,0,0.8-0.7,1.9,0c1.4-0.1,2.8-0.3,4.2-0.6c0.5-4.2,4.9-2.7,8.4-4.1c1.5-0.6,2-1.9,4.5-1.9c2.3,0,6.4,0.8,7.5,2.5
					c0.5,0.9,2.1,5,2.6,5c0,0-0.3,1.5,0.5,1.5c1.5,0,3.2-4.3,4.4-5.8c0.1,1.2-0.3,5.5-2,6c0,0.4,0.3,0.8,0.7,0.8
					c1,0,1.1-1.5,1.7-1.8c0-0.3,0.1-0.6,0.1-0.8c0.5,0.4,0.7,1,0.7,1.7c0,0.6-0.2,1.3-0.5,1.8h0.8c0.5-0.1,1-0.3,1.4-0.6
					c0,0.1,0.1,0.4,0.1,0.4c0.1,1.1,1,2.1,1,3.3c0,3.4,4.4,5.5,7.1,5.5c1.7,0,1.2-1.6,2.8-1.8c0.1,0.5,2.9,2.4,3.5,2.5
					c0.5-4,6.2-2.2,7-6v0.2c0-2.9,1.5-5.5,2-7.5c0.7-2.6,1.9-3.5,3.2-5.8c0.3-0.7,0.1-1,0.5-1.6v-2.3c0.6-0.8,1-3.3,1-5.1
					c0-2.5-0.7-7-1.8-8.7L630,330.5z"/>
				<path class="st0" d="M671.2,373.3c-0.3,0.2-0.7,0.7-1.2,0.7s-0.3-0.6-0.3-1.2c-0.2,0-0.5-0.3-0.5-0.8c-1,0.6-1.6,1.6-1.7,2.7
					c0,0.2-0.1,0.3-0.1,0.5c-0.6,0-1.1,0.4-1.2,0.9c-0.1,0.3-0.1,0.6-0.1,0.8c-0.4,0.7-0.8,1.4-1.3,2c-1.2,0.7-2.2,2.7-3.9,2.7
					c-0.5,0-0.8,0.5-1.1,1.1c-0.7,1.2-2.8,2.4-2.8,4.5c0,0.2,0.2,0.3,0.3,0.3c0,0.4,2.7,1.7,3.1,1.7s1.2,0.4,1.5,0.4
					c0.8,0,2-1.2,2.6-2c0,0,1.9-4.8,2.1-5.8c0.5,0,2.2-0.4,2.5-0.4c0.2-1-0.2-1.3,0-2.6c1.1,0,2.5-3.1,2.7-4.1
					c-0.3-0.2-0.4-0.6-0.4-1.3C671.5,373.6,671.3,373.5,671.2,373.3z"/>
				<path class="st0" d="M680,363.6c-1.1,0-1,0.8-2.3,0.8c-1.7,0-2.6-1.2-2.6-3.4h-0.4c-0.3,0-0.6,0.3-0.6,0.8h-0.4
					c-0.5-0.8-0.9-1.7-1.2-2.6c0-0.3,0.2-0.3,0.3-0.6c-0.4-0.3-0.4-0.8-0.8-1.3c-0.7-0.8-1.9-0.9-2.6-2.3c0.4,2,1.4,4.7,3,5
					c-0.1,0.3-0.2,0.5-0.2,0.8c0,0.7,0.5,0.9,0.8,1.6v0c0.2,0.5,0.2,1.1,0.3,1.6c0.1,1.1-0.2,2.3-0.8,3.2c-0.3,0.4-1,0.5-1,1.3
					c0,1.5,2.6,0.8,2.6,2.5c0,1-0.8,1.4-0.8,2.4c0,0.6,0.4,1,0.9,1.1c0,0,0.1,0,0.1,0c1.5,0,1.9-1.7,2.5-2.9c0.1-0.3,1-1.1,1-1.6
					c0-0.3-0.3-0.6-0.3-0.8c0-0.7,0.7-0.9,1.4-1.1c0.1,0,0.1-0.3,0.2-0.3l0.3,0.4c0.7-1.3,0.4-3,1.4-4.1
					C680.5,363.8,680.3,363.6,680,363.6z"/>
				<path class="st0" d="M680.3,313.2v-1c-0.4-0.1-0.7-0.4-0.8-0.7c-0.6,0.3-1.6,0.5-1.6,1.6c0,0.3,0.9,0.5,1.5,0.5
					S679.8,313.7,680.3,313.2z"/>
				<path class="st0" d="M680.6,310.1c0,0.2,0.2,0.7,0.4,0.7c0.7,0,0.9-0.8,1.7-1.1V309C682.3,309,680.6,309.1,680.6,310.1z"/>
				<path class="st0" d="M576.3,246.8c0,0.6-0.1,1.2-0.2,1.7c-0.2,0.4-1.3,0.1-1.3,1.1c-0.4,0.1-0.6,0.4-0.6,0.9h-0.4
					c-0.4,0-0.3-1.2-1.1-1.2c-1.1,0-0.8,1.6-2.2,1.5c-0.2,0.6-0.3,1.2-0.4,1.9c0,0.2,0.3,0.5,0.2,0.7s-0.5,1.7,0,1.7
					c0.7,0,0.6-2.4,1.3-3.1c0.2,0.2,0.4,0.5,0.6,0.7c0.1-0.1,0.1-0.2,0.2-0.4c0.1,0.2,0.4,0.4,0.6,0.4c0-0.2,0-0.4,0-0.6h0.9
					c0.1,0.2,0.2,0.5,0.2,0.7c-0.2,0.1-0.3,0.4-0.3,0.9c0,1.4,0.7,2.5,1.6,2.6c0.2,0,0.4,0.1,0.6,0c0,0.2,0.1,0.6,0.3,0.6
					c0.4,0,0.7-0.4,0.7-1c0-0.8-0.7-1-0.7-1.5s0.3-0.6,0.6-1c0.1,0.2,0.3,0.4,0.4,0.6v-0.2c0.1,0.4,0.5,1.6,0.8,1.7
					c0-1.2,0.8-1.6,0.8-2.4c-0.3-1.9-0.8-3.8-1.5-5.5C577.1,247.1,576.7,246.8,576.3,246.8z"/>
				<path class="st0" d="M561.5,249.6h0.4c1.1-0.7,2-1.8,2.3-3.1c0.5,0.1,1-0.2,1.1-0.8c0,0,0,0,0,0c0.3,0,0.4-0.2,0.6-0.4
					c-0.4-0.3-0.6-0.7-0.5-1.2c-0.2,0.2-0.2,0.6-0.3,0.9C564.3,246.7,562.2,247.5,561.5,249.6z"/>
				<path class="st0" d="M565,234.4c0,0.4,1.1,1.3,1.4,1.3s0.3-0.3,0.5-0.5h0.4v0.7c-0.2,0.2-0.4,0.5-0.4,0.8c0.1,0.5,0.4,0.9,0.9,1
					c0.4,0,0.6-0.4,1-0.4c0.9,0,0.9,1.6,1.8,1.6c-0.2-0.6-0.4-0.9,0-1.4c0.4,0.6,1.9,1.3,2.2,2.2c0.1,0.2,0.1,0.6,0.3,0.6
					s0.3-0.3,0.3-0.4s0-0.4,0-0.6c-0.4,0-0.8-0.3-0.8-0.8c0,0,0-0.1,0-0.1c-0.1,0.1-0.4,0.1-0.4,0c0-0.4,0.3-0.4,0.4-0.9
					c-0.1,0-0.3-0.1-0.4-0.1s-0.3,0.5-0.6,0.5s-0.5-1.7-1.3-1.7c-0.3,0-0.6,0.2-0.7,0.6c0,0.1,0,0.3,0,0.4c-0.9-0.8-1.4-2-1.5-3.3
					c0-1.5,1.2-1.6,1.2-3.2c0-1.2-0.8-2.3-0.8-3.3c0-0.1-0.1-0.4-0.1-0.5s-0.1-0.3-0.1-0.4c-0.3,0.1-0.5,0.7-0.8,0.7
					c-0.6,0-0.4-1.3-1.1-1.3c-0.5,0-0.6,0.7-0.6,1.4s0.3,1.4,0.3,2.3c0,0.7-0.1,1.5-0.4,2.1C564.8,231.7,565,233.3,565,234.4z"/>
				<path class="st0" d="M575.6,240.9c-0.5,0-0.9-0.3-1.4-0.3c-0.2,0-0.4,0.2-0.6,0.3c0.1,0.6,1.5,1.1,1.5,2.1
					c0,0.1-0.2,0.4-0.3,0.4H574v0.4c0.1,0.2,0.5,1,0.9,1v0.4c-0.3,0.4-0.1,1,0.3,1h0.6v-0.4c-0.3-0.4-0.5-0.9-0.5-1.4h0.9
					c0.1-0.3,0.2-0.5,0.3-0.9c-0.2-0.2-0.3-0.4-0.5-0.7c0-0.4,0-0.8,0-1.1h-0.4C575.6,241.4,575.6,241.2,575.6,240.9z"/>
				<path class="st0" d="M570.2,242.3c-0.1-0.1-0.2-0.2-0.3-0.2s-0.4,0.2-0.4,0.4c0,0.7,0.2,2,0.2,3.3c0.6-0.4,2-1,2-2.3
					C571.8,242.9,570.7,242.6,570.2,242.3z"/>
				<path class="st0" d="M572.1,244.4c-0.3,0.1-0.7,1.9-0.7,2.1c-0.2,0-0.6,0.2-0.6,0.4c0.2,0.8,0.7,1.4,1.4,1.9
					c0.1,0,0.4-0.2,0.4-0.4c0-0.4-0.3-0.3-0.3-0.9c0-0.9,0.7-1.4,0.7-2.3C573,244.8,572.7,244.2,572.1,244.4z"/>
				<path class="st0" d="M572.7,247.3h0.3c0-1.1,0.8-1.4,0.9-2.7h-0.6C573.2,245.5,573,246.4,572.7,247.3z"/>
				<path class="st0" d="M574.6,246.4c-0.2,0.3-0.5,0.1-0.8,0c-0.2,0.4-0.6,0.6-0.6,1.1c0,0.2,0.2,0.3,0.4,0.4
					C574.2,247.8,574.6,247.2,574.6,246.4z"/>
				<path class="st0" d="M573.3,242.4c0-0.9-0.8-1.2-1-1.8h-0.6c0,0.3,0,0.6,0,1.1c0.3,0,0.6,0,0.9,0
					C572.6,242,573.3,242.7,573.3,242.4z"/>
				<path class="st0" d="M568.3,241.1c0.3,0,0.6-0.9,0.5-1.4c-0.2-0.9-0.9-0.7-1.6-1.3h-0.6C566.5,238.3,567.9,241,568.3,241.1z"/>
				<path class="st0" d="M568.9,238.7c0.1,0.1,0.5,0.1,0.6,0C569.5,238.6,569.1,238.7,568.9,238.7z"/>
				<path class="st0" d="M568,208.8c-1,0-2.4,3.2-2.4,5c0,1.2-0.2,2.3,1,2.3C568.2,216.1,569.8,208.8,568,208.8z"/>
				<path class="st0" d="M547.6,222.9c0-0.5-0.5-1.2-0.8-1.2c-0.9,0-3.3,2.1-3.8,2.1c-0.3,0,0,0.8,0,1.3c0,1.1,0.5,1.6,1.5,1.6
					S547.6,224,547.6,222.9z"/>
				<path class="st0" d="M537.8,275.4c0.1,0.3,0.3,1.1,0.5,1.1s0.5,0.5,0.9,0.5h0.5c-0.1-0.3-0.1-0.5-0.1-0.8c-1,0-1.4-1.6-1.7-2.8
					c-0.5,0.1-1.5,0.7-1.5,1.1C536.4,275.2,537.5,274.7,537.8,275.4z"/>
				<path class="st0" d="M542,277.6c0.4,0,0.7-0.5,0.8-1c-0.2-0.1-0.4-0.4-0.6-0.4h-0.7c-0.1,0,0,0.3,0,0.4
					C541.4,277,541.5,277.6,542,277.6z"/>
				<path class="st0" d="M524.4,272.5h-0.6v0.3c0.2,0.8,0.6,1.5,1.2,2c0-0.7-0.2-1.4-0.7-1.9L524.4,272.5z"/>
				<path class="st0" d="M521.7,267.5l-0.3,0.2h0.1c0.1,0.5,1,1.8,1.3,1.8C523.2,269.4,522.1,267.8,521.7,267.5z"/>
				<path class="st0" d="M584.5,188.7c0,0.4,0.3,0.9,0.7,0.9s0.5-0.3,0.8-0.3c-0.1-0.2,0-0.5,0-0.7c0.1,0.4,0.1,0.9,0.5,1.1
					l-0.3,1.1c-0.3,0.4-0.5,0.9-0.7,1.3c0,0.3,0.4,1.3,1,1.3v-0.5c0,0.3,0,0.7,0.2,0.7c1,0,1.5-2.6,1.7-4.1c0.2,0.2,0.4,0,0.6,0
					c-0.1-0.3,0-0.6,0-0.8l-0.6-0.7c-0.2,0-0.1-0.6-0.1-0.8c-0.8,0-1.3-0.7-1.8-0.7C586.4,186.6,584.5,188.2,584.5,188.7z"/>
				<path class="st0" d="M590.9,189.3c0.9,0,1-1.3,1.7-2.1c0.2,0.1,0.5,0.6,1,0.6s1.5-2.9,0-2.9c-1,0-1.2,1.4-2.3,1
					c-0.4,0.4-0.9,0.9-1.3,1.3c0,0.4,0.1,0.6,0.5,0.9C590.4,188.5,590.5,189.3,590.9,189.3z"/>
				<path class="st0" d="M598.3,179.2c-0.6,0-1,2.6-2.2,2.6h-4.3c-1.8,0-2.4,2.1-3.9,3.2c-0.3,0.2-0.9,0.3-0.9,0.6s0.5,0.3,1,0.3
					c1.3-0.1,2.5-0.5,3.6-1.1c0.5-0.3,1,0.1,1.5-0.3c0.2-0.1,0.3-0.7,0.7-0.7c0.8,0,1.2,0.5,2.1,0.7c0,0.3-0.2,0.9-0.2,1.4
					c0,0.3-0.2,0.7,0,0.7c0.5,0,0.4,0.6,1,0.8c0.3-0.8,1.2-2.1,1.7-2.1c0.2,0,0.5,0,0.7-0.1c-0.3-0.4-0.6-0.8-0.7-1.3
					c0-0.3,0.2-0.7,0.4-0.7c0.6,0,0.6,1.4,2,1.4c0.6,0,1-0.5,1.4-1h0.7c0,0.2,0.2,0.4,0.3,0.4c0.3-1.2,0.9-1.2,1.9-2
					c-0.1,0.6-0.3,0.7-0.1,1.3c0.8-0.3,0.8-1.1,1.7-1.7c-0.2-0.5-0.3-1-0.3-1.6c0-1.1,0.8-1.6,0.8-2.3c0-0.9-0.2-3.5,0.5-3.7
					c0.2-0.1,0.4,0.1,0.6-0.2v-0.5c0-1.1,1-1.3,1-2.6c0-1.2-1-1.7-1-2.9c0.1-0.6,0-1.1-0.1-1.6c-0.1-0.3-0.3-0.4-0.8-0.4
					c-0.2,0-0.1,0.8,0.1,0.8s0.1,0.1,0.2,0.1c-0.8,0.8-0.8-0.3-0.9-0.3c-0.9,0-1.6,2.1-1.6,3.1c0,0.4,0.3,0.4,0.3,1
					c0,2.6-2.3,6.1-3.8,6.7c-0.8,0.3-1,1.1-2,1.1c-0.1,0-0.3-0.2-0.3-0.4c0-0.3,0.1-0.7,0.3-0.9
					C599.3,177.2,598.4,179.2,598.3,179.2z"/>
				<path class="st0" d="M606.1,160.7c-0.1,0.6-1.3,1.2-1.3,2.1c0,0.3,0.3,0.5,0.3,0.8v1.9h0.4c0.6-0.7,1.1-0.3,1.7-1.2
					c-0.3-0.3-1.3-0.3-1.3-1.1c0-1.4,1.2-0.6,2.1-0.6c0-0.3,0.2-0.5,0.5-0.7c1.2,0.9,1.9,1.1,3,1.9c0.6-1,1-2.9,2.5-2.9
					c0.8,0,1.6-0.2,2.2-0.8c-0.4-0.2-0.8-0.6-0.8-1.1c0-0.4,0.3-0.6,0.4-1c-0.4-0.3-0.9,0.2-1.5,0.2c-2.7,0-3.5-2.6-5.4-4.1
					c-0.3,0.3-0.4,0.7-0.4,1.1c0,0.3,0.4,0.5,0.4,0.8c0,1.1-0.5,4.3-1.7,4.3c-0.2,0-0.5,0-0.7,0l0.1,0.2c-0.2-0.1-0.3-0.3-0.5-0.4
					L606.1,160.7z"/>
				<path class="st0" d="M616.1,158.2c-0.1,0.3-0.2,0.7,0,0.7c0.6,0,1.5-1.2,1.7-1.7l-0.2-0.2C616.9,157.2,616.4,157.7,616.1,158.2z
					"/>
				<path class="st0" d="M617.5,156.9l0.1,0.1h0.1L617.5,156.9z"/>
				<path class="st0" d="M621.3,153.9c-0.8,0-1.5,1.8-1.5,1.8s-0.1,0.4,0,0.4c1,0,1-1.7,2.6-1.7v-0.6C622,154,621.7,154,621.3,153.9
					z"/>
				<path class="st0" d="M624.6,153.2c0.5,0,1.1-1.2,1.2-1.7c-0.1,0-1,0-1.1,0.5c-0.1,0.2,0.1,0.7-0.1,0.7S624.5,153.2,624.6,153.2z
					"/>
				<path class="st0" d="M611.5,130.1c-0.5-1.2-0.7-2.5-0.8-3.8h-0.5v1.7c0,0.4-0.3,0.6-0.3,1.1c-1,0.3-1.5,2.5-1.5,4.2
					c0,1.2,1,1.7,1,3v4.9c0,1-0.3,1.3-0.3,2.6c0,1,0.4,1.1,0.4,2.3s-0.3,2.2-0.3,3.7c0,0.4-0.2,2.4,0,2.4c0.8,0,0.8-1.8,1.7-1.8h0.7
					c0.1,0.3,0.4,0.9,0.7,0.8c0.1,0,0.1,0,0.2-0.1c-0.6-1.4-2-2.3-2-4.2c0-2.1,0.2-4.8,2.1-4.8c0.6,0.1,1.2,0.5,1.5,1.1
					c-0.4-2-1.3-3.6-1.9-5.7c-0.3-0.7-0.5-1.5-0.5-2.2v-2C611.2,132.1,611.7,131.2,611.5,130.1z"/>
				<path class="st0" d="M431.7,63.2c0.7,0,1.4,0,2.1,0c1.2,0.4,0.5,1.7,1,2.9c0.1,0.4,1.2,0,1.7,0c0.2,0,0.4,0.5,0.5,0.6h5.4
					c-0.1-0.1-0.1-0.3-0.2-0.4c-1.5-1.6-3.8-2.4-3.8-5.4c0-5.3,4.8-10.8,8.3-12c1.2-0.4,1.6-2.3,3.3-2.3c0.8,0,1.1-1.7,1.5-1.9
					c2.3-1.3,4-0.7,6.4-2.1c1.7-1,7-1.5,7-4.3c0-0.9-1.9-2.1-2.8-2.1c-3.5,0-6.7,4.7-10.4,4.7c-0.8,0-1.2-1-2.1-1
					c-1.3,0-1.3,1-2.2,1c-2.6,0-4.5,4-6.2,4c-1,0-1.7,0.6-2.8,0.6c-0.5,0-0.7,0.5-0.7,0.8c0,0.5,0.5,0.8,0.5,1.5
					c0,2.3-3.6,3.6-3.6,5c0,0.7,1,0.8,1,1.8c-1.1,0.3-3.3,0.9-3.3,2.3v1.2c0,1.5-2.1,1.3-2.1,3.3C430.4,62.5,431.7,63.2,431.7,63.2z
					"/>
				<path class="st0" d="M442.1,66.2L442.1,66.2c0.1,0.2,0.2,0.2,0.3,0.3L442.1,66.2z"/>
				<path class="st0" d="M689,76.1c-5.5-3.8-12.7-7.9-20.7-7.9c-2.2,0-3.8,0.6-3.5,1.7c2.1,8-3.2-0.1-4.5,0l-15.9-0.4
					c-0.9-4.3-3.3-5.8-8-5.8c-2.6,0-6.4,1.2-8-0.4c-1.4-1.4-1.5-3.4-3.5-4.2c-4.5-1.9-9.3-2.8-14.2-2.9c-5.4,0-6.2,3.4-6.6,6.6h-11
					c-1.9,0-2.2-1.9-4.5-2.1c-0.2,1.2-0.6,3.7-1.7,3.7c-2.9,0-4.1-4.3-4.1-6.6c0-0.6,5.6-4.8-8.7-6.2c-1.8-0.2-2.8,0.7-2.8,3.3h-7.6
					c-2.3-0.7-14.3-2.4-15.8-5.4c-9.1,8.9-7,3.3-7,3.3c2.1-3.2,23-10,5.9-14.9h-7.3c-0.7-2.3-2.2-4.6-5.2-4.6c-3.6,0-5,3.2-6.9,5
					c-1.4,1.2-10.3,5.5-9.6,1.6c-2.3,0.8-12,1.6-17.1,7c-1.1,1.1-1.4,4.6-3,4.6c-2.3,0-10.9-1-10.9,3.7c0,1,0.8,2,1,3.3
					c-1.5,1.2-2.1,0-6.9,0c-4.1,6.6-3.7-1-4.7-2.5c-0.4,2.7-1.8,3.8-3.6,5c0.5,2.3,3.5,4.7,1.4,7.5c-1.5,1.9,2.8,8,0.6,8
					c-2.9,0-3.7-12.5-3.7-15.1c0-2.8,3.9-4-2.1-5.4c-3-0.7-8.6,5.1-8.6,8.3c0,3.1,1.1,6,3.1,8.3c3.8,7.2-5.4-0.8-8.8-1.9
					c-9.5-2.9-6.4,0.9-6.4,1.5c-0.3,6.4-2.6,1.2-3.8,1.2c-2.1,0-6.5,3.5-9.7,1.7c-1.6-4.9-12,6.2-14.5,6.2c-0.8,0-2-0.7-1.7-1.7
					c1.1-3.3-0.5-10.6-3.5,0.4c-0.2,0.7,1,1,1,2.5c0,2.9-3.6,0.9-5.5,1.7s-1,8.7-9,4.6v3.3c-3.9-0.4-3.5-5.5-4.8-7.9
					c3,0,4.6-0.1,7.5,0.8c3.8,1.2,11.6-4.6-0.2-9.1c-3.4-1.3-10.9-5.8-13.1-5.8c-0.2,0-0.3-0.3-1.9-0.1c-0.2,0-1.7-0.3-2.3-0.3
					c0-0.5-0.5-0.6-1.2-1.2c1.6-0.7,2.1,0,2.8-2c-0.7-0.5-1.5-0.9-2.3-1.2c-0.5,0-0.8,0.6-1,1.2c-0.8-0.1-0.6-0.8-0.7-1.9
					c-1,0.6-1.9,1.4-2.6,2.3c0-0.5-0.1-1-0.4-1.5c-1.2,0.8-1.6,2.7-3,2.5c0.3-1.2,1.5-1.5,1.5-2.7s-2.6,1-3.7,1
					c-0.6,0-1-0.7-1.5-1.2c-0.2,0.5-1.5,0.8-1.5,1.2c0,0.6,0.5,0.8,1,1c-1.3,0.8-2.4,0.3-3.3,2.3v-1.4c-1.5,0.1-1.7,2-2.6,2.2v-1
					c-1,0.2-2.3,0.2-3,1l0.5,0.7c-0.5,0.3-0.9,0.2-1.4,0.2c-0.7,0-1.2,0.7-1.6,1.3c0.4-0.1,0.8,0,1.1,0.2c-0.1,0.1-0.9,2.1-1.3,2.1
					c-0.9,0-1.2-0.8-2.3-0.8c0.2-0.5,0.1-1.1-0.2-1.5c-0.3,0.3-0.5,0.7-0.6,1.1c-0.2,0-0.3-0.2-0.5-0.2c-0.5,0-0.9,0.5-1,1.3
					c0.3,0.1,0.7,0.2,1,0.3c-0.5,0.3-1,0.7-1.4,1.2c1.7,0,2.4-1.1,4.1-1.5c-0.3,1.7-2.3,4.6-3.7,5.2c-1.5,0.7-2.6,2-3.3,3.5
					c0,0.1-0.7,1.9-0.7,1.9c-0.5,0-0.4,2.6-1.2,3.3c-2.1,2-3.3,4.9-6.3,5.8c0.6,0.2,0.9,0.3,1.7,0.6c-2.5-0.3-2.8,1.7-4,2.1
					c-1.4,0.5-2.5,1.6-3.1,2.9c-0.4,0.8-1.5,0.7-1.5,1.9c0,2.3,0.1,4.4,1.2,5.9c-0.4,0.6-1.1,1.6-1.1,2.2c0.5-0.3,1.2-0.5,1.8-0.4
					v1.2c-0.3,0.2-1.2,0.6-1.2,1.3c0.9,1,1.9,1.8,3.1,2.3c2.9,0,5.1-3.1,6.6-5.6c0.5,0.8,0.6,1.5,1.4,2c-0.2,0.4-0.3,0.8-0.4,1.2
					c0,1.5,1,1.8,1.4,3.1c0.5,1.8,0.4,3,1.5,4.4c0,0.3-0.1,0.6-0.1,0.8s1,3.9,1.5,3.9c1.7,0,2.1-2.7,3.3-2.7h1.9
					c0.2-1.6,1.9-1.7,2.1-4c-0.6-0.1-1.1-0.8-1-1.4c0-1.7,0.5-4.1,1.9-4.1c0.7,0,2.8-2.1,2.8-3.3c0-1.6-1.9-3.1-3.1-3.3
					c0-0.5-0.2-1.1-0.5-1.5v-1.7c1-0.6,0.3-2.2,0.9-3.3c0.7-1.5,1.9-1.8,3.1-2.7c1.5-1,4.6-2.7,4.6-4.6c0.2-0.5,0-0.9,0-1.9
					c0-2.3,1.9-3.3,4.1-3.3c1.7,0,4,0.4,4,2.5c0,1.4-1.6,1.8-2.6,2.5c-1.8,1.2-3.3,5.8-6.2,5.8c0.1,0.6,0.1,1.1,0,1.7
					c0,0.9,0.6,2.8,1.3,3.2c-0.2,0.4-1,1-1,1.8c0.1,1.6,1.4,2.9,3,2.9c0,0.9,0.6,1.1,1.5,1.1c1.4-0.2,2.8-0.6,4.1-1.2
					c1.3,0.3,4.5,0,5.2-1.7c0.7,0.9,1.3,1.8,1.7,2.9c-1.1,0.9-2.4,1.5-3.8,1.8c-1.2,0-1.9-0.6-3.5-0.6s-5,1.7-3.9,2.9
					c3.5,3.9,1.7,5.4,0.8,5.4c-1.4,0-1.6-2.1-2.8-2.1s-2.8,3.8-2.8,5.8c0,3.2-2.2,2.8-2.4,5.7c-0.8,0.1-1.7,0.2-2.5,0.2
					c0.1-0.3,0.1-0.6,0.3-0.9c-0.8-0.3-1.6-0.4-2.4-0.3c-0.8,0-1.9,1.2-2.6,1.6c-1,0.6-1.9,0.3-3.1,1c-0.4,0.2-0.4,0.7-1.2,0.7
					c0,0-1.2-1-1.2-1.2s0.3-0.5,0.4-0.9c-1.6-0.2-2.9,1.7-4.8,1.7c-0.2,0-0.3-0.6-0.5-1c-0.6,0-0.9-0.3-1.7-0.3c0-0.3,0-0.6,0-0.9
					c-0.4-0.1-0.8-0.7-0.8-1.5c0.1-1.2,0.6-2.3,1.5-3.1c0.2-0.3,0.8-0.4,0.8-0.8v-0.7c-0.6,0-1.3-0.1-1.3-0.9c0-0.7,0.1-1.5,0.4-2.2
					v-1c-1.7,1.5-4.4,1.7-4.4,5.2c0,2,1.1,2.7,1.4,4.9c0.2,0.7,0.4,1.4,0.5,2.1c0,0.7-1.1,1.4-1.5,1.4c-0.6,0-1.2-0.5-1.7,0.1
					c-0.1,0.2-0.4,0.8-0.5,0.6c-0.5,0.3-0.1,0-1,0c-1.6,0-2.6,1.3-3.5,2.5c-0.1,0.1-0.7,0.6-0.7,0.9c0,1,0.2,2-0.4,2.6
					c-1.1,0.7-2.3,1.3-3.5,1.8c-0.3,0.1-0.7,0.2-1,0.2c-0.4,2-1,3.8-3,3.8c-0.1,0.7-0.6,1.2-1.2,1.2c-0.8,0-1.6-0.4-2.1-1.1h-0.7
					v0.7c0.1,0.3-0.1,1.5,0.4,1.7v0.6c-0.5,0.2-1,0.4-1.6,0.4c-0.6,0-1.7-0.3-1.9-0.8c-0.7,0.3-2.6,0.8-2.6,1.5c0,0.1,0,0.3,0.1,0.3
					c0,1.3,3,1.9,4.1,2.3c0.3,0.1,0.4,0.5,0.8,0.6c0,1.3,0.4,2.8,1.8,2.8c0,0.7,0.4,0.5,0.4,1.3c0,0.4-0.1,0.8-0.3,1.2l0.1-0.1
					c0,0.5,0.1,1.9,0.1,2.3c0,1.6-0.9,2.1-0.9,3.7c-0.6,0.2-1.1,0.3-1.7,0.4c-0.7,0-1.1-0.6-1.9-0.3h-3.3c-0.4,0-0.8-0.2-1.2-0.5
					h-3.1c-0.4,0.2-0.8-0.3-1-0.3s-2.8,1.7-2.8,2.2c0,0.8,0.8,1.9,0.8,3.2c0,2.1-0.6,4.3-0.6,6.4c0,0.6-0.8,0.8-0.8,1.9
					c0,0.6,0.5,1.1,1.1,1.2v3.2c0,0.3,0.1,0.7,0.5,0.7c1,0,1.8-0.6,3-0.6c1.6,0,1.7,3.1,2.7,3.1c1.5,0,2.4-1.6,4.1-1.6
					c0.4,0,1.5-0.4,2.1-0.2v-0.1c1.4,0.5,1.5-1.6,2.4-2.1c1.5-0.8,1.9-1.8,2.8-3.5c-0.4-0.2-0.7-0.6-0.7-1.1c0-1.8,2-5.2,3.3-5.6
					c1.5-0.4,3-1,3.4-2.7l-0.4-1.8c0-1.2,1-2.1,2.1-2.1c1.4,0,2.4,0.9,3.9,0.9s2.4-1.5,3.7-2.2c0.6-0.3,0.7-1.4,1.9-1.4
					c2.6,0,3,3.4,4.3,5.3c0.1,0.6,1.2,0.9,1.7,1.5c1.2,1.4,1.7,2.2,3.8,2.7c0,0.5,1,0.9,1.3,0.9c0.5,0.9,1.1,1.8,1.9,2.5
					c0.1,0.7,0.7,1.1,0.7,2.3c0,1-0.3,2.2-1.2,2.2c0,0.3,0.3,0.6,0.8,0.6c1,0,0.8-1.7,1.5-2.5c0,0,0.9,0,0.9-0.4
					c0-1.1-1.3-1.3-1.3-2.4c0-0.8,0.7-1.4,1.4-1.3c0,0,0.1,0,0.1,0c1.1,0,1.5,1.1,2.2,1.2c0.2-1.7-1.5-2.4-2.8-3.2
					c-0.4-0.2-2.1-0.7-1.8-1.7c0.1-0.2,0.2-0.4,0.1-0.7c-1,0-1.7,0.4-2.8-0.2c-0.5-0.3-1-1.6-1.3-2.8c-0.2-1.1-0.9-2-1.8-2.6
					c-0.9-0.3-1.5-1.1-1.5-2.1c0-0.5,0.1-1,0.3-1.5c-0.1,0-0.4-0.3-0.4-0.5c0-0.9,1.5-0.9,2.3-1.5c0.4,0.5,0,2.2,0.9,2.2h2.1
					c0,1.9,1.7,4.7,3.2,4.7h1c0,1.2,1.1,1.2,2.1,1.8s2.5,2.3,2.5,3.5v2.2c0,1.7,1.1,2.5,1.9,3.5c0.7,0.7,1.2,1.7,1.5,2.6
					c0,0.2,0.1,0.9,0.4,0.9h1.2c-0.2,0.4-0.9,0.7-0.9,1.3c0,1.4,1,2.7,2.1,2.7h1c-0.7-0.4,0-1.4,0-1.9c0-0.5-0.2-1-0.4-1.4v-0.7
					c0.5,0.6,1.1,1,1.8,1.3h0.1c0.1-0.6,0.8-0.3,1.2-0.5c-0.2-0.2-0.3-0.5-0.3-0.8c-0.5,0-2.4-2.1-2.4-2.3s0.2-0.5,0.3-1l-1.3-1.8
					c0-0.4,0.4-0.9,0.8-0.9c0.6,0,0.8,1.2,1.8,1.2c0.1-0.6,0.1-1.2,0-1.8c0.9-0.3,1.2-1.1,2.3-1.1s1.9,1.6,2.9,1.6s1.1-1.1,2-1.6
					c0.6-0.3,1.1,0,1.7-0.3c0.4-0.1,0.6,0,0.9-0.3c-0.4-0.7-2.3-1.9-2.3-3.6c0-1.2,1.3-2.8,1.9-3.6v-2.2c0.2-0.5,0.2,0.2,0.4-1.2
					c0-0.8,0.7-1.2,1.4-1.4c-0.1-0.4,0-0.8-0.1-1.2c1.5-0.5,1.7-2.6,3.2-2.6c1.3,0,4.4,6.2,5.4,6.2c1.8-0.4,3.5-1.3,4.8-2.6
					c-0.1,0-1.9-0.3-1.9-0.3c-0.7,0-1.2-0.6-1.2-1.2c0-0.7,5-2.9,6.9-3.7c-0.4,0.5-0.8,1-1.3,1.4c0.1,0.5,1.9,2.7-2.1,4
					c1.7,4.9,9.7,4.1,9.7,10.6h0.3h0.1c-1.2,0.6-2,1.9-3.5,1.9h-4c-0.8-0.1-3.5-0.6-3.5-1.6c-1.6,0-1.5-1.3-3.4-1.3
					c-1.2,0-3.1,0.1-4,0.8s-2,1.6-2.8,1.6h-2.1c-0.4,0-1.7-0.3-1.7,0.4c0,0.6,0.4,0.3,0.5,1c-1.2,0.8-6.2,0.3-6.2,2.8
					c0,0.5,0.7,0.4,1.2,0.4c-0.1,0.4,0,0.4,0,1c0,1.6-0.8,1.4-1.5,2.2c1,0.6,1.7,0.5,2.3,1.6c-0.7,0.8,1.3,2.1,1.7,2.6
					c-0.1,0.2-0.3,0.4-0.5,0.5h0.8c1.3-0.7,2,1.5,3.3,1.5s1-1.9,2.4-1.9s2,2.1,3.5,2.1c2,0,2.4-1.1,3.5-2.1c0.3,0.4,0.8,0.7,1.4,0.7
					c0.5,0,0.8-0.5,1.3-0.7v0.8c-0.3,0.2-0.5,0.5-0.5,0.8c0,1,0.3,2.1,0.3,3.6c0,1.9-1.4,2.3-1.8,4s-0.6,2.6-1.1,4.4
					c-0.1,0.3-0.5,0.3-0.5,0.9l0.4,1.1c-0.1-0.2-0.2-0.4-0.2-0.6c-0.9,0.3-0.9,0.7-1.9,0.7c-1.5,0-2.3-1.1-3.6-1.1
					c-2.1,0-2.8,1.2-5,1.2c-2.4,0-5.5-1.2-7.7-2.2c-1.1-0.5-2.7,0.2-3.3-0.8c-0.3-0.5-1-0.7-1-1.9h-1.5l-0.2-0.2
					c-2.1,0.8-3.8,0.8-3.8,3.5v1.7c-0.2,0.6-0.7,1.1-1.4,1.2c-5.1,0-6.7-6.6-11.2-6.6H354c-1.3,0-3.1-1.8-3.1-3.9
					c0-1.3,0.9-1.9,0.9-3.1c0-0.8-0.9-1.1-0.9-1.8c0-1.1,1-0.9,1-2.1c-0.4,0.1-0.6,0.5-1,0.5c-1.1,0-0.8-1.5-2.1-1.5
					s-1.4,1.2-2.8,1.2c-0.8,0-1.2-0.6-2.1-0.6s-2.1,1.2-2.9,1.2c-0.5,0-1.5-0.8-2.4-0.8c-3.1,0-8.2,2.3-10.9,3.9
					c-0.8,0.5-1.1,1.5-2.6,1.5c-2.2,0.1-4.3-0.6-5.9-2.1c-0.5,0.7-1,1.4-1.4,2.2h0.1c-1.7,2.6-4.1,5.1-5.9,7.9
					c-1.4,2.1-0.3,3.4-1.2,6.5c-0.3,1.3-2.1,3-3.1,3.7c-1.3,0.8-3,0.7-4,2.2c-1.9,3.3-3.5,6.7-4.6,10.4c-0.3,1.3-1.9,2.3-1.9,4
					c0,3.3,1.4,5.6,1.4,9.3c0,2.1-1.4,6.5-2.9,7.5c0.5,1.1,1,1.6,1,2.7c0,0.7,0.4,1.4,0.4,2.6H297c0.4,0.5,0.6,0.7,0.9,1.2
					c1.3,1.6,2.7,3.2,4.1,4.6c1.7,1.6,2.1,3.6,3.5,6c1.5,2.6,5.5,5.5,7.4,7.2c0.6,0.4,1.3,0.6,2.1,0.7c2.7,0,3.9-1.6,6.6-1.6
					c1.4,0,3.1,1.3,4.1,1.3s1.4-1.1,2.4-1.5c2.6-1,5.2-2.9,8.6-2.9c2.8,0,3.3,4.8,5.4,4.8h2.8c2.3,0,3.6,1.7,4.4,3.5
					c-0.7,0.7-0.7,3.1-0.7,4.1c0,0.3-0.3,0.5,0,1.2c-0.8,0.9-1.4,2.1-1.6,3.3c0,3.9,3.9,6.8,5.7,9.5c0.9,1.4,0.6,3.3,1.2,5
					c0.9,2.2,1.4,4.5,1.7,6.9c0.2,1.8,0.9,2.6,0.9,4.7c0,4.4-4.4,5.8-4.4,11.6c0,5.4,2.1,8.5,4,12.4c0.5,1.2,1.4,1.6,1.4,2.7v2.2
					c0,7.3,3.2,12.2,5.7,17.2c0.3,0.7,2.3,3.2,2.3,4.5c0,0.8-0.3,1.6-0.9,2.2c0.8,1.2,1.2,2.7,1.2,4.1c0.2-0.2,0.4-0.3,0.7-0.4
					c0.3,1,1.2,1.6,2.2,1.7c2.6,0,4.4-2.5,7.3-2.5c0.8,0,1.2,0.8,1.9,0.8s1.2-0.5,2.1-0.6c0.2-1.5,1.9-0.8,3.1-1.5
					c2.8-1.7,3.6-4,5.3-6.6c1.1-1.7,1.2-3.6,2.8-5.4c0.8-1,2.8-2.8,2.8-5.1c0-0.7-0.4-1.4-1-1.7c0.6-1.7,1.8-3.1,3.5-3.9
					c0.5-0.2,1.7,0.1,2.1-0.6s0.6-3.5,0.6-4.8c0-2.5-1.9-3.7-1.9-5.5c0.2-1.2,1-2.1,2.1-2.5c0.8-5.5,9.9-4.7,9.9-11.2
					c0-0.6-0.2-1.2-0.5-1.7c0-2.3,0.2-3.9,0.2-5.2V297c0.3-0.4,0.4-0.8,0.5-1.3c0-1.6-2.6-3-2.6-5.8c0-2.5-0.5-3.6-0.5-6.2
					c0-2.3,1.8-2.9,2.3-5c1.7-7.4,6.6-8.7,11.2-13c2.6-2.4,3.5-5.4,5.5-8.7c1.7-2.8,4.8-9,4.8-13.7c0-0.5-0.3-0.8-0.5-1.2
					c-2.5,0.8-5,2-7.6,2.5c-1,0.2-1.7-0.4-2.8,0s-1,1.4-2.1,1.4s-2.1-2.6-3-3.5c0.7-1,0-1.2,0-2.6c-2.3,0-2.9-3.4-4-4.4
					s-2-1.1-3.1-2.5c-1.3-1.5-0.5-3.6-1.7-5.6c-1-1.7-2.4-1.7-3.1-3.9v-4.4c-1-1-3.1-4.6-2.8-6.4l-6.4-13.9v-1.4
					c1.2,1.4,2.4,5.1,3.8,5.4c0.2-0.8,1-2.9,1.3-4.1c-0.1,1-0.4,2.1-0.4,2.6c0.3,0.7,0.7,1.4,1.2,2c0.8,1.4,1.5,2.7,2.3,4.1
					c0.4,0.6,0.8,1.3,1,2c0.1,0.5,0,1.7,0.4,2.2c0.2,0.2,1.1,0.1,1.4,0.4c0.3,0.4,0.6,0.7,0.9,1.1c0.3,1.6,1.2,2,1.2,3.9
					c0,3.1,0.6,4.9,3,5.5c0,2,1.9,4.9,2.8,5.8s1.9,1.6,1.6,3.5c-0.1,0.7-0.7,2.3,0.1,2.4c0,1.5,0.5,3,1.2,4.2
					c0.5,0.8-0.1,0.8,0.1,0.9c0.7,0.4,1.4,0.8,2.2,1.1l0.4-0.3c1.5,0,1.6-0.7,2.8-1.7h2.1c0.9-0.5,3.7-2.8,4.5-3.1
					c1.9-0.5,3.7-1.1,5.4-2c-0.2-0.2-0.3-0.5-0.3-0.7c0-1.8,4.2-2.7,6.1-3.1c0.2-1.1,0.9-2,1.9-2.4c1,0,1-2.4,2-2.4
					c0.8,0,0.8-1.4,1-2.4c0.2-0.9,1.1-1.5,2-1.3c0-2,2-2.6,2-4.6c0-0.8-1-0.6-1.3-1.3v0.1c-0.5-0.3-0.5-1.7-1.3-2
					c-2-0.8-3.3-1.2-4.3-3.6v-3.1c-2.5,2.2-2.8,5.6-7.5,5.6c-1,0-2.8-0.6-2.8-1.7c0-1,0.5-1.7,0.5-2.6c0-0.3,0-0.6-0.1-0.9
					c-0.7,0.2-0.6,1.2-1.4,1.5c-0.1-0.8-0.5-1-0.5-1.9c-1.6-0.4-3.5-4-4-6c-0.1-0.6-0.2-1.3-0.1-1.9c0-1.2,0.4-2.6,1.4-2.6
					c1.9,0,3.5,2.6,4.2,4.4c0.1,0.3-0.1,1,0.3,1.5c0.8,0.9,1.9,0.4,2.7,1.4c0.7,0.8,1.3,1.9,2.4,2.3h3.5c0.4-0.5,0.7-1.3,1.5-1.3
					c1.5,0,1.5,2.5,2.1,3.3c0.8,0.3,1.6,0.6,2.4,0.8c1.9,0,4.9,1,6.2,1c0.1,0,0.4,0.1,0.4,0l2.4-0.2c0.2-0.2,0.4-0.4,0.6-0.6
					l1.8,0.6c0.7,0,0.9-0.7,1.7-0.7c0.7-0.1,1.4-0.1,2.1,0.1c0.8,0.3,1.2,2.2,1.8,3.3c0.7,1.2,2.7,2.9,4.1,2.9c0.5,0,1.1,0,1.6,0.2
					c-0.3,0.3-0.4,1.1-0.9,1.2s-1.1-0.2-1.7,0.3c1,1.2,1.9,3.8,4,3.8c1.8,0,1.9-2.8,2.8-3.9h0.6c0,0.3-0.4,0.9-0.4,1.1
					c0,1.1,0.7,2.1,0.7,3.4c0,1-0.3,1.3-0.3,2.4l0-0.1c0,0.2,0.1,0.9,0.1,1.2c0,1.6,0.8,3.2,1.2,4.8c0.5,1.8,1.7,4.6,2.1,5.8
					c0.2,0.9,0.4,1.8,0.8,2.6c0.5,1,0.2,2.1,0.8,3.4c0.3,0.7,1.3,1.5,1.5,2.6c0.5,1.7,1.2,3.4,1.8,5.4c0.1,0.2,0.3,0.8,0.6,0.8
					c0,0.5,0.4,0.9,0.9,0.8c0,0,0.1,0,0.1,0c0.5,0,0.6-1,0.9-1.7c0.4-0.8,0.5-0.5,1.3-1c0.6-0.3,0.4-2.5,1.3-2.8
					c0.2-0.1,0.7-0.1,0.7-0.3l0.3-0.1L486,243c0-1.6,0.8-2.9,0.8-5c0-1.3-0.5-2.2-0.5-3.6c0-1.7,1.5-2,2.7-2.5
					c0.5-0.2,1.3-1.2,1.8-1.8c1.3-1.6,2.5-3.2,3.9-4.9c1.1-1.3,3.1-1.7,4.4-3.2c0.6-0.8,0.5-1.7,0.8-2.8c0.2-0.7,1.7-0.8,2.1-2.1
					c0.5,0.4,0.5,0.8,1.7,0.8c1.8,0,3.7-0.5,3.7-3c1.1,0.1,2.1,0.9,2.5,1.9c0.3,1,0.1,2.3,0.7,3.3c0.6,1,1.4,1.9,2.3,2.6
					c0.8,1.4,1.5,2.9,2,4.4c0.1,0.4,0.4,0.7,0.4,1.1c0,0.9-0.3,1.4-0.3,2.5s0.1,2.1,1.1,2.1c1.9,0,2.4-2.4,3.6-3.8
					c0.4,0.5,0.2,0.8,0.6,1.3c0.1,0.2,0.7,0,0.9,0.4c0.7,1.2-0.5,3.7,0.4,3.7c0,2.7,1.8,4.8,1.8,8.5c0,0.9-0.5,2.8,0,3.1h-0.3
					c-0.2,1-0.3,2.1-0.3,3.1c0,0.2-0.1,0.5,0,0.5c0.6,0.5,0.2,0,0.9,0c1.1,0,1.6,3,2.1,4.1c0.6,2,1.1,4,1.5,6c0.8,2.7,2.7,5.2,4.8,6
					c0.4,0.2,0.5,0.7,1.2,0.7c0.2,0,0.3-0.3,0.5-0.3c0.3,0,0.6,0,0.9-0.1c-0.3-0.8-0.5-1.6-0.6-2.4c-0.3-1-1.3-1.5-1.3-3
					c0-0.8,0.3-0.8,0.3-1.6c0-4.1-4.1-4.6-6-6.9c-0.5-0.6-0.5-2.1-0.8-2.6h0.1c0-2.4-2.3-1.4-2.3-4c0-2.2,2-2.9,2-5.4
					c0-0.7-0.3-0.8-0.3-1.6c0-0.4-0.1-0.9,0.4-0.9c0.8,0,1.6,0.2,1.8,1.1c0,0,0.2,1.1,0.3,1.1c1.1,0.4,2.1,0.5,3,1.6
					s0.1,2.2,1.6,2.2c0,1.3,1.4,1.6,2.4,1.6c0.1,0.4,0.2,1.1,0.5,1.3c-0.3,0.2-0.3,0.5-0.3,1.2c0,0.5,0.3,1.7,0.6,1.7
					s1.7-1.2,1.7-2.1v-0.9c0,0.3,0,0.8,0.2,0.8c0.8,0,0.7-1.3,1.5-1.8c1.8-1.1,2-2,4.2-2.6c0-1.5,0.8-2.2,0.8-4.1
					c0-2.7-1.1-6.4-2.8-7.7s-2.4-3.5-4-5.4c-0.3-0.3-0.6-0.5-0.6-1.2c0-3.6,3.4-4.1,4.8-6.7c1.2,0.7,2,0.2,3.3,0.9
					c-0.1,0.4-0.3,2.1,0.3,2.1s0.3-1.1,0.9-1.7s1.9-0.8,2.4-1.2c1.3-0.8,2.6-0.4,3.5-1.4c0.2-0.6,0.5-1.1,0.8-1.6
					c0.7,0,1,0.7,1.7,0.7c3.2,0,3.9-2.3,5.9-3.6c0.6-0.3,0.9-0.9,1-1.5c1.7,0,2.1-3.1,2.8-4.6c0.4-1,2.3-4.3,3.3-4.6
					c0-1.8,1-2.6,1-5c0.1-2.5-0.6-5-1.9-7.1c-0.2-0.4-0.2-1.4-0.8-1.8l0.1-0.1H566c0,0-0.1-1.3-0.1-1.6c-1-0.2-1.7-1.1-1.9-2.1
					c0-1,1.2-1.1,1.5-2.1c0.6-2.2,3.6-2.2,5-3.9c-0.5-0.9-1.6,0-2.6-0.8c-0.5-0.3-0.8-1-1.5-1c-0.5,0-0.5,1.8-1,1.8
					s-1.2,0.2-1.8-0.2c-0.8-0.7-0.6-1.5-1.4-2.2c-0.3-0.3-1.5-0.6-1.5-1.4c0-1.7,2-1.2,3-2c1.1-0.9,2.2-1.9,3-3.1
					c0.1-0.3,0.4-1.1,1.1-1.1s1.3,1.1,1.3,1.6c0,1.3-1.3,1.9-1.3,3.4c1.9,0,3.5-2.5,5.7-2.5c0.8,0,1.2,0.9,2.2,0.9
					c-0.3,0.8,0,0.8,0,1.8c0,0.8-0.8,0.7-0.8,1.7c0,0.4,0.2,1.4,0.7,1.4c0.2,0,0.5-0.4,1-0.4c1,0,1.8,0.7,1.9,1.6
					c0,0.6-0.5,1.1-1.1,1.1v0.8c0.1,0.2,0.3,0.5,0.7,0.6c0,0.5,0.3,0.9,0.3,1.4c-0.3,0.6-0.5,1.3-0.6,1.9c0,0.3,0,0.7,0.3,0.8
					c-0.1,0.4-0.4,0.7-0.4,1.1h1c0.4-0.5,0.5-0.5,1.4-0.8c0-0.7,1.7-0.8,2.2-1c1-0.3,1.4-1.2,1.4-3.1c0.1-2.6-0.8-5.1-2.6-7
					c-0.8-0.7-1.3-1.8-1.2-2.9c0.8-0.1,1.6-0.5,2.1-1.3c0.5-0.6,1.7-1.4,2-2.1c0.6-1.9,1.7-3.7,3.1-5.1l0,0c1.6,0.5,3.2,0.8,4.8,0.8
					c3.9,0,7.7-10,10.4-13.3c1.5-1.8,2.5-3.9,3-6.2c0.5-2.4-0.3-3.9,0.8-6.3c0.7-1.4,1.1-3,1.2-4.6c0-2.2-3-6.6-4.4-5.4
					c-4.1,3.7-6.2-2-6.2-2.5c0-2.3,3.7-4.9,5.2-6.6c2.2-2.6,5-6.9,8-7.9c2.6-0.8,10.9-1.7,13.1-1.7c2.8,0,4.2,1.7,5.9,1.7h3.9
					c1.1-5.5,3.2-8.7,8-8.7c1.4-0.2,2.8-0.2,4.2,0c-1.2,1.1-1.7,8.3,5.9-2.9c0.8-0.2,4.4,1.6-1,5.8c-1.9,1.5-3.6,0.7-4.8,2.9
					c-1.5,2.5-2.8,5.6-4.8,7c-1.7,1.2-4.2,3.1-4.2,6.6c0,3.1,0.8,13.1,2.8,14.9c1.4-2.5,2.3-7,5.2-7.9c-0.3-2.3,2.8-2.8,2.8-4.6
					c0-2.7,2.4-3.5,2.4-5c0-1-0.7-2,0-3.7c5.6-14.3,10.7-6.6,12.8-6.6c6.2,0,10.5-9.4,15.9-9.5c10.3-0.2,2.1-4.9,2.1-6.2
					c0-3.6,4-3,4.8-5c0.3-0.8-0.3-2.9,1-2.9c4.3,0,8,7,11.1,7c1.4,0,1.7-3.1,2.4-4.1c1.2-1.7,2.3-1.5,4.2-2.2
					C701.1,81,693,78.8,689,76.1z M376.4,131.1L376.4,131.1c0-0.3,0-0.5,0-0.8C376.4,130.5,376.4,130.8,376.4,131.1L376.4,131.1z
					 M374,144.8L374,144.8c0,1.6,0.6,1.8,1.5,1.9C374.7,146.7,374.1,146.4,374,144.8L374,144.8z M375.3,139.8
					c0.4-0.4,1.4-0.8,1.4-1.6c0-1.4-1-2.4-1.3-3.8c0.3,1.4,1.3,2.4,1.3,3.8C376.8,139.1,375.8,139.4,375.3,139.8L375.3,139.8z
					 M386.9,81.2c0-1.4,1.3-2.1,1.3-3.5c0-1.8-2.4-1.7-2.4-3.3c0,1.6,2.4,1.5,2.4,3.3C388.1,79.1,386.9,79.8,386.9,81.2
					c0,1.6,1.4,2.5,1.4,4.1C388.3,83.7,386.9,82.8,386.9,81.2z M398.1,197.8c0-0.1,0-0.1,0-0.2V197.8
					C398.1,197.7,398.1,197.8,398.1,197.8L398.1,197.8z M429.6,159.1c1.3,2.7,3.2,3.8,3.2,7c0.7-0.5,1.5-0.9,2.4-1.3
					c0.1,1.3,1.2,1.9,1.2,3.1h-2.1c-0.6,0-1.3,0.8-1.4,2.1c1.5,0.2,2.4,1.9,2.4,3.5c0,0.9-0.5,1.2-0.5,1.9c0.1,0.6,0.3,1.2,0.7,1.7
					v1.5c-1.1,0.3-2.1,0.5-3.3,0.5c-0.9,0-2.6,0.2-3.2-0.5c-0.4-0.5-0.5-1.3-1.2-1.5s-1.7,0.3-2-0.6s0.2-1.7-0.4-2.6
					c-0.3-0.7-0.9-0.6-0.9-1.4c0-0.2,0-0.3,0-0.5c-0.3-0.3-0.3-1-0.5-1.5c-0.3,0-0.7,0.1-1,0.3c-1,0.4-1,1.9-2.5,1.9l0,0
					c1.5,0,1.5-1.5,2.5-1.9c0.3-0.2,0.7-0.2,1-0.3c0.2,0.5,0.2,1.2,0.5,1.5c-0.1,0.2,0,0.3,0,0.5l1,0.2c0.8-1.3,0.8-3.3,1.9-4
					c-1.9-1.3-4.7-6.2-4.7-9c0-0.8-1.5-2.1-1.5-3.3c0.4-1.4,1-2.7,1.7-4c0.3,0.3,2.4-1.2,2.6-1.2c1.6-0.9,3.4-1.4,5.2-1.4
					c3.7,0,4.4,2.2,5.7,4.6c-1,1-2.4,0.1-3.7,0.1c-1.9,0-4.6,2.2-4.8,2.1C428.1,158.2,429.2,158.2,429.6,159.1L429.6,159.1z
					 M437.8,175.6c0.1-0.2,0.3-0.3,0.5-0.4l0,0C438.1,175.3,437.9,175.5,437.8,175.6L437.8,175.6z M439.9,174.8
					c0.5-0.1,1-0.3,1.4-0.7C441,174.5,440.5,174.7,439.9,174.8L439.9,174.8z M448.8,186.8L448.8,186.8c0,0,0.1-0.1,0.1-0.1
					C448.8,186.7,448.8,186.8,448.8,186.8L448.8,186.8z M451,193.8c0,0.2,0,0.4-0.1,0.6C451,194.2,451,194,451,193.8z M450.7,182
					c-0.2,0-0.2,0.4-0.4,0.5c-0.6,0.9-1.1,1.9-1.4,2.9c0.3-1,0.8-2,1.4-2.9c-0.2-0.6-0.3-1.1-0.2-1.7c0,0.5,0.1,1,0.2,1.5
					c0.8-1,1.4,0.4,2.1,0.4C451.7,182.7,451.4,182,450.7,182z M457.6,177.2c0.3-0.4,0.8-0.7,1.4-0.7l0,0
					C458.4,176.5,457.9,176.7,457.6,177.2L457.6,177.2z M463.6,178c-0.5,0-0.8-0.9-1.3-0.9s-2.1,0.7-2.2-0.3c0.1,1,1.8,0.3,2.2,0.3
					S463.1,178,463.6,178L463.6,178z M467,176h-0.2H467c0.3,0,0.5-0.4,0.7-0.8C467.5,175.6,467.3,176,467,176z M470.8,178.3
					c-0.4,0-0.6-0.3-0.7-0.7C470.2,178.1,470.4,178.3,470.8,178.3z M472.8,177.5c0.4-0.4,1-0.6,1.5-0.6l0,0
					C473.8,176.9,473.2,177.1,472.8,177.5L472.8,177.5z M478.3,178.6c-1-0.4-1.7,0-1.7-1.4c-0.7-0.2-1.5-0.3-2.2-0.3
					c0.7,0,1.5,0.1,2.2,0.3l0.1-0.4l-0.1,0.4C476.7,178.6,477.3,178.1,478.3,178.6c0.2,0.1,0.4,0.2,0.4,0.5
					C478.7,178.8,478.6,178.6,478.3,178.6L478.3,178.6z M485.7,193.9c-0.3-0.1-1,0-1.1-0.5C484.8,193.9,485.5,193.8,485.7,193.9
					c0.2,0.1,0.4,0.2,0.5,0.3C486.1,194.1,485.9,194,485.7,193.9L485.7,193.9z M485.1,180.6c1.1,0.4,1.9,1.2,2.2,2.3
					C487,181.9,486.2,181,485.1,180.6L485.1,180.6z M487.8,155.2c0,9.3-4.4,13.3-10.7,13.3c-1.1,0-2.6,3.7-2.8,5.4l0.5,0.2l-0.5-0.2
					c0.2-1.7,1.7-5.4,2.8-5.4C483.5,168.5,487.8,164.5,487.8,155.2c1-0.2,1.8-0.7,2.4-1.5C489.6,154.5,488.8,155,487.8,155.2
					L487.8,155.2z M529.1,134.9c-1.6-0.7-3.3-1.1-5-1.2C525.8,133.7,527.5,134.1,529.1,134.9L529.1,134.9z M522,211.1
					c0-3.1,1.8-3.1,1.8-6.5C523.8,208,522,208,522,211.1z M502.3,201.7h-2.9c-1.6,0-2.2-1.3-3.3-2.1c1,0.8,1.6,2.1,3.3,2.1
					L502.3,201.7c0.6,0,0.8-0.4,1.3-0.4C503.2,201.3,503,201.7,502.3,201.7L502.3,201.7z M508.5,139.4c-3.4,2.4-7.6,2.5-10.4,5.4
					c-1.1,1.2,1.1,5.8-4.5,5c-0.9-0.1-1.4,0.6-2,1.6c0.6-1,1.1-1.8,2-1.6c5.6,0.8,3.4-3.8,4.5-5
					C500.9,141.9,505.1,141.8,508.5,139.4c0.2-0.1,0.3-0.3,0.5-0.4C508.9,139.2,508.7,139.3,508.5,139.4L508.5,139.4z M518.9,139.8
					c-2.9,0-5.8-2.5-7.6-2.5c-0.7,0-1.4,0.6-1.9,1.2c0.6-0.6,1.3-1.2,1.9-1.2C513.1,137.4,516,139.8,518.9,139.8
					c2.1,0,2.8-1.9,3.4-3.6C521.7,138,521,139.9,518.9,139.8L518.9,139.8z M521.6,225.9c0-0.9,0.2-1.8,0.6-2.6
					C521.8,224.2,521.6,225.1,521.6,225.9L521.6,225.9z M521.7,226.8c0.3,0.7,0.9,0.8,1.2,1.4c0.4,1.2,0.6,2.4,0.6,3.6
					c-0.1,0.6-0.3,1.2-0.7,1.7l0,0c0.4-0.5,0.6-1.1,0.7-1.7c0.1-1.2-0.1-2.5-0.6-3.6C522.6,227.6,522,227.5,521.7,226.8L521.7,226.8
					z M523.4,246.1L523.4,246.1c0.1-0.3,0.2-0.5,0.3-0.8C523.7,245.5,523.6,245.8,523.4,246.1L523.4,246.1z M522.7,234.2
					c0-0.3,0.1-0.5,0.1-0.8l0,0C522.8,233.7,522.7,233.9,522.7,234.2c0,0.9,0.8,1.3,1.2,1.9C523.5,235.5,522.7,235.1,522.7,234.2
					L522.7,234.2z M523.9,244.7c0.3-0.8,0.5-1.5,0.9-2.5C524.5,243.2,524.3,243.9,523.9,244.7L523.9,244.7z M525.2,241.7
					c0.1-0.1,0.2-0.3,0.2-0.4c-0.1-0.7-0.2-1.3-0.4-2c0.2,0.7,0.3,1.3,0.4,2C525.4,241.4,525.3,241.6,525.2,241.7L525.2,241.7z
					 M527.9,218.3c0.2-0.3,0.4-0.6,0.6-1c-0.4,0-0.6,0.2-1.1,0.2c-1,0-1.8-1-2-2.2c0.3,1.2,1,2.2,2.1,2.2c0.5,0,0.7-0.2,1.1-0.2l0,0
					C528.3,217.7,528.1,218,527.9,218.3L527.9,218.3z M528.9,217.3c0,0.3,0,0.5,0.2,0.7c-0.1-0.2-0.1-0.5-0.1-0.7L528.9,217.3z
					 M539.5,214.6c-0.8-0.1-1.5-0.4-2.2-0.8C537.9,214.2,538.7,214.5,539.5,214.6c0,0.6,0.1,1.2,0.4,1.7
					C539.6,215.7,539.5,215.2,539.5,214.6L539.5,214.6z M546.2,142.4c-4.5,0-5.7-4.1-10-4.1C540.5,138.2,541.7,142.4,546.2,142.4
					c2.8,0,6.4-2.5,10.1-2.7C552.7,139.9,549.1,142.3,546.2,142.4L546.2,142.4z M566,134.2c1.1-2.5,2.6-4.7,6.1-4.7l0,0
					C568.7,129.5,567.1,131.7,566,134.2L566,134.2z M585.6,143.2c-1.2-1.4-4.3-1.6-5.2-3.3c-1.7-3.2-2.1-7.1-4.3-9
					c2.3,2,2.7,5.9,4.3,9C581.3,141.6,584.4,141.8,585.6,143.2c0.3,0.4,0.6,0.8,0.8,1.3C586.2,144,585.9,143.6,585.6,143.2
					L585.6,143.2z M587.7,156.5c-0.1-0.1-0.2-0.2-0.2-0.3C587.5,156.3,587.6,156.4,587.7,156.5c0.6,0.5,1,1.3,0.9,2.1
					C588.7,157.7,588.4,156.9,587.7,156.5L587.7,156.5z M595,144.8c-1.3,0-2.4,0.6-3.3,1.5C592.6,145.4,593.7,144.9,595,144.8z"/>
				<path class="st0" d="M681.6,64.9c0.8,0,6.2-0.4,6.2-1.5c0-1.2-2.6-2.1-3.7-2.1S681,62.8,681,64
					C680.9,64.4,681.2,64.8,681.6,64.9z"/>
				<path class="st0" d="M662.1,70c0.4-0.1,0.7-0.4,0.7-0.8c0-0.5-0.4-0.7-0.5-1H660C660.4,69.2,661.1,70,662.1,70z"/>
				<path class="st0" d="M596.3,43.7c0.5,0,0.6-0.6,0.7-1.1l0,0l0,0v-0.1h-0.1l-0.6-0.7c-0.3,0.3-0.5,0.8-0.5,1.3
					C595.7,43.6,595.9,43.7,596.3,43.7z"/>
				<path class="st0" d="M550.8,47.9c-0.8-0.1-1.4,0.5-1.5,1.2c0,0.7,0.8,1,1.5,1c0.5,0,1-0.2,1.4-0.5c0.1-0.1,0.1-0.3,0.2-0.5
					C552.3,48.1,551.7,47.9,550.8,47.9z"/>
				<path class="st0" d="M552.3,49.5l-0.2,0.1c-0.1,0.2-0.3,0.3-0.4,0.5L552.3,49.5z"/>
				<path class="st0" d="M524.8,30.7c0,0.8,0.2,1.2,1,1.2l3.7-1.2c0,0,2.2-0.4,2.4-0.4c1.3,0.3,4.8-0.1,4.8-2.1
					c0-1.2-2.8-3.3-3.8-3.3c-0.5,0-0.8,0.7-1.3,0.8c0.6-0.7,0.2-0.7,0.2-1.8H531c-2.8,0-3.4,3.1-5,5
					C525.7,29.3,524.8,29.3,524.8,30.7z"/>
				<path class="st0" d="M508.1,20.7c0,0.7,1,2.1,1.4,2.1c0.8,0,3.1-0.2,3.2-1.7c-0.5-0.2-2.4-1.2-2.8-1.2S508.1,19.9,508.1,20.7z"
					/>
				<path class="st0" d="M517.5,20.5c-2.2,0.8-2.9,1.7-5.2,2.6c1,0.7,2.8,3,3.7,3c2.5,0,4.7,1.5,7.7,1.5c0.7,0,1.3-0.5,1.4-1.2
					c0-0.6-0.5-0.8-1-1c0.4-0.2,1.4-0.2,1.4-1.1s-0.1-1,0.5-1.6c-0.9-1.1-0.9-1.6-2.3-1.6h-1.4c-0.8,0-1.3-0.8-2.1-0.8
					c-0.5,0-0.8-0.3-1.5,0c0.5-0.3,1.3-1,1.3-1.5c0-0.6,0-1.1,0-1.7c0.3,0.1,0.1,0.3,0.8-0.1c-1.1-1-2.2-3.2-4.2-3.2
					c-3.3,0-4.3,3.9-7.3,4.9c1.5,1.1,3.2,1.7,5,1.8C515.1,20.3,516.9,20.5,517.5,20.5z"/>
				<path class="st0" d="M517.4,37.3c0.8,0,1.2-0.5,1.4-1.7h-1c-0.3,0.3-0.6,0.6-1,0.8C516.8,36.9,517.1,37.3,517.4,37.3z"/>
				<path class="st0" d="M509.1,14.7l-0.2-0.7h-2.6C506.8,15.2,508.1,14.9,509.1,14.7z"/>
				<path class="st0" d="M540.4,31.3c0.5,0,0.8-0.7,0.9-1.2c-0.6,0.3-0.8-0.1-2.3,0.3C539.2,30.9,539.8,31.3,540.4,31.3z"/>
				<path class="st0" d="M428,18.6c-0.1,0.1-0.3,0.2-0.5,0.3v0.3L428,18.6z"/>
				<path class="st0" d="M420.8,17c0.6,0,1,0.5,1.6,0.8c-0.3,0.3-0.7,0.5-1,0.8c0.4,0.1,0.8,0.2,1.2,0.2c-0.5,0.1-1,0.4-1.5,0.7
					c0.2,0.7,0.9,1,1.9,1H423c0.2,0.3,0.4,0.7,0.8,0.8c0.6,0.1,0.8-1.4,1.4-1.8c0.9-0.6,1.5,0.1,2.4-0.3v-0.5c0.2,0.1,0.5,0.1,0.7,0
					c0.8-0.8,1.7,0,1.9-1.5c-0.6-0.4-1.3-0.7-2.1-0.8c-1,0-1.5,1.1-2.5,1.1c-1.3,0-2.3-1.1-4-1.1c-1.5,0-4.7,0.3-5.3,1.6
					c0.5,0.2,1,0.3,1.5,0.3C418.7,18.1,420,17,420.8,17z"/>
				<path class="st0" d="M453.6,16.6c1.3-0.2,2.5-0.5,3.7-1.1l-1-2.6c-1,0-3.9,1.3-3.9,2.5C452.4,16.2,452.8,16.6,453.6,16.6z"/>
				<path class="st0" d="M449.8,18.6l-0.3-1c0.6,0,1.3,0.3,1.7-0.4c0-0.4,0-0.8,0-1.2c-0.7,0.1-1.5,0.1-2.2,0
					c0.3-0.1,0.6-0.3,0.7-0.7h-2.3c0,0.4,0,0.7,0,1.1c-0.9,0.3-1.5,1.2-1.4,2.2C446,19.1,449.4,18.9,449.8,18.6z"/>
				<path class="st0" d="M442.5,18.5c-0.7,0-3.5,0.5-3.5,1.7c0,0.3,0.3,0.6,0.7,0.6c0.6,0,0.9,0,1-0.8c0.4,0,1,0.8,1.4,0.8
					c1,0,0.9-1.2,2.3-1.2C444,18.8,443.3,18.5,442.5,18.5z"/>
				<path class="st0" d="M442.2,16.8c0.8,0,1.5,0.2,2.1-0.3c-1.2-0.7-2.6-1.1-3.9-1.2c0.7-0.8,2.1-1.3,3.2-2.2
					c0.1-0.4,0.3-0.8,0.6-1.1c0-0.3-0.1-1-0.2-1c-0.6,0-1.1,0.7-1.2,1.4c-2,0-2.1,1.7-4.1,1.7v1.1c0.7-0.5,0.4-0.2,1.2,0.2h-2.9
					c-0.4,0.3-0.5,0.5-0.9,0.9c1.1,0.6,2.3,1.1,3.5,1.6C440.3,17.8,441.4,16.8,442.2,16.8z"/>
				<path class="st0" d="M352,25.9c0.2,0,0.4,0.2,0.5,0.3c-0.3,1.3,0.8,2,1.9,2.7c-0.2,0-0.4,0.1-0.5,0.2c0.4,0.9,1.3,1.4,2.2,1.3
					c1.5,0,1.5-1.8,2.1-2.2h0.6c0.3,0.3,0.6,0.5,1,0.7h1.8c-1.1,0.9-2.3,1.6-3.6,2.1c-0.4,0.1-1.9,0.1-1.9,0.8c0,2,1.8,1.1,2.6,1.1
					c1,0,2.1,0.1,3.1,0.4c-0.8,0.2-1.6,0-2.3,0.7c-0.8-0.1-1.7-0.1-2.5-0.1c0,2.8,3.7,3.9,5.4,5.2c1-1.2,0.8-3.5,2-4.6
					c0.4-0.3,0.9-0.2,1-0.7c0.7-2.1,1.5-5.8,3.8-5.8c0.3,0.6,1,1.1,1.7,1.3c-0.3,0-0.7,0.1-1,0.2c0.3,0.7,0.9,2.2,1.4,2.3
					c-0.1,1.3-0.9,0.8-1,2.3c0.9,0.1,2.4,0,3.2,0.2c-0.2,0.5-0.2,1-0.1,1.5c1.7-0.7,2.5-2.1,4.4-2.8c-0.6-1.1-2.6-0.4-2.6-3h-2.2
					c0.2-0.4,0.2-0.8,0-1.2c-0.4,0.1-0.8,0.1-1.2,0c0.2,0,0.5,0,0.7-0.1c-0.7-1-4.4-3.5-5.5-3.5c-0.2,0-0.5-0.1-0.7-0.1
					c0.1-0.7,0.3-2-0.8-2c-0.5,0-0.7,0.7-1.2,1.1c0-0.6,0.2-1.1,0.2-1.6c0-0.8-1.9-1.6-2.8-1.6s-1.4,0-1.4,1.2
					c0,1.3,0.3,2.5,0.8,3.6c-1.7-0.8-1.3-3.6-3.1-3.6c-0.7,0.1-1.2,0.7-1.2,1.4c0,0.4,0.2,0.8,0.5,1.1c-0.5-0.6-1.2-0.6-1.9-1.2
					c0.2-0.4,0.5-0.8,0.8-1.2c-1.1-0.3-2.3-0.4-3.5-0.3c-0.7,0-2.1,1.6-2.4,2C350.7,24.5,351.5,25.9,352,25.9z"/>
				<path class="st0" d="M365.6,21.5c-0.1,1.9,1.3,0.9,2.4,0.9c0.1,0,3,0.3,3.3,0.3c-0.4,0.2-1.1,0.2-1.7,0.4c-0.5,0-0.9,0-1.4,0.1
					c0,0.6,0.3,1.1,0.9,1.3h3.9c0.4,1,1.4,1.6,2.4,1.5c2,0,5.5-2.9,7.1-4.2c-0.6-1.3-1.8-2.1-3.1-2.2h-2.2c-1,0-1.5,0.8-2.1,0.8
					c-0.1-0.7-0.1-1.4,0-2.1h-0.8c-0.4,0.3-0.9,1.9-1.7,1.9c-1-0.4-2-0.9-2.8-1.7h-1.9l0.3,0.8H367v0.4c-0.5,0.2-1,0.1-1.4-0.3h-1
					C364.7,20.2,365.1,21,365.6,21.5z"/>
				<path class="st0" d="M352.6,30.5c-0.5-1.8-1.4-2.1-2.3-3.5C349.3,27.8,351.3,30.1,352.6,30.5z"/>
				<path class="st0" d="M350.4,26.9c0,0-0.1,0.1-0.1,0.1l0.1,0.1V26.9z"/>
				<path class="st0" d="M350.2,26.9l0.1,0.1l0,0L350.2,26.9z"/>
				<path class="st0" d="M310,134.6c0,1,0.8,1.8,1.7,1.9c0.5,0,0.9-0.1,1.3-0.3c0.6-0.4,1.4-1.8,2.5-1.8c0.7,0,1.4,0.1,1.8-0.4
					c0.5-0.7,0.1-1.7,0.1-2.3v-2.8c0-0.7,1.3-0.6,1.3-1.3c0-1.4-0.8-3.4-2.4-3.4h-1.2c-0.7,0-2.1,1-2.1,1.6c0,0.4,0.1,0.6,0.4,1.1
					c-0.6,0.5-1.3,0.8-2,0.9c-0.2,0-0.8-0.2-0.8,0.9c0,0.8,0.6,1.3,1.3,1.7C311.8,132.4,310,132.6,310,134.6z"/>
				<path class="st0" d="M316.3,115.6c0.8,0,1.3-1,1.3-1.9c-0.5,0-1.7,0.4-1.7,0.9C315.9,114.9,316.1,115.6,316.3,115.6z"/>
				<path class="st0" d="M318.5,118v0.7c0,0.1-0.5,0.7-0.5,1.1s0.6,0.6,1,0.7v0.7c-0.2,0.1-0.3,0.4-0.3,0.6v1.3h0.6
					c-0.2-0.4-0.2-0.9,0-1.3c0.3,0.3,0.8,0.4,1.2,0.4c-0.2,0.7,0,0.8,0,1.6s-0.7,1.1-0.7,1.7s0.5,0.7,1.1,0.7s0.9-0.4,1.6-0.4
					c0.2,0,0.4,0.1,0.6,0.1c-0.1,0.3-0.5,0.5-0.5,1.2c0,0.8,1,1,1.7,0.9v1.3c-0.4,0.8-1.9,1.6-3.1,1.6c0,0.9,0.6,1.3,0.6,2.4
					c0,1.2-1.9,1.3-1.9,2.6c0,0.2,0.2,0.4,0.3,0.4c0.4,0,0.3-0.4,0.7-0.4c0.8,0,1,1,1.9,1c0.5,0,1-0.4,1.3-0.8
					c0,0.2,0.1,0.4,0.1,0.6c0,1.1-1.4,0.8-2.4,1.1c-0.9,1-1.7,2-2.4,3.1v0.5h0.5c0.3-0.3,0.5-0.7,1-0.7h1c0-0.7,0.4-1.4,1.1-1.4
					c0.5,0,0.8,0.5,1.3,0.5c1,0,2.9-0.7,3.6-0.7h2.8c0.8,0,1.3-0.5,1.9-1.3V137c-0.5,0-1-0.1-1.4-0.3c0.6-1.1,2.2-1.8,2.2-3.3
					c0-0.8-0.6-1.5-1.5-1.6c-0.6,0-0.4-0.1-0.9,0.3l0.4-0.3c-0.3,0.2-0.4,0.4-0.8,0.6v-0.6c0.2-0.1,0.4-0.3,0.3-0.6
					c0-0.6-0.8-1.1-0.8-1.7c0-2-1.8-2.6-2.9-3.9c-0.8-1-0.6-3-1.9-3.5c-0.6-0.2-0.9,0.2-1.6-0.1c0.1-0.3,0.3-0.6,0.6-0.7
					c0-1.8,2.1-2.7,1.9-5.1H322c-0.1-0.2-0.2-0.4-0.2-0.7c0.2-1.2,1.7-1,1.7-2.1c0-0.2-0.4-0.8-0.7-0.8h-2c-0.5,0.1-1,0.5-1.1,1.1
					c0,0.4-0.3,0.7-0.3,1.4c-0.5,0-1,0.4-1,0.9c0,0,0,0.1,0,0.1c0,0.2,0.2,0.4,0.3,0.5c0,0.2-0.1,0.5-0.3,0.5
					c-0.3-0.1-0.5-0.4-0.5-0.7h-1.1C316.9,117.5,317.5,117.7,318.5,118z"/>
				<path class="st0" d="M320.8,127.3c-0.4,0.2-0.5,0.6-0.5,1h0.8c0-0.4,0.1-0.8,0.1-1H320.8z"/>
				<path class="st0" d="M302.9,89.4l0.1-0.2c0-2.3-2.6-1.7-2.6-4.1c0-0.3,0.2-0.6,0.4-0.8c-0.6,0-1,0.4-1.7,0.4s-1.3-0.1-1.3-1.1
					c-0.3,0.3-0.3,0.2-0.8,0c-0.2,0.4-0.3,0.8-0.3,1.2c-0.6-0.8-1.5,0.3-2.4,0.3c-0.6,0-1.2-0.3-2.2-0.3c0,0.3,0,0.6,0,0.8
					c-0.3-0.3-0.6-0.5-1-0.6l-1.7,0.5c-0.4,0-0.6-0.4-0.9-0.8c-0.2,0.3-0.1,0.5,0,1.1c-0.3,0.1-0.8,0.5-1.2,0.5s-1.1-1.1-1-1.7
					s-0.4-0.7-0.4-1.2h-0.5c-0.5,0-0.7,0.9-1.2,0.9v0.7c-0.4-0.3-0.9-0.4-1.4-0.2c0.1,0.9,2.7,1.8,3.5,1.8c0,0.3,0.1,0.5,0.3,0.7
					c-1.2,0.4-2.4,0.7-3.6,0.7c0.7,0.8,1.9,0,3,0.3c-0.2,0.8-0.3,1.7-0.4,2.5c-0.2,0-0.4,0.2-0.6,0.4c1.5,0,2.1,1.2,3,1.5
					c1.9,0.9,4.1,1.4,6.2,1.5c2.4,0,3.7-1.4,5.3-2.1C301.1,91.7,302.2,90.7,302.9,89.4z"/>
				<path class="st0" d="M183.6,222.9c-0.5-0.2-0.8-1.4-1.6-1.7l-1-0.1c0-0.2,0-0.4,0-0.6c-1.7-0.1-3.2-0.8-4.3-2.1
					c-0.1-0.2-0.7-1-1.2-1c-2.3,0-3.7-2.1-6.8-2.1s-4.6,1.4-5.7,3.6h0.6c1-1.1,2.4-1.8,3.9-2c0.3,0,0.7-0.1,1,0.3
					c-0.2,0.2-0.2,0.6,0,0.8c0,0,0.1,0.1,0.1,0.1h2c1,0,1.4,1.2,2.4,1.2c0.6,0,0.9-0.3,1.4,0.1c0.3,0.2,0.2,0.7,0.8,0.7
					c0.2,1.3,1.3,1.2,2.4,1.8c0,0.4-0.3,0.7-0.7,0.7v0.5c1.3,0,2.4,0.6,4,0.6C181.9,223.9,183.2,223.9,183.6,222.9z"/>
				<path class="st0" d="M166.6,218.6v0.6c-0.4,0-0.6,0.3-0.6,0.7c0,0,0,0,0,0c0,0.2,0.9,0,1,0c0.1-0.4,0.1-0.8,0-1.2l-0.2-0.1
					L166.6,218.6z"/>
				<path class="st0" d="M176.3,227.4c0,0.6,0.5,1.2,1.1,1.2c0.8-0.1,1.5-0.2,2.3-0.5c0-0.3-0.3-0.6-0.6-0.8l0.1,0.2
					c-0.7-0.4-1.4-0.6-2.2-0.7C176.7,226.9,176.3,227.1,176.3,227.4z"/>
				<path class="st0" d="M198,227.3c0,0.8,0.9,0.9,1.7,0.9c0.4,0,0.9,0,1.1-0.5c-0.2-0.5-1.9-0.9-2.1-0.9S198,226.8,198,227.3z"/>
				<path class="st0" d="M183.8,226.9c0,0.5,0.4,1.3,0.8,1.3c0-0.2,0.1-0.4,0.1-0.7c0.4,0.3,0.4,0,0.8,0c0.8,0,2.5-0.3,3.1,0.3
					c0.4,0.3,0.2,1.1,0.8,1.1s0.7-1.5,1.6-1.5c0.4,0,0.3,0.4,0.7,0.4s0.8-0.3,1.3-0.7h2.6c-0.5-0.8-1.2-1.2-1.9-1.8l0.3,0.3
					c-1.2-0.7-1.7-2.1-3.9-2.1c-0.8,0-1.2,0.3-2.1,0.3c-0.6,0-1-0.6-1.7-0.6c-0.3,0.1-0.5,0.3-0.6,0.6c0,0.5,0.4,0.9,0.9,0.9
					c-0.1,0.6,0.1,1.2,0.5,1.7c-0.8,0.5-1.5,0.1-3.1,0.1C184.1,226.7,183.9,226.9,183.8,226.9z"/>
				<path class="st0" d="M208.8,247.6c0,0.3,0.4,0,0.6,0c0.4,0,0.7-0.7,0.8-1.1v-0.6h-0.6C209.2,245.9,208.8,246.7,208.8,247.6z"/>
				<path class="st0" d="M231.6,270.9c-0.8,0-1.4,0.8-1.4,2.1c0,0.8,1.8,2.2,2.8,2.2c0.8,0,1.9-1.9,1.9-2.6c0-0.2-0.2-0.8-0.5-0.8
					s-1,0.9-1.1-0.2c-0.6-0.1-1.1-0.3-1.4-0.8C231.9,271,231.7,270.9,231.6,270.9z"/>
				<path class="st0" d="M185,382.3h0.6v-2.5c0.2-0.3,0.3-0.6,0.3-0.9c0-0.6-0.2-1.3-0.8-1.3c-0.4,0-0.8,2.5-0.8,2.5v1.1
					C184.2,381.5,184.6,382.2,185,382.3z"/>
				<polygon class="st0" points="87.5,144.6 87.5,144.6 87.5,144.6 				"/>
				<path class="st0" d="M260.2,283.3c-1-0.3-1.6,0.2-2.6-0.2c-1.6-1-2.9-2.4-3.9-4c-1-0.6-2.1-1-3.3-1.3l-2.6,0.4
					c-1.4,0-1.7-1.3-3.1-1.3c-0.6,0-0.9,0.6-1.5,0.9h-0.5c0.1-0.7,0-1.4-0.1-2.1c-0.1-0.7-0.8-0.5-1.3-0.9c-0.9-0.7-3.4-2.2-4.6-2.2
					s-1.9,1.7-2.6,3.1c-0.2,0.4-0.5,1-0.8,1s-0.3-0.7-0.3-0.9h-1.7c-0.1-0.8-0.5-1.5-1.2-1.9c-0.4-0.2-1-0.1-1-0.9
					c0-2.5,2-3.3,3.1-5c0-0.8-0.9-0.8-1.2-1.7c-0.6-1.5-1-3-1.3-4.5c-1.2-0.3-2.6-3.1-3.7-3.1h-0.4v-0.2c-0.8-0.2-1.6-0.5-2.3-0.9
					h-1.8c-1.9-0.4-4.8-0.2-5.3-2.5c-0.4,0-0.8-0.2-1-0.5c-0.8-2.1-1.4-1.8-2.8-3.4h-1.9c-0.3-1.1-0.1-2.3-1-2.6s-2.5-0.7-3-1.8V246
					c0.3,0.1,0.7,0.1,1-0.2c-0.6-0.1-1.3-0.2-1.9-0.3c-0.2,0.2-1.7,0.2-1.7,0.4c-0.4,1-1.1,1-2.1,1.2c-0.6,0-1.4-0.2-1.4-0.9h-3.7
					c-0.6-0.3-0.9-0.9-0.8-1.5c-1-0.3-2.6-0.7-2.9-2.1h-1.2c0,1,1,0.6,1.3,1.6h-1.7c-0.6,0.5-1.7,0.3-1.7,1.6c0,1,0.8,1.6,0.8,2.6
					c0,0.3-0.4,1.3-0.7,1.3c-0.8,0-1.1-1.6-1.1-2.5c0.1-1.1,0.4-2.3,0.6-3.4c0.3,0,0.7-0.3,0.7-1c0-0.1-0.3-1-0.6-1
					c-0.9,0-1.1,1.2-2,1.6c-1.7,0.7-2.8,1-4.5,1.7c-1,0.2-1.7,0.9-1.9,1.9c-0.1,0.7-0.2,1.7-0.6,2.1s-1.1,0.6-1.1,1.4
					c-0.2,0.1-0.4,0.2-0.4,0.4v0.5c-0.5,0.2-0.3,0.2-0.8,0c-0.1,0.2-0.3,0.4-0.5,0.6c0.2-0.2,0.3-0.4,0.5-0.6c-1.1-1-2-2.6-3.9-2.6
					c-1.7,0-2.6,1.6-4.4,1.6c-1.2,0-1.2-1.6-1.9-2c-1.1-0.7-2.6-1.4-2.6-3.2v-5c0.4-1.2,0.5-2.4,0.5-3.6v-1.2
					c-1.2-0.3-1.6-1.7-3.3-1.7c-2.4,0-4.3,0.5-6.6,0.5c-0.5,0-0.8-0.4-0.8-0.9c0,0,0,0,0,0v-0.4c0.4-0.5,1.3-0.8,1.3-1.6v-4h0.6v0.6
					c0.5-0.8,0.8-1.8,0.8-2.7c0-1.6,1.2-3.1,1.2-4.2v-0.8c-0.5,0-1.1-0.1-1.6-0.2c-0.4-0.2-0.9-0.3-1.4-0.3c-1.9,0-4.1,0.8-4.1,3.2
					c0,1.3-1.2,2.3-1.4,3.3c-0.1,0.3-0.4,1.3-1,1.3c-0.3,0-0.6-0.5-1.3-0.5c-1.4,0-2.5,1.2-3.8,1.2c-0.6,0-0.6-0.8-1.2-1
					c-1.8-0.7-1.8-2.1-3-3.6c-0.6-0.7-1.2-1.6-1.7-2.4c-0.3-0.7,0.1-1.2-0.2-2c-0.1-0.3-0.7-1-0.6-1.7v-4.6c0.2-1.2,0.7-1.8,0.7-3.3
					c0-0.5-0.1-0.9-0.3-1.3v-0.2h0.2c0-0.3-0.4-0.6-0.4-0.8c0-2.5,0.9-4.7,2.4-5.4c0.7-0.3,1.3,0.3,1.9-0.4c0.8-1,1.8-3.1,3.8-3.1
					c0.8,0,1.2,0.8,1.9,0.8c0.4,0,0.6-0.7,1-0.7c1.4,0,3,2.8,5,1.7c-0.8-0.7-0.2-1.4-0.1-2.6c-0.4,0.3-0.3,0.3-1,0
					c1.2-0.5,2.6-0.3,3.7-0.7c0,0.3,0.3,0.7,0.5,0.7c0.6,0,0.8-0.7,1.7-0.7c1.7,0,2.4,1.9,3.7,1.9c0.6,0,0.9-1.1,1.5-1.1
					c3,0,2.2,5.1,3.3,7.7c0.6,1.3,1.2,1.7,2.1,3.1c0.4,0.7,0.3,2.1,1.4,2.1s1.5-1.6,1.5-3.3c0-1.5-0.6-2.3-0.8-3.3v-0.4
					c0-2.7-1.9-3.5-1.9-6.2c0-6,4.1-7.6,7.4-9.8l-0.2-0.2c0.4-0.5,0.4-0.8,1.2-1.1c0.6-0.2,0.9-0.8,1.7-1c0.4-0.1,0.6-0.6,0.8-0.9
					l-0.8-0.6V183c0.6,0,0.9,0.1,1.1-0.8c-0.4,0-0.8-0.3-1-0.7c0.5,0,0.9-0.5,0.9-1v-0.8h-0.5c-0.4-0.5,0-0.4,0-1.2
					s-0.4-2.3-0.4-2.9c0-0.4,0-0.7,0.1-1.1c0.1,0.8,0.8,2.2,0.8,2.7v0.9c0,0.2,0.1,0.5,0.3,0.5c0.7-1,1.2-2.2,1.6-3.4
					c0-0.7-0.5-0.9-0.6-1.6l0.4-0.4c0.1,0.2,0.3,0.7,0.5,0.7c0.5,0,1.8-2.9,1.9-3.6c0,0-0.6-0.6-0.6-1c0-0.3,0.2-0.5,0.4-0.6
					c0.2,0,0.4,0.1,0.6,0.1c0.9,0.1,1.8-0.1,2.6-0.4c-0.5-0.4-1.1,0-1.7,0H185c1.4-1.1,3.7-0.6,5.1-1.8c0.3,0.3,1.4,0,2.3-0.3v-0.6
					c0,0-0.6,0.6-0.8,0.6c-0.4,0-0.7-1.1-0.7-1.5c-0.2-0.1-0.3-0.5-0.3-0.8c0-3.1,2.4-4,3.5-5.4c0.7-0.4,0.8,0,1.6,0
					c1,0,1.8-0.5,2.2-1.4c-0.1-0.2-0.2-0.4-0.3-0.6v-0.2v-0.3c0.1,0.1,0.5,0,0.7,0c0.4,0,2.1,0.3,2.8-0.2s0.6-1.6,1.7-1.6
					c0,1.1-0.1,1.2,1,1.2c-1.6,0.2-4.1,1.5-4.1,3.3c0,0.8,1,2.1,1.4,2.1s1.8-2.2,3.2-2.7c0.4-0.1,5.1-2.3,5.1-2.9c0-0.9-1.8-1-2.2-1
					c-2,0-5.2-2.3-5.2-4.4c0-0.5,0.6-1.2,0.7-2c-0.4,0-1.1-0.2-1.7-0.2c0.4-0.7,2.9-1.1,2.9-2.7s-2.1-1.2-3.6-1.2
					c-3,0-4.4,2.6-6.5,2.9c0.9-2.2,2.4-1.5,3.9-3.3c1-1.1,0.3-1.9,1.7-2.5c2.6-1,4.1-0.4,6.8-0.4c3.5,0,5.4,1.4,7.4-1.8
					c1-1.6,6.6-1.9,6.6-4.6c0-1.4-0.4-2.8-1.2-4c-0.6,0,0.2-0.8-0.6-1.2v-1c-1.6,1.1-4.9,2.5-6.6,2.5c-0.3,0-0.5-0.1-0.7-0.3
					c1.4-0.9,5.2-1.5,5.6-3.1c0.1-0.4-0.5-0.5-0.6-0.9c-1.7,0.2-5.2-0.7-5.2-3.5v-0.3c-1.5,0-2.4-1.2-3.3-2c0.6-0.3,1-0.8,1-1.5
					c0-0.8-0.6-1.5-0.5-2.3c-0.6-0.3-2.9-2-2.3-3.5c0.7-1.9-2.2-2.3-2.4-4.6c-0.2,0-0.9-0.7-1.2-1.1c-0.5,0.4-1.6,1.2-1.6,2.3
					s-2.2,4.3-3.9,4.3c-1.2,0-1.4-1.8-2.3-1.8c-1.2,0-1.7-4.1-1.9-5.8c-0.3-2.3-4-0.7-4-3.7c-1.9-0.3-2.4-3.1-4.3-3.1
					c-0.9,0-0.9,0.8-1.9,0.8c-2,0-3.3-1.4-5.2-1.4c-1.1-0.1-2,0.7-2.1,1.8c0,0.1,0,0.2,0,0.3c0,0.8,2.4,2,0.2,3.7
					c-0.9,0.7,1.3,2.5,1.4,3.7c0.2,2.4-1.7,3.1-2.6,3.5c1.6,3.2,4,4.3,4,9.8c0,1.5-4.1,5.2-5.5,5.6c2.4,1.5,1.4,6,2.4,7.4
					c-0.3,0.5-1.2,1.1-1.3,2c-0.8,0-1.4,1.6-2.1,1c-1.7-1.6-4.1-4.2-4.1-6.6c0-2.6,0.4-4.7-1.5-6.2h-4.5c-2.6-2.1-5.4-3.8-8.5-5
					c-0.6-0.3-2.1-1.7-3.1-1.7s-1.5,1.2-2.6,1.2c0-2-1.1-6.6-2.6-6.6c-0.7,0-1,0.7-1.7,0.8c0.3-1,0-1.3,0-3.7
					c-0.2-2.6,0.7-5.2,2.4-7.2c0.6-0.7,1.7-3.9,2.3-4.1c1.2-0.5,3.3,0.3,3.3-1.7c0-1.3-2.6-1.3-3.6-2c0.6,0.3-1.5-1.4,4.1,0.6
					c1.4,0.5,0.6-1.8,1.4-1.8h1.5c1.7,0,2.6-2.1,3.7-3.1v-1.2c-2.4-0.7-4.7-0.2-5.7-2.7h1.3c0.9,0.7,1.8,1.9,3.1,1.9
					c1.1,0,3.1-1.7,3.1-2.7c0-0.3-1-1.8-0.5-1.8c1.5,0,2.1,1.7,3,1.7c0.6,0,1-0.7,2.3-0.7c-0.4-0.5,0-2,0.8-0.4c0.4,0.8,4-2.8,4-3.9
					c0-0.8-1.6-1.6-1.6-2.1s-0.9-1.9,1.2-3.2c0.3-0.7,0-0.7,0-2.1c-2.2,0-1.7-2.1-4.5-2.1c-0.6-0.1-1.1-0.6-1.7-0.6
					c-0.9,0-1.7,0.7-1.7,1.7c0,1.1,1,1.5,1,2.2s-1.6,0.8-1.9,1.7c-0.6,1.4-0.4,2.5-1.4,4.1c-1.6,2.4-3.6-1.5-3.6-2.4
					c0-1.1,1.2-0.8,1.2-2.1c0-0.6-2-2.9-2.6-2.9c-2,0-0.6,3.6-2.8,3.6c0-1.4-0.1-2.4-1.6-3.2c0.2-0.4,0.4-0.7,0.7-1
					c-1.1-0.8-2.6,0-3.5-1.3c0.5-0.3,1.7-0.9,1.7-2c0-1.6-2-1.5-2.1-2.7c0.1-2.2-1.6-4.2-3.9-4.3c0,0-0.1,0-0.1,0
					c-1.3,0-0.8,1-0.7,1.8c-0.8,0.3-1.9,0-1.9,1.2c0,0.8,0.6,1.2,0.6,2.1s-0.9,0.8-0.9,1.9c0,2.7,4.7,1.1,4.7,3.9
					c-0.1,0.8-0.3,1.7-0.6,2.5c0.5-0.3,0.9-0.5,1.5-0.8c0.9,3.4-3.7,1.7-3.7,5.8c-2.3,0.7-0.5-2-1-2.9c-0.2-0.4-2.1-1-3.1-1
					c-1.2,0-1.7,0.9-1.7,2.7c-1.2-0.2-1.9,0-5.9,0c-3.7,0-8.1-1.6-9-5c-1.2,0.4-5.4,0.5-5.4,2.3c-0.1,0.4,0.3,0.8,0.7,0.9
					c0.1,0,0.1,0,0.2,0c1.3-0.1,2.6-0.5,3.8-1.3c0.3,2.7-3.3,0.5-3.3,3.3c0,0.6,0.8,2.5,0.4,2.5c-1.4,0-1.7-2.1-2.8-2.7l-1-0.6h-4.4
					c-1.4,0-2.3,0.7-3.8,0.8c-2.7,0.2-2.7-1-2.7-1.3c0-0.7,2.1-0.4,2.5-0.9c-1.9-3.2-1.6-2.7-5.5-2.3C95,75.1,92.9,71,88.6,71
					c-1.3,0-1.9,1.1-3,1.1c-0.8,0-1.5-1.6-1.7-2.2c-1.3,0.3-1.3,2.2-2.7,2.2s-3.2-3.7-3.6-3.7c-1.4,0-0.9,2.4-2.3,2.4
					c-0.6-0.1-1.1-0.5-1.3-1.2c-1.7,0.4-3.3,0.9-4.8,1.7c-0.8,0.2-2.6,1.8-3.2,1.1c-1.8-2-1.5,0.6-2.2,0.6c-4.5,0.2-1.4,2.2-2,2.2
					c-2.8,0-5.4-0.9-7.7-2.5c-0.1-0.1-1-0.8-1-1.1c-0.5,0.3-0.1,0.2-0.8,0v35.9l0,0V71.5c-1.7-0.7-2.3-1.7-4.4-1.7
					c-1.2,0-2,0.6-3.3,0.6c-2.1,0-6.4-0.4-7.8-2.1h-5.3c-0.7-0.5-1.4-1-2.1-1.7h-3.5c-0.6-0.3-0.8-0.5-1.6-0.8
					c-0.3,0.7-1,1.1-1.7,1.1c0.2-0.4,0.4-0.7,0.6-1.1c-0.9-0.3-1.2-1.3-2.1-1.3c-1.2,0-1.9,1.8-3,2.3s-1.6-0.2-2.6,0.2
					C12.1,68.5,9,71.7,6.9,75H3.1c-0.1,0.3-1,2.3-1,2.3c0,0.6,2.8,1.2,3.7,1.8s1.5,3,2.1,3.3c2,1.2,3.5,1.3,4.1,4
					c-0.8,0.3-1,0-1.9,0c-1.4,0-2.6,0.8-2.6-1.9H6.2c-1.7,1.3-4.5,2.4-6.2,3.6c0.3,0.9,1.2,1.4,2.1,1.3c-0.1,0.3-0.2,0.5-0.2,0.8
					c0,0.8,0.8,1.1,0.9,2.3h3.7c1-0.3,1.5,0.6,2.9,0.6s1.9-1.4,3-1.4c0.3,0,0.7,0,1,0V93c-0.5-0.3-0.3-0.4-1,0.1
					c0.1,0.2,1.2,1.4,1.2,2c0,1.1-4.7,3.3-5.3,3.3c-1.5,0-5.2,2.1-5.2,4.6c0,1.3,2.2,1.7,2.8,3.6c-0.3,0-0.7,0.3-1,0.3
					c0.5,0.7,3.7,3.8,4.6,3.8c0.3,0,0.8-1.4,1.4-1.4s0.6,1,0.6,1.2v1.7c0,0.7,0.3,2.1,0.7,2.1s0.6-0.7,1-0.7h0.8
					c0-0.4,0-0.8,0.1-1.3c0.9,1,2.1,1.8,3.3,2.3c0.1-0.5,0.3-1,0.5-1.5c0.7,0.3,1,0.7,1.9,0.7c1,0,1.5-0.6,2.5-1.1h1
					c-1.7,1.2-1.7,3.7-3.3,5s-4.4,2.7-5.5,4.6c-0.8,1.3-2.1,0.4-3.3,1.3c-0.8,0.5-1.4,2.2-2.2,2.7c-1.2,0.8-2.5,0.2-3.3,1.7
					c2.9,1,4.3-2.5,6.8-3c2-0.3,4.5-1.3,5.5-2.5s3.5-2.2,4.5-3.7c0.5-0.8,0.8-1.7,1.7-2.1c1.6-0.8,3.1-1.4,3.1-3.3v-1.3
					c0-2.7,4.6-7.3,6.2-7.3h0.8c0,0.3-0.1,0.6-0.1,0.8c-1.8,0.5-3,2.1-3,4c0,0.4-0.3,0.4,0.1,1c-0.1,0.1-0.5,0.2-0.5,0.7
					c0,0.3,0.4,0.6,0.7,0.6c1.6,0,6-3,6.9-4.6c-0.3-0.3-0.6-0.7-0.7-1.2c0.6-0.4,2-0.8,2.8-1.2c1.2,2.9,4.2,3.2,6.5,4.1h3.8
					c2.1,1.4,4.4,1.3,6.2,2.9c0.8,0.7,1.8,3.1,3.3,3.1c0.5,0,0.8-0.8,1-1.5c0.4,0.7,1.2,1.2,2.1,1.2c0.3-0.6,0.9,0.2,1.2,0.6
					c-0.4,0.5-0.7,1.1-0.7,1.7c0.1,0.6,0.5,1,1,1.2c0.9,0,0.6-1,1.9-1.1v1.1c0,0.7-1,0.7-1,1.4c-0.1,0.6,0.4,1.2,1.1,1.3
					c0.1,0,0.1,0,0.2,0c1.2,0,2.1,0,2.1,1.2v1.3c0,0.9,1.7,2.5,2.9,2.5c0.3,0,0.3-0.1,0.7-0.1c0-0.6,1-0.8,1-1.7
					c0-1.6-1-2.1-1.6-2.7c0.7,0.6,1.6,1.1,1.6,2.7c0,0.9-1,1.1-1,1.7c0,0.4,0.4,0.7,0.4,1.2c0,1.1-0.3,3.3,0.7,3.6
					c0.6,0.2,1.1,0.2,1.5,0.7c0.6,0.8-0.1,1.8,0.7,2.5c0.7,0.5,1.3,1,1.9,1.6c0.5,1.9,0.6,4.1,3,4.1c0.3,1.7,2.8,0.6,3.3,2.7
					c0.2,0.8,1.9,1,2.6,1.8c0.2,0.2,0.5,0.4,0.8,0.5l0,0c0.3,0.8,0.9,1.1,0.9,1.9c-0.1,0.8-0.5,1.6-1,2.2c-0.3-0.8-1.1-1.4-2-1.4
					c-0.3,0-1,0.1-1,0.6c0,1.8,1.7,2.6,1.7,4.4c0,2.6-1.8,7.3-1.2,9.3s-0.1,5.1,0.7,7c-0.4,0.3-1,0.9-0.7,1.6
					c1.2,2.5,2.7,6.1,4.2,6.4c-0.3,3.4,1.6,4.4,2.6,7.3c0.2,0.7,0,1.6,0.6,1.8c2.5,1.1,6,2.9,7.1,5.4h-0.1v0.6
					c0.5,1.9,1.1,2.4,1.7,3.9c0.4,1,0.4,3.3,1.2,3.9c1.4,1.3,2.5,2.8,3.4,4.4c0.6,1-1,0.7-1.4,0.7c0.7,1.2,2.2,1,3.2,2.1
					c0.7,0.8,1.3,1.7,2,2.6v2.2c0.2,0.4,0.3,0.4,0.7,0.8c0.8,0.6,1.4,2.5,2.7,2.5c0.3,0.7,0.7,1.2,1.1,1.8c0.2,0,0.5-0.8,0.5-1.3
					c0-0.7-0.8-2.1-1.4-1.4c-1.2-1-1.7-3.1-2.2-5.1c-0.5-1.7-1.9-2.6-2.3-4.6c-0.2-1.2-0.7-2.4-1.4-3.4c-0.7-0.8-1.6-0.8-2.1-2.1
					c-0.6-1.4-1.2-2.5-1.2-4.2c-0.1-0.4,0-0.7,0.1-1.1c0.9,1.1,2,1,3.2,1.7c0.6,0.3,0.4,2.1,1,2.9s0.4,2.1,1,2.9
					c0.8,0.9,1.4,1.8,2.3,2.9c0.2-0.2,0.1-0.2,0.8,0c0,2,2.2,2.2,2.8,3.6c0.3,0.9-0.1,1.7,0.4,2.4c0.7,0.8,1.8,1.2,2.5,2
					c1.5,1.8,3.9,4.2,4.7,7.2c0.1,0.6,0.7,0.8,0.7,1.9c0,0.9-0.7,1.4-0.7,2.3c0,0.7,0.4,1.7,1,1.7c0.2,1.1,2.3,1.6,3.2,2.6
					c0.2,0.2,0.5,0.4,0.8,0.6c0.9,0.5,1.4,0.3,2.3,0.8s1.2,1.6,2.1,1.9c0.8,0.3,1.3-0.3,2,0.2s3,2.4,3.9,2.4
					c0.5-0.1,1.1-0.1,1.6,0.2c0.3,0.2,0.8,0.8,1.4,0.8c1.2,0,1.4-1.7,2.6-1.7c0.6,0,1.1,0.3,1.5,0.7h0.4c1.9,1.1,2.1,3,4.3,4.2
					c1.4,0.8,2.4,0.4,3.7,1.1c0.9,0.5,1.6,1.4,2.9,1.4c0.5,0,0.8-0.4,1.3-0.4h0.4c0.4,2,1.6,2.7,2.7,4.1c0.4,0.4,0.8,0.9,0.9,1.4
					c0.4,1.2-0.4,2.4,0.7,3.2h0.7c-0.1-0.2-0.1-0.5,0-0.8c1,0.6,1.8,1.4,2.6,2.2c0.3,0.7,0.3,1.5,1.3,1.8c0,0.2,0.2,0.5,0.3,0.5
					c0.5,0,1.6-0.5,2.1,0.1s1.3,2.2,2.4,2.2c0.6,0,0.9-0.4,1-1.3c-0.1-0.1-0.6-0.4-0.6-0.7c0-0.5,1.9-2.1,2.4-2.1
					c0.8,0,1,1.1,1.7,1.5c-0.1,0.3-0.4,0.5-0.4,0.8s0.6,0.5,0.8,0.6s0.1,0,0.2-0.1c-0.1,0.2-0.1,0.3-0.1,0.5c0,1.5,1.3,1.2,1.3,3
					c0,0.8-0.4,1.1-0.4,2.1c0,0.7,0.4,1.2,0.4,1.8v0.4l-0.3,0.7c0.1,0.4,0.3,0.7,0.7,0.8c-0.4,2.2-2.2,1.7-3,3.5
					c-0.6,1.3-1,3.6-2.9,3.6c0.3,3.6-1.4,3.3-1.4,5.2c0,1.1,0.1,2.8,1.1,2.8c0.5,0,0.4-0.4,1,0.1c-0.3,1.3-1.5,1.7-2.1,2.9
					c-0.5,0.7-0.7,1.6-0.8,2.5c0.1,1.5,0.7,2.9,1.7,4.1c0.3,0.3,0.8,0.2,1,0.7c0.2,0.8,0.4,1.6,0.8,2.3c0.2,0.2,0.7,0.1,0.9,0.6
					c0.6,1.5,1.1,3,1.5,4.5c0.5,1.8,1.9,3.3,2.4,5.3c0.3,1.2,1.3,1.8,1.3,3.1c0,1-0.3,1.9,0.3,2.6c1,1.5,2.5,2.7,4.1,3.4
					c0.9,0.3,1.7,0.9,2.2,1.7c0.8,0.9,1.5,0.7,2.6,1.3c1.5,0.9,2.5,2.3,3,4c0.2,0.9,0.6,5.8,0.6,6.6c0,1.3-0.6,3.6-0.6,4.7v3.6
					c-0.1,0.8-0.5,2.3-0.5,2.9v0.8c0,2.8-1.6,4.9-1.6,8c0,1.3-0.8,2.5-0.4,4l0.1,6.2c-0.4,2-0.4,3.4-0.9,5.3
					c-0.1,0.3-0.4,0.3-0.6,0.6c-0.4,0.6-0.5,1.8-0.8,2.3c-0.9,1.5-1.5,3.2-1.6,5c0,0.6,0.1,2.9,0.4,2.9c0.2,0.2,0.4,0.6,0.4,0.9
					c0,0.3-0.2,0.5-0.7,0.5c-0.2,1.5-0.7,2.2-0.7,3.7c0,0.9,0.4,2.8,1,2.8s0.6-0.7,1-0.9c0.2,0,0.4,0,0.6,0v1.1l-2.3,12.3
					c-1,0-0.6-1.5-1.8-1.5c-0.3,0-0.6,0.4-0.6,0.9h-0.1v0.8c0.1,0.9,1,2.2,1,2.9c0,1.3-1.6,1.9-1.6,3.4s1,4.3,1,6.1v1.2
					c0,1.7,1.9,1.4,1.9,3.4c-0.1,0.5-0.2,1-0.5,1.4c0.2,0.2,0.3,0.3,0.6,0.4c-0.1,0.7-1.3,0.7-1.3,1.4c0,0.2,0.4,0.6,0.6,0.8
					c0.9,1.1,1.4,2.2,3.4,2.2c0.1,0.4,0.2,1.1,0.8,1.1h1.5c0,1.5,1.5,1.5,2.6,1.9s0.6,2.7,2.1,2.7h1.9c0.2,0,0.5-0.3,0.7-0.3h0.8
					c0.6,0,2.4-1.6,3.4-1.6c0.4,0,0.8,0.3,1.1-0.2c-1.9-1.1-3.7-1.8-5.3-3.7c-0.9-1.1-0.8-4.9-2.1-5.7c-0.4-0.1-1-1.1-1-1.9
					c-0.1-1.3,0.3-2.7,1.2-3.7c0.6-0.8,1.7-0.3,2.2-1.4s0.2-2.2,0.8-2.8c1-1.2,2.7-1.4,2.7-3.7c0-2.6-3.1-1.4-3.1-4.7
					c0-1.3,0.8-2.5,2.1-2.9c0.5-0.1,1.7-0.2,1.9-1.1c0.4-2.1,0.4-3.6,1.7-5c-0.5-0.2-0.8-0.7-0.8-1.3c0.7,0,1,0.8,1.8,0.8
					c0.4-0.2,0.6-0.6,0.7-1.1c0-0.4-0.3-0.5-0.6-0.8c-0.2,0.1-0.6,0.6-1,0.6c-0.6,0-1.4-2.1-1.4-3.3c0-0.4,0.2-1,0.7-1
					c1.4,0,1.7,1.2,3.1,1.2c0.5,0,1.6-0.6,1.6-1v-0.8c0.5-1.2-0.2-3.6,0.7-4.7c0.6-0.8,2.9,0.1,4-0.2c1.7-0.7,3.1-0.3,4.3-1.7
					c0.7-0.8,1.3-1.6,1.8-2.5c0.3-0.7,0.4-1.5,0.3-2.2c0-0.9-1.1-0.9-1.3-1.8c-0.1-0.9-0.4-1.8-0.8-2.6c-0.2-0.3-1.2-0.6-1.2-1.4
					c0-0.3,0.3-0.4,0.6-0.4c1,0,1.9,1,2.9,1c0.5,0,2,0.9,3.1,0.9c3.2,0,3.7-4.1,5.1-6.6c1.2-2.1,2.6-2.4,3.8-4.6
					c0.6-1.1,0.5-1.6,1-2.7v0.1c0.7-1.8,1.4-3.1,2.8-4v-3.9c0-1.6-0.1-2.7,0.8-3.8c0.6-0.7,1.4-0.7,2-1.8c1.2-2.3,3-1.1,4.6-3.1
					c0.2-0.3,0.3-0.7,0.7-0.9c1.1-0.5,2.2-0.6,3.4-0.5c1.3-0.2,2.4-1,3-2.2c0.1-0.3,0.1-1.3,0.4-1.8c1-1.7,1.4-2.5,2.4-4.4
					c0.2-0.9,0.3-1.9,0.4-2.8c0.1-0.7,0.4-1.4,0.9-1.9c0.2-0.3,0.3-0.6,0.3-1c0-1.1,0.5-2.5,0.5-4c0-2-1-4.7,0-5.9
					c0.7-0.8,1.4-1,2.1-2.2c0.4-0.8,0.7-1,1.1-1.7c1.9-3.4,4.7-5,4.7-11.1C261.9,285.5,261.6,283.8,260.2,283.3z M196.6,149.6
					c0.1,0.3,0.2,0.6,0.3,0.9C196.8,150.1,196.7,149.8,196.6,149.6c-0.1-0.2-0.2-0.3-0.4-0.4C196.3,149.2,196.5,149.4,196.6,149.6z
					 M190.9,154.7c0.1-0.1,0.2-0.2,0.2-0.3C191.1,154.5,191,154.6,190.9,154.7c-0.1,0.1-0.2,0.3-0.2,0.5
					C190.8,155,190.8,154.8,190.9,154.7L190.9,154.7z M183.1,156L183.1,156L183.1,156c-0.1,0.1-0.5,0.5-0.9,1
					C182.6,156.5,182.9,156.1,183.1,156z M173.5,161.1c2.1-0.8,4.3-1.3,6.5-1.6l0.1-0.1l-0.1,0.1c0,3.1-4.4,2.3-6.4,2.3
					c-0.3,0-0.3,0.1-0.8,0.1c0.1,0.1,0.1,0.3,0.2,0.5c-0.1-0.3-0.4-0.4-0.4-0.7S173.3,161.1,173.5,161.1L173.5,161.1z M173.4,163.9
					L173.4,163.9l-1.1,0.6L173.4,163.9z M172.3,164.6c-1.6,0.9-3.9,2.2-5.3,2.2c-0.7,0-1-1.3-1-2.1c0.2,0.4,0.6,1,1,1
					c0.6,0,0.7-0.5,1-0.8c0.6-0.7,1.7-0.7,2.6-0.7S172,164.8,172.3,164.6L172.3,164.6z M144.5,145.7h3.5c1.4,1.6,3.2,1.6,5.7,1.6
					c0.9-0.3,1,0,1.8-0.4s0.4-1.8,1.1-1.8s1.4,1.5,1.6,1.8c0.1-0.4,0.1-0.8,0.1-1.2h0.6c0.4,0,3.3,2.8,3.5,3.1c0.4,1,0,1.8,0.6,2.5
					c1.6,1.9,3.7,1.5,5.5,2.8h1.8c0.8,0.7,1.9,1.5,1.9,2.7c0,0.6-0.3,1-0.7,1c-0.8,0-1.7-1.1-1.9-1.4c-0.3,1.3-0.9,5.3-1.9,5.3l0,0
					c-0.7-0.7-0.7-1.2-1-2.6c-0.7,0.3-0.6,0.6-1.4,0.6c0.2-1.2,0.8-1.9,0.8-3.1c0-1-2.6-2.5-3.1-2.5c-1.1,0,0,2-2.5,2.2
					c-0.8,0.1-0.8,2.6-0.8,3.6v2.6c0,1.1-0.4,3.6-1.4,3.6c-0.9-0.1-1.6-0.8-1.6-1.7c0-2.1,0.6-6.4,1.7-8.2c-0.7,0-1,0.7-1.7,1.2
					c0.1-1.7,2.9-4,4.4-4c0.6,0,2.1,0.4,3.1,0v-1c-1.4,0-2.3-1.1-3.9-1.1c-0.8,0-1,0.8-1.9,0.8c-0.6,0-1.1-0.4-1.2-1h-1.4
					c0.3-0.7,0.8-0.9,0.8-2.1c-1,0.3-2.3,1.8-3,1.8s-0.7,1.1-1.9,1.1c-0.6,0-0.8-0.1-1-0.8c-0.4,0.1-0.9,0.3-1.2,0.6h-1
					c1.6-2.4,3.5-3.2,5.4-4.7c-2.6,0-4.4,0-5.7-1.6h-3.5c-0.7-0.5-0.8-1-1.3-1.6C143.7,144.7,143.8,145.2,144.5,145.7L144.5,145.7z
					 M142.8,143.6L142.8,143.6v1l0,0V143.6z M59.7,111.9c-0.7-0.1-1.3-0.4-1.7-0.9C58.4,111.4,59,111.8,59.7,111.9
					c0.7,0,0.9-1,1.4-1.6C60.6,110.9,60.4,111.9,59.7,111.9z M62.9,109.4L62.9,109.4c1.4,1.7,2.4,2.7,3.4,4.2
					C65.3,112.1,64.3,111.1,62.9,109.4z M68.7,117.2c-0.2-0.7-0.6-0.9-0.8-1.2C68.1,116.4,68.5,116.6,68.7,117.2
					c0.2,1.1,0.7,2.2,1.4,3.2c0.1,0.1,0.2,0.2,0.3,0.2c-0.1-0.1-0.2-0.1-0.3-0.2C69.4,119.4,69,118.4,68.7,117.2z M70.4,120.6
					c0.4,0.1,0.8,0.3,1.1,0.5C71.2,120.9,70.8,120.7,70.4,120.6z M103.6,191L103.6,191l7.4,2.9L103.6,191z M118.1,192.9
					c2.3,0.7,3.7,1.1,4.8,3.5C121.8,194,120.5,193.6,118.1,192.9L118.1,192.9z M126.1,200.4c0.7,0,0.9-0.6,1.1-1.2
					C126.9,199.8,126.7,200.3,126.1,200.4L126.1,200.4z M128.5,198L128.5,198c2,0,3,1.5,3.8,3.4C131.5,199.5,130.5,198,128.5,198
					L128.5,198z"/>
				<path class="st0" d="M175.6,210.9c0,0.7,0,1.6,0.7,1.6c0.1,0,0.4-0.3,0.4-0.4c0-0.6-0.2-1.1-0.8-1.2
					C175.8,210.9,175.6,210.8,175.6,210.9z"/>
				<path class="st0" d="M175.6,206.1c-0.4,0-0.8,0.3-1,0.7c0.6,0,1.2,0,1.8,0C176.3,206.5,176,206.1,175.6,206.1z"/>
				<path class="st0" d="M177.7,207.1c-0.1,0.2,0.1,0.7,0.4,0.7L177.7,207.1z"/>
				<path class="st0" d="M186.1,220.3v-0.7c-0.2,0.5-0.8,0.8-1.4,0.7v0.5c0,0.1,0.2,0,0.3,0C185.4,220.8,185.8,220.6,186.1,220.3z"
					/>
				<path class="st0" d="M69.1,126.8c0.3,0,0.6-0.3,0.6-0.8c0-1.8-1.9-2.1-1.7-4.3c-1.4-0.3-1.8-0.3-1.8,1.7c0.8-0.7,0.4-0.3,1.5,0
					c-0.2,0.4,0,1.1,0,1.7C67.8,125,68.5,126.8,69.1,126.8z"/>
				<path class="st0" d="M64.2,118.5c-0.1,0.1-0.7,0.3-0.7,0c-0.3-1.3,0-1.3,0-3.5c-1,0.7-0.3,0-1.6,0c-0.4,0-0.8,0.3-0.8,0.8
					c0,0,0,0,0,0.1c0,1.2,0.7,2.2,1.9,2.5c-0.1,1.2,0.3,2.4,1.1,3.3C64.7,120.8,64,119.6,64.2,118.5z"/>
				<path class="st0" d="M128.1,70.8c1.2,0,1.5,0.3,2.8-0.7c-1.3-1.3-7.1-3.1-7.1-5.7c0-2.2-1.9-4.1-1.9-7c0-0.8,1.5-1.5,1.5-2.7
					s-1.2-1.8-2.4-1.8s-2.1,0.6-2.1,1.4c0,0.3,0,0.6,0.1,0.8c-1.1,0.7-0.7,0-1.9,0c-0.6,0-1.2,0.5-1.2,1.1c0.3,2,0.8,3.9,1.6,5.7
					c-0.3,0.3-0.3,0.7-0.9,0.7c-1.2,0-0.8-2.1-1.2-3.1c-0.4-1.1-1.3-1.9-2.3-2.4h-1.5c0.2,0.5,0.3,1,0.3,1.5
					c-0.7,0.2-1.4,0.4-2.1,0.6c-0.5-1.5-1.2-2.5-3.1-2.5c-1.1,0-1.6,1.1-2.1,1.5c-0.3-0.5-0.2-2.9-1.2-2.9c-2.5,0-8.8,3-8.8,7
					c0.4,0.8,1.2,1.4,2.1,1.6c0.8-0.1,1.6-0.1,2.4,0.1c-0.8,0.6-2.8-0.1-2.8,1.7c0,2.3,3.8,1.5,5.3,1.5h3.7c0.6,0.1,1.3,0.4,1.7,0.8
					c-0.8,0.1-1.5,0.2-2.3,0.2c-2.9,0-5,0.4-6.7,1.9c0.5,1,1.7,2.9,3.3,2.9c1,0,3-0.3,3.8,0.4s0.1,2.1,1.3,2.1h6.2
					c1.5-1.2,3.2-0.6,5-1.7c1-0.6,0.6-1.5,1.8-1.5c2,0,3,2.5,5.7,2.5c1.7,0,3.3,0.1,3.9-1.5c-0.4-0.3-0.6-0.7-0.7-1.2
					c-0.3,0-1,0-1-0.7S127.6,70.8,128.1,70.8z"/>
				<path class="st0" d="M84.6,62.8c0.2,0.4,0.7,1.7,1,1.7s0.6,0.8,1,0.8s5.4-2.1,5.4-2.7c0-1.9,3-5.4,5.2-6.2
					c0.7-0.3,4.3-0.9,4.3-1.8c0-1.9-3.4-3.6-4.8-3.6c-0.9,0-1.7,1-2.3,0.3c-1.6-0.2-2.3-1.2-3.8-1.7c-1.3-0.4-1.9,0.6-2.8,0.6
					c-1.7,0-2.4-0.8-4.2,0c0.1,0.9,1,2.2,1,2.9c0,3-3.4,5.3-3.4,8.1C81.3,62.1,84,61.9,84.6,62.8z"/>
				<path class="st0" d="M101.5,41h-0.2c-0.6,0-1.1,0.4-1.4,0.9c0.2,0.2,0.5,0.3,0.7,0.4l-0.4-0.1c-0.4,0-0.8,0-1.2,0v1.3l0.8,0.3
					c-0.3-0.1-0.5-0.1-0.8-0.1c-0.7,0-1,0.7-1.7,0.8c0.3,0.6,0,0.4,0,1.2c0,0.6,0.4,1.2,1,1.3c0.8,0.2,1.6,0.4,2.4,0.6
					c0.8,0,1.7-0.4,2.9-0.6c0-0.5,0.3-0.9,0.8-1.1c0.1,0.8,0.8,1.3,1.2,1.9c-0.9,0-1.9-0.3-1.9,1c0,0.5,1.1,1.3,1.9,1.3
					c1.6-0.1,3.1-0.5,4.5-1.3c0.2-0.1,4.6-1.3,4.6-1.4s4.1,0.3,4.5,0.2c1.2-1,2-2.4,2.3-3.9c0-1-0.8-2.1-1.6-2.1s-1.3,1-1.9,1
					c-1.3,0-2.6-1.8-2.6-3.1c0-0.4,0-0.7,0-1.1c-0.5,0-1-0.2-1.3-0.6c-0.7,0.7-2.5,1.3-2.5,2.7c0,0.7,1.2,1.2,1.7,1.2v1.1
					c-0.3,0-0.5,0.1-0.7,0.3c0.4,0.2,0.9,0.3,1.4,0.2c-0.2,0.7-0.8,1.2-1.5,1.1c-3,0-4.5-3.2-6.6-3.2h-1.6c0-0.7-0.5-1.2-1.2-1.3
					c-0.8-0.1-1.5-0.1-2.3,0C100.9,40.6,101.1,40.9,101.5,41z M103.4,42.8c-0.2,0-0.6-0.1-1.1-0.2C102.7,42.7,103,42.7,103.4,42.8
					L103.4,42.8z"/>
				<path class="st0" d="M93.9,44.2c0.1,0.6,0.6,1,1.2,1c0.9,0,1.9-1.7,2.1-2.9C96.5,42.2,93.9,42.8,93.9,44.2z"/>
				<path class="st0" d="M103.6,39.2h1.5v-1.1h-2.4C102.6,38.7,103,39.1,103.6,39.2z"/>
				<path class="st0" d="M88.8,42.3c0.7,0,1.1,0.5,1.9,0c0.1,0.3,0.6,1.2,1.2,1.2c0.8,0,1.3-0.9,1.4-1.8c1.2,0.2,2.2-1.2,2.3-2.6
					c0.6,0.4,0.6,2.3,1.7,2.3l3-2.7c0-0.7-0.5-0.8-0.6-1.7c0.5-0.2,0.9-0.7,0.9-1.3c0-1.5-4.2-0.2-4.2-0.2c-0.4-0.1-0.8-0.2-1.3-0.2
					c-1.9,0-2.3,2.2-3.6,3.1s-2.2,1-3.3,1.7c-0.6,0.4-1.1,0.9-1.5,1.5c0,0.3,0.6,0.7,0.7,1.2C88.2,42.8,88.4,42.3,88.8,42.3z"/>
				<path class="st0" d="M108.6,31.3h3c0.7-0.1,1.3-0.4,1.9-0.8c-0.4-1.3-1.6-2.1-2.9-2.1c-0.9,0-5,1.8-5,2.9
					c0.6-0.1,0.8-0.7,1.4-0.7S107.7,31.3,108.6,31.3z"/>
				<path class="st0" d="M111.3,31.7c-1.4,0-5.7,0.2-5.7,2.1c0.2,1.1,1.1,2,2.2,2.2c1.5,0,3.8-0.7,3.7-2.5h-1.9c1.1,0.1,2.2-0.3,3-1
					C112.4,32,111.9,31.7,111.3,31.7z"/>
				<path class="st0" d="M103.7,34.4c0.5,0,0.7-0.5,1-1c-0.4-0.3-2.3-2.3-2.3-0.3C102.5,33.8,103.1,34.3,103.7,34.4z"/>
				<path class="st0" d="M138.1,58.2c0-0.8,0.2-0.1,0.2-1.2c0-0.9-2-0.2-2.6-0.1c0.5-0.7,2.2-1.4,2.2-3.1c0-0.4-0.3-0.7-0.7-0.8
					h-2.8c-1.5,0-3-0.3-4.1,1c-0.1,0.3-0.5,0.4-0.5,0.7c0,1.1,1.3,0.9,2.2,1.1V58h-1c-1.2,0-2.2-1-3.1-1v1.4c2,2.4,4.1,2.1,6.1,4.4
					c0.4,0.5,0.6,1.4,1.5,1.4c0.6,0,0.8-1,1.4-1.2c2.2-1,2.4,0.2,2.8-4.3C139.3,58.5,138.4,58.3,138.1,58.2z"/>
				<path class="st0" d="M124.5,39.3h-0.8c0,0.3,0.1,0.7,0.2,1l-0.1-0.2v1.5c0.6,0.5,1,1.1,1.7,0.8l0.2,0.8h1c0,0.5,0.3,0.9,0.8,1
					c1.4,0,3.8-0.8,5-0.8c0.3,0,0.6,0.1,0.8,0.3c-0.4,0.5-1.7,0.5-1.7,1.2c-0.1,0.3-0.1,0.6,0,0.8c-0.3,0.2-0.5,0.5-0.5,0.8
					c0,0.8,1.8,0.4,2.2,0.4c0.9,0,1.9-0.1,2.8-0.4c-0.3-2.3,0.6-3.3,0.6-5.2c0-1.3-0.1-2.1-1.4-2.1c-0.6,0-0.8,0.7-1.4,0.7
					c-1.3,0-2-0.8-3.1-0.8c-0.5,0-0.8-0.2-1.3,0.1c0.3,1.2,1.3,1.2,2.4,1.2v1.8c-1.7,0-2.3-1.8-3.8-1.8v1c0.4,0.5,0.9,1,1.4,1.4
					C127.5,43.6,126.5,39.3,124.5,39.3z"/>
				<path class="st0" d="M135.2,73.3c-0.3,0.1-1.5-0.3-1.5,0.4c1.9,1.1,3.9,1.9,6,2.5c0.8,0,1-0.8,1.7-1.3c-0.4-1.2-3.3-4.2-4.3-4.2
					C135.7,70.7,136,73,135.2,73.3z"/>
				<path class="st0" d="M144.5,51.2c-0.8-0.1-1.6,0.5-1.9,1.2c0,0.3-0.1,0.7,0,0.8h-1.6v1.4c0.5,1.7,0,2.7,1.1,4
					c-0.1,0.8-0.1,1.7-0.1,2.5h1.4c0.8-1,1.4-1.2,1.6-2.7h-0.9c0.4-1.7,0.4-0.6,1.9-0.6c2.1,0,3-1.8,3.9-3.3c0,0,1.3-1.1,1.3-1.3
					c0-0.4,0-0.7,0-1.1C148.8,52.2,146.9,51.2,144.5,51.2z"/>
				<path class="st0" d="M122.7,36.9c0.6,0,1-0.4,1-1c-1.4-0.6-1.6-2.3-3.4-2.3C120.3,34.6,122,36.9,122.7,36.9z"/>
				<path class="st0" d="M122.4,47c0.5,0,0.9,0,1.4,0.1c0.4,0,1-0.1,1-1.1c0-0.6-0.3-0.8-0.5-1.2C123.3,45.1,122.5,46,122.4,47z"/>
				<path class="st0" d="M122.4,27.2c-0.1,0.3-0.2,0.6-0.5,0.8c0.6,0.5,0.9,0,2.4,0c-0.1,0.3-0.1,0.7,0,1c-0.8,0.3-1.4,0.3-2.1,1
					c0.6,0.7,0.9,0.7,1.9,0.7s1.9-0.4,2.3,0.3c1.2-0.2,2,0.3,3.3,0.3c1.6,0,1.4,2.1,3.1,2.1c0.6,0,1.3-0.3,1.3-1.1s-1.4-1.6-1.9-2.2
					c0.1-0.3,0.4-0.6,0.6-0.8c-0.3-0.4-1.1-1.9-2.1-1.9c-0.4,0-0.6,0.7-1,0.7c-0.8,0-0.7-1.9-2.1-1.9c-0.6,0-0.8,0.7-1.4,0.7
					c-0.8,0-1.2-1.5-2.6-1.5c-0.8,0-1.4,0.5-2.2,0.7C121.2,26.9,121.4,27.2,122.4,27.2z"/>
				<path class="st0" d="M128.1,32.3c-0.3,0-1.9,1.2-0.6,1.2c1,0,1.9,0,2.2-0.6C129.1,32.7,128.9,32.3,128.1,32.3z"/>
				<path class="st0" d="M154.1,48.3h0.8c-0.1,1.4,2,1.7,3.5,1.2h5.5c0.6-0.5,0.8-0.9,1.7-1.1c0.1,0.7,0.7,1.2,1.4,1.2
					c2.4,0,5.5,0,5.7-2.9c-0.3,0.1-0.6,0-0.9-0.1c0.1-0.3,0.2-0.5,0.4-0.8c0.2,0,0.4-0.1,0.6-0.2c-1-2.2-2.8-2.3-5.5-2.3
					c-3.6,0-4.8,2.1-8.6,2.1c-1.6-0.1-3.2-0.4-4.8-1c-0.3,0.2-1.1,0.8-1.1-0.4c0-0.3,0.4-0.3,0.5-0.4c-1-0.9-2.7,0.3-3.1-1.9h2.8
					c-0.6-1.1-3.8-0.6-3.3-2.5h-1.2c-0.3,0.5-0.8,0.7-1.4,0.7c-2.4,0-2.9-2.9-6-2.9c-0.8,0-2.1,0-2.1,1.2c0,0.8,4.2,2.9,5,2.9
					c0.6,0,1.1-0.4,1.4-0.8c1.2,1.4,1.5,2.7,2.8,4.2c-0.5,0.3-0.8,0.8-0.8,1.3c0,1.7,3.5,3.7,5,3.7
					C152.7,49.7,153.8,48.7,154.1,48.3z"/>
				<path class="st0" d="M145.2,46.6c-0.3-1.4-1.5-2.5-2.9-2.7c-1.6,0-1.3,1.9-2.1,1.9c-0.5,0.2-0.9,0.7-0.9,1.3
					c1.5,0.8,3,1.6,4.5,2.2C144.8,49.3,145.2,48.1,145.2,46.6z"/>
				<path class="st0" d="M145.4,34.6v-1.1c-0.7,0.2-0.1,0-0.9,0c-1.3,0-3.8,0.2-4.5,1c0,0,4,0.9,4.4,0.9
					C144.9,35.5,145.3,35.1,145.4,34.6z"/>
				<path class="st0" d="M138.1,31.7c-0.2,0.1-0.7,0.4-0.7,0.8c0,1,2.4,0.7,4.8,0c-0.1-0.7-0.1-1.4,0-2.1c0-1.7-2.4,0.1-2.4-1.9
					c-0.8,0-2.2-0.6-2.4-1.2c-0.7,0.1-1.6,0.4-1.6,1.2C135.9,30.2,137.3,30.7,138.1,31.7z"/>
				<path class="st0" d="M134.7,23.4h1.2v-1.7c-0.8,0-1.6,0-2.4,0C133.4,22.8,134.3,23,134.7,23.4z"/>
				<path class="st0" d="M143.5,21.8c-0.7-0.1-1.5-0.4-2.1-0.8h-1c0.2,2.4,1.7,2.6,4,2.6c-0.4,0.7-0.9,0.8-1.6,1.1
					c0,0.5,0.1,0.8,0.6,0.8s0.8-0.3,1.4-0.7c0.2,0.5,0.3,1.1,1,1.1s1-0.7,2.1-0.7c1,0.1,1.9,0.3,2.8,0.7c-1,0.2-5.3,0.1-5.3,1.6
					c0,1.2,1.9,2.1,3.1,2.1c-0.2,0.3-0.5,0.5-0.9,0.6c0.1,1.2,1.7,1.5,2.8,1.5s1.7-0.4,1.7-1.9c0.6,0.5,1.9,1.6,2.5,1.5v-1.1h1.2
					c-0.3-0.6-0.6-1.1-0.9-1.6c0.4-0.4,0.5-0.8,0.8-1.2c0.2,0.9,0.2,1.7,1.1,1.7s1.9-2.5,3.3-2.6c0.6-0.1,1.3,0.1,1.6-0.4
					c0.2-0.3,0.1-0.7,0.1-1.2c-0.9-0.1-2.7-1.1-3.4-1.1c-0.1,0-1.2,0.8-1.2,0c0-0.5,0.5-0.7,0.5-1.2s-0.8-0.7-0.8-1.2
					c0-1,0.1-1.4-0.9-1.4h-0.7l0.3,0.6v1.1h-0.8c-0.6-0.7-0.2-1.8-1.2-2.3s-1.7,0.3-2.8-0.2s-0.8-2.9-2.2-3.6
					c-1.4-0.6-2.9-0.9-4.4-0.9c0.1,1.2,1.3,1.2,2.1,1.7h-1.2c-1.3-0.3-1.8,0.2-2.6,0.8c0,0.1,0.6,1.3,0.9,1.3s1.3-0.5,1.9,0
					c-0.2,0.3-0.4,0.8-0.8,0.8s-0.9-0.6-1.9-0.6c-0.6,0-1.6-0.1-1.6,0.8s2.1,1.5,3,1.8C144.1,21.1,143.8,21.8,143.5,21.8z"/>
				<path class="st0" d="M168.7,93c-0.4-0.3-0.1-0.9-0.5-1.5c-1.3-2-3.5-1.2-4.9-3.3c-0.3,0.2-0.5,0.4-0.6,0.7
					c-0.4-0.7-0.7-1.5-1-2.3c-1.9,0.3-2.3,3.6-2.3,5v1.3c0,0.5-0.3,0.8-0.7,1.1c-0.1,0.4-1,0.3-1,1.7c1-0.2,2-0.2,3,0
					c-0.1,0.8-0.4,1.7,0.5,1.7c0.4,0,0.4-0.2,0.6-0.7c1,0.5,3.3-1.2,3.3-3.1c0.9,0.6,1.8,1.3,2.6,2.1h1.9c0.8,0,1.7-0.3,2.3-0.9
					C171.1,93.6,169.8,94,168.7,93z"/>
				<path class="st0" d="M181.9,79.4c0-2.7-4.3-3.3-4.3,0c0,1,0.7,1.8,1.6,1.8c0,0,0.1,0,0.1,0C180.1,81.2,181.9,80.4,181.9,79.4z"
					/>
				<path class="st0" d="M166.3,97.8c-0.1,0.5-1,1.2-1.5,2.1v1.1c1.1-0.2,2.8-1.8,3.5-2.8C167.4,97.7,167.7,97.7,166.3,97.8z"/>
				<path class="st0" d="M173.8,57.8c1.2,0,1.8-0.8,2.6-0.8s1.2,0.6,2.1,0.6c0.6,0,1-0.6,1.2-1.3c-1.2-0.8-2.8-2.6-4.7-2.6
					c-1.4,0-1.9-0.7-3.4-0.7c-0.7,0-1.2,0.5-1.2,1.2c0,0,0,0,0,0.1c0,0.9,0.8,1.3,1.4,1.7C171.2,57.4,172.4,57.8,173.8,57.8z"/>
				<path class="st0" d="M172.2,102.6c0.7,0,0.8-1.2,1.3-1.8c-0.7-1-2.3-0.9-2.3,0.6C171.4,101.8,171.8,102.2,172.2,102.6z"/>
				<path class="st0" d="M184.8,78.8c-0.2-0.3-0.8-1.3-1.4-1.3c-0.1,0-0.9,0.6-0.9,0.8c0,0.5,0.4,0.7,0.9,0.7
					C183.9,79,184.4,79,184.8,78.8z"/>
				<path class="st0" d="M175.1,72.7c-0.8,0-2.4,1.9-1.6,1.9S174.9,73.7,175.1,72.7z"/>
				<path class="st0" d="M190,65c0.2-1.4-1.5-1.7-2.3-1.7H186c-2.3,0-2.8-2.8-4.3-4.1c-0.9-0.8-3.9-1.3-5.2-1.3s-1.6,2.1-2.8,2.1
					c-0.6,0-0.8-0.8-1.6-0.8s-1,0.8-1.4,0.8s0-1.3,0-1.7c0-1.8-1-4.7-2.8-4.7c-2.8,0-7.4,1-7.4,4.1c0,0.8,0.7,1.4,0.7,2.2
					c-0.1,0.8-0.7,1.4-1.4,1.7c-0.8,0-0.7-0.8-0.7-1.4c-0.1-0.5-0.1-1,0-1.5c-0.4,0-0.6-0.3-0.6-0.8c0-2.4,2.3-2.6,3-4.3
					c-0.1,0-2.3-0.8-2.3-0.8c-2.4,0-4.1,1.4-5.5,3.1c-0.3,0.3,0.1,1.8-0.5,2.3c-1,0.9-1.4,1.4-1.4,3.7c0.2,0.8,0.5,1.6,1,2.2
					c0,0,3.2,0.3,3.8,0.8V66c-1.2-0.2-2.2-0.7-3.1-0.3c0.1,1.2,1.2,1.3,1.5,2.5h3.3c0.4,0.7,1.5,1.7,2.1,1.7c3.1,0,8.4-0.3,10.5,0
					c-0.1,0.6-0.4,1.9,0.6,1.9c1.2,0,2.4-3.2,3.3-3.2s4.5,3.8,5.1,4.6c-0.4,0.1-1.7,0.3-1.7,1.1c0,0.2,0.3,1,0.6,1
					c0.9,0,1.3-1,2.2-1c1.4,0,5.9,4.1,5.9,6.2c0,1.2-1.4,3-2.1,3.7c-0.5,0.6-1.7-0.2-1.7,1.3c0,0.7,0.9,1.5,1.2,1.7
					c-0.9,0.6-2,1-3.1,1.2h-3c-1,0-2.8,1.4-2.8,2.2c0,1.2,2.2,2.3,3,2.3s1.3-1.3,2.1-1.3c0.6,0,0.5,0.6,1.2,0.6s1-0.7,1.4-1.2
					c2,1.4,3.1,3,5.4,4.2c-1.2,2.7,3,2.6,4.6,3.7s3,0.8,5,1.9c0.2,0.1,0.3,1,0.7,1s0.7-0.4,0.7-1c0-2.3-3.9-4.1-5-5.8h1
					c0.8,1.2,5.2,3.1,6.4,3.3c0.4-1.1,0.8-2.2,1-3.3c0-0.9-1.2-1.3-1.2-1.9c-0.1-0.5-0.1-1.1,0-1.7h-1.2c-0.1-1.4-0.6-0.4-1.9-1
					c-0.6-0.3-1.4-2.1-1.5-3.2h-0.9v-1.2c0.3,0.3,0.6,0.2,1,0v-1c-0.6,0.2-0.8,0.3-1.4-0.2c0.1,0,1-0.9,1.4-0.9
					c3.3,0,3.5,5.6,6.9,5.6c0.8,0,0.9-1.4,0.9-2.3c1.3,0,1.5-0.7,1.5-1c0-0.4,0-0.7,0-1.1c0.9,0,2.1-0.3,2.1-1.4
					c0-1.3-0.6-1.9-1.9-1.9c-0.5,0.1-0.9-0.1-1.2-0.4c-0.6-1.6-0.9-0.4-2.4-0.4c-1,0-1.4-1.4-1.5-2.9c-1.4-0.2-3.3-1-3.5-2.9
					c-0.7,0-1.4-0.2-1.9-0.7c0.6-1.2,1.2-1.2,2.3-1.9c-0.2-0.4-0.6-0.7-1-0.8c-0.7,0-1.4-0.1-2.1-0.2c0.6-1,1.4-0.9,2.4-1.2
					c-0.4-1.2-1-2-1.9-2h-1.2v-1.4C192.9,67.1,191.9,65.8,190,65z"/>
				<path class="st0" d="M175.3,96.3c0.7,0.7,0.9,0.7,1.6,0C176,95.8,176,95.2,175.3,96.3z"/>
				<path class="st0" d="M163.7,86.2c0,0.7,0.6,1.3,1.4,1.3C164.6,86.7,164.6,85.7,163.7,86.2z"/>
				<path class="st0" d="M151.1,12.7h2.1c-0.8,0.3-1.4,0.8-1.9,1.4c0.4,0.3,0.8,0.5,1.2,0.7c1.3,0,1.4-1.5,2.8-1.5
					c0.5,0,0.9,0,1.4,0.2c-1.8,0.7-3.5,0.4-4.3,2.6c0.6-0.1,1.9,0,3.3,0c-0.7,0.1-1.4,0.4-1.9,0.9c1,1,2.4,1.7,3.8,1.7
					c0.6-0.1,1.1-0.4,1.5-0.8h0.9c-0.4,1.1,1.4,1.7,2.8,1.7c0.6,0,0.8-0.8,1.4-0.8s1.1,0.7,2.4,0.7c1.9,0.1,3.8-0.6,5.2-1.9h1
					c-0.8,1.2-2,1.6-3.3,2.3H166c-0.1,0.3-0.5,0.5-0.5,0.8c0,0.5,2.2,2.1,2.6,2.6c-1.9,0.3-2.6-2.1-4.3-2.8
					c-1.2-0.3-2.4-0.3-3.7-0.2c-0.3,0-0.7-0.2-1,0c0.1,0.7,0.3,1,1,1c-0.7,0-1.7-0.2-1.7,0.7c0,1.5,4.7,1.5,4.7,4.1
					c0,2.3-2.1,1.6-3.8,2.2c-1,0.4-1.5,1.3-2.1,2.7v1h1c0.2-0.2,0.4-0.4,0.7-0.6h1c0,2,2.1,3,3.1,4.1h-1.2c-1.3-0.9-2.1-2.3-4.3-2.3
					c-0.7,0-1.7-0.3-1.7,0.8c0,1.5,1.4,1.7,2.3,2.5c-1.4,1.2-5.1,0-5.1,3.3c0,0.4,0.3,0.7,0.7,0.7c0.4,0,0.6-0.4,0.8-0.8
					c2.4,0.9,4.3,1.7,6.6,1.7c1,0,1.5-0.8,2.1-0.8h5.2c1.4,0,0.7,1.3,2.3,1.3s5.5-1.5,5.5-2.9c0-0.7-0.8-0.7-1-0.7h-1.7
					c0-2.8,2.9-1.2,2.9-3.9c0-0.5-0.3-0.7-0.5-1.2h3.5c1.2-1,1.7-3,3.1-3.8c-0.4-1.2-1.2-1.5-2-2c1.3,0.2,2.1,0.3,2-1.5h-1.9
					c1.1-1.1,2.8-1.3,4.4-1.8c1.1-0.4,2.6,0.6,3.6-0.3c2.1-1.8,3.7-5.1,6.4-6.2c2.5-1,6.4-2.2,8-4.1c-1.7-0.1-4.5,0.6-5.2-0.3
					c3.7-2.1,7.1-0.7,9.8-3.1c0.5-0.4,1.7-0.2,1.7-1.2c0-1.5-3.7-1.1-4.5-2.1c-0.4-0.5-0.4-1.2-1.2-1.4c-0.4-0.2-0.9-0.4-1.3-0.7
					l-5.5,1.9c0.5-0.2,0.9-0.5,1.2-0.9c-1.4-1.7-7.3-1.4-9-1.4h-2c-0.6,0-1-0.6-2.1-0.6S183.7,5,182.8,5s-1.4-1-2.6-1
					c-0.4,0-0.7,0.2-0.8,0.6h-7.9c-0.7,0-1.4,0.4-1.6,1.1c-0.9,0.9-0.2,0.2-1.4,0.2c-2,0-2.8,1.7-3.4,3.7c-0.6-0.3-3.3-1.8-4.6-1.8
					s-0.6,1.8-2.8,1.8c0,0.3-0.2,0.6-0.6,0.7h-1.5c-2,0-6.5,1-6.9,3.1h1.5C150.3,13,150.7,12.8,151.1,12.7z"/>
				<path class="st0" d="M286.1,68.8c-1.5-0.6-7.6-0.2-7.6-2.7c0.3-0.1,1.5-0.3,1.5-1.1s-0.7-0.9-0.7-2.1c0.3,0.3,0.7,0,1,0
					c2.8,0,2.1,4.1,5.4,4.1c0.8,0,1.9-0.1,1.9-1c0-4.7-4.4-6.1-6.9-9.1v-1.2c0.3,0,0.6,0,0.9,0c0.4,1.6,2.6,3.7,3.8,3.7
					c0.8,0,1-1.3,1-2.3c0-2.2-3.1-1.5-3.8-3.7h1c0.6,0.8,1.3,1.4,2.1,1.9c0.5-1.7,3.3-0.7,3.8-3.2c-0.4-0.3-0.7-0.7-0.7-1.3
					c1.4,0,2.7-0.9,3.2-2.2c-0.8-0.3-2.8-0.3-2.8-1.7c0-1.1,1.1-1.1,2.2-1.1c-0.4-0.5,0-1.2,0-1.8c0-1.2-1-1.7-1-3.6
					c-1,0-2.2,0-2.2-1.4c0.1-0.7,0.7-1.2,1.4-1.2c1.3,0,4.9,0.7,4.9-1.2s-2.7-1.6-3-2.9c0.5,0,0.9-0.2,1.2-0.5
					c-0.7-0.8-1.7-1.4-2.8-1.6c-0.8,0-1.3,0.4-2.1,0c0.4-0.8,0.3-2.8,1.2-3.6c1.3-1.2,2.8-1.7,2.8-3.5c0-0.4,0-0.8,0-1.2
					c1.3-0.4,3.1-0.8,3.1-2.1c0-0.8,0.5,0.1,0-1.1c1.2-0.3,3.1-0.3,3.1-2.7c-0.5,0.5-0.6,0.5-1.5,0c3.1,0,4.6-2.4,6.9-3.3
					c0.4-0.2,1.7-0.9,1.7-1.9s-3.3-2.9-4.1-2.9c-0.7,0-1.2,0.1-1.4,1.1h-3.3c-0.8,0.6-1.7,1.2-2.6,1.7c-0.5,0-1.1-0.1-1.6-0.2h-4.6
					c-1.1,1-4.6,6.5-6.4,7c0.2-0.8,4.7-6.5,4.7-7.2c0-1.3-0.5-2.5-1.7-2.5c-2.3,0-6.4,4.7-8.1,4.7c-0.6,0,2.5-3.5,2.6-4.1
					c-1.2-0.6-12.8,1.1-14,0l15.2-1c1.9-0.8,6.6-0.4,6.9-3.3c-1.7-0.5-4.1,0.1-6-0.8c-3.3-1.6-6.3-4.8-10.4-4.8h-10
					c-3.5,0-6.2,2.3-9.5,2.3c-0.9-0.1-1.8-0.1-2.8,0v1h-1.4c-1.4-0.5-2.8-0.7-4.3-0.6c-2.1,0-4.1,0.6-5.9,1.6
					c0.4,0.6,0.9,0.7,1.4,1.3c-0.6,0.2-2.8-0.2-2.8,1c0,1.6,2.8,2.7,3.9,3.3h-3.1c-1.7-0.9-3.4-3-6.2-3c-0.7,0-1.7,0.1-1.7,1.1
					c0.1,0.6,0.3,1.2,0.6,1.8h-1c-1.4-0.7-2.6-0.5-3.3-2.1l-0.7,0.8c0,0.6,0.4,1.1,0.4,1.7c-1.3,0-1.7-2.5-2.9-2.5
					c-1.9,0-3.3,1.3-5.2,1.9c-2.6,0-3.7,0.8-6.4,1.2c-2.2,0.3-0.4,4.1-2.8,4.1c-0.7,0-1.3-0.2-1.8-0.7c-1.9,2-4.3,3.5-6.9,4.6
					c-0.4,0.1-1.4,0.5-1.4,1.3c0,1.6,3.9,1.5,5.2,1.7c0.1,1.7-0.6,3.3-1.9,4.4c-1.5,1.1-4-0.2-5.9,0.6c-1.3,0.5-2.1,1.4-3.3,1.9
					c-1.5,0.6-3.9-0.3-3.9,2.2c0,1.3,6.6,3.6,6.9,3.6h2.4c0.4,0,0.6-0.4,0.7-0.8h2.8c-0.2,0.9-0.2,1.2-0.9,1.8h-3.9
					c-0.3,0.6-0.6,0.7-1.2,0.7h-1.7c-0.6,0-1.9,0.5-2.1,1.7c1.3,0.6,0.9,0,2.4,0c0.8,0,1.7,0.9,2.8,1.4c-0.3,0.8-0.8,0.8-1.4,1.3
					c0.8,1.2,3,2,4.5,2c0.6,0,0.5,0.3,0.9-0.2c-0.3-0.2-0.5-0.4-0.7-0.7c0.4-0.2,0.9-0.3,1.4-0.3c0.8,0,1.4,0.7,2.1,0.7
					c0.9,0,1.3-1.1,2.2-1.1h2.1c7.8,0,12.6,7.2,14.5,14.3v1.2c0.6,0.1,1.7,0.2,1.7,1.4c0,1.9-1.5,1.7-1.5,3.6c0,1.2,0.6,1.4,1.9,1.4
					c0.9,0,1.1-1.4,1.7-1.4c2.3,0,2.9,3.9,5,4.7c-0.1,0.5,0,1.3-0.7,1.3c-1.7,0-2.7-1.3-4.1-1.3c-0.6,0-0.6-0.3-1.3,0
					c0.3,2.3,5.3,2.7,7.5,3.6c-0.6,2.3-1.7,3.2-2.1,5.6c-1-0.5-1-0.4-1.9,0.2v0.2c-1.4,1.3-1.8,3-2.8,4.6v1.9c0.4-0.4,1-0.4,1.4,0
					c-0.2,0.8-0.7,1.2-0.7,2.1c0,2.2,1.9,3.2,2.3,4.7c0.1,0.9,0.4,1.8,0.7,2.7c1.2,0.7,1.5-1.3,2.6,0.3c-0.5,0.6-1,0.5-1,1.6
					c0,2.4,2.6,6.1,4,7.5c0.2,0.2,0.1,1.3,0.5,1.7c1.1,1,1.8,0.4,2.3,2.3c0.8-0.1,1.9-1.1,2.9-1.1c1.7,0,1.6,3.7,3.3,3.7
					c0.4,0,0.6-0.5,1.4-0.6c0.1,0.5,0.4,0.8,0.8,0.8c1.9,0,1-4.3,2.6-5.2c-0.1-0.9,0-3.1,0-4.6c0-2.4,3.3-1.5,3.3-4.3
					c0-0.9-0.8-1.3-0.8-1.9c0-0.4,0.3-0.7,0.5-1c0-0.3-0.1-0.6-0.1-0.8c0-2.7,3.7-2,5.2-3.7c0.6-0.7,0.4-1.6,1.4-2.1V86h1
					c1.5-1.2,3.8-0.8,5.2-2.5c1-1.2,1.1-2.9,2.4-4.1l1.7-1.5c0-0.7,0.7-0.9,1.4-1.4h3.3c2.6-1.3,4.6-1.1,7.1-2.1c2-0.8,2.7-3.1,5-4
					C284.2,70.1,285.3,69.6,286.1,68.8z"/>
				<path class="st0" d="M223.2,72.5h1.5c1.2,0,2.6-0.3,2.8-1.7c-1.8-0.7-2.4-2.9-4.1-2.9c-0.8,0-1.5,0.7-1.5,1.5c0,0.1,0,0.1,0,0.2
					C221.8,70.6,222.6,72.4,223.2,72.5z"/>
				<path class="st0" d="M293.2,44.7c-0.2,0.3-0.7,0.6-0.7,1.1s0.4,1.3,0.9,1.3c0.7,0,1.9-1,2.2-1.3h-1.2v-1.1H293.2z"/>
				<path class="st0" d="M220.3,137.3c0-0.3-0.2-0.8-0.5-0.8c-1.1,0-1.5,1.4-2.1,2.5c-1,1.9-1.8,5.6-3.7,6.8
					c0.1,0.2,0.3,0.4,0.6,0.4v0.5c0,0.1-1.2,1.3-1.2,1.6s0.3,0.8,0.7,0.8c0.8,0,1.1-0.5,2.1-0.5c0.8,0,1.2,0.6,2.1,0.6
					c0.5,0,1-0.2,1.4-0.4c0.4,0.8,1.3,0.3,1.9,0.3c-0.2,0.5-0.8,0.5-0.8,1.3c0,0.2,0.3,0,0.4,0c0.8,0,1.5-1.2,2-2.3
					c0.6,0.7,0.1,2.3,0.7,2.3c0.2,0,0.4,0.2,0.6,0.2c0,0.3,0.1,1,0.6,1c0.7,0,1.1-1,1.1-2c0-0.8-0.5-0.8-0.5-1.7
					c-0.4,0.3-0.2,0.5-0.9,0.5c0-0.6-0.5-0.9-0.5-1.3s0.6-0.5,0.7-1.3c-0.3,0-0.5,0.1-0.8,0.3c0-1.2,0.1-2,0.1-2.7
					c-0.6,0.3-1.4,0.3-2,0l-0.8,0.3v-0.4h-1.2v-0.8l0.4-0.4c-0.3-0.3-0.7-0.5-1.1-0.4c-0.5,0-0.5,0.5-1,0.7v-0.7
					C218.8,140,220.3,139.1,220.3,137.3z"/>
				<path class="st0" d="M602.8,47.1c0.7,0,1-0.8,1.5-1.3c0.3,0.5,0.6,0.8,1.3,0.8s1.1-0.7,1.5-0.7s0.8-0.6,1.4-0.6s0.8,0.8,1.3,0.8
					c0.8,0,1.2-0.8,1.7-0.8h1.9c0-0.7,1-1.6,1.2-2.7c-1.4-0.5-5.5-2.2-6.8-2.2c-0.8,0-1.2,1-1.2,2.2c-1.9,0-2-2.7-4.2-2.7
					c-1.7,0.1-3.1,1.6-3.1,3.3C599.3,45.3,600.9,46.9,602.8,47.1z"/>
				<path class="st0" d="M170.4,133.1c0.1,0,0.3,0.1,0.3,0c0-1.2-1.2-1.4-2.4-1.4c0.1,0.2,0.1,0.4,0,0.6
					C169,132.8,169.7,133.1,170.4,133.1z"/>
				<path class="st0" d="M80.6,143.7c1.1,0.8,3.5,3.1,5.1,3.1h0.6v-0.8c-1.8-2.1-3.5-4.1-6.4-5.3c-0.5-0.2-1.1-1.2-1.9-1.2
					c-0.4,0.1-0.7,0.2-1,0.4h0.3c0,0,0.7,0.3,1,0.3c-0.1,0.3-0.4,0.6-0.7,0.7c0.3,1,2.2,1.8,3.6,1.8
					C81.1,143.2,80.8,143.2,80.6,143.7z"/>
				<path class="st0" d="M70.3,132.5c0-0.4-0.3-0.6-0.3-1c0.1-0.6,0.1-1.2,0-1.8c-0.1,0.4-0.4,1.1-0.9,1.1s0.4-0.9,0.4-1
					c-0.6-0.1-1-0.6-1.6-0.6v0.7c0.3,0.5,0.6,1.5,0.8,1.5s0.6,0.9,1.1,1.1c0,0.2-0.3,0.4-0.3,0.9c0,0.7,0.4,1.6,1,1.6
					s-0.6-1.2-0.6-1.6S70.3,132.8,70.3,132.5z"/>
				<path class="st0" d="M25.6,117.9v1c0.5,0.3,1,0.7,1.4,1.1c0.8-0.9,1.7-1.7,2.7-2.3v-1h-0.8C27.7,116.7,26.8,117.5,25.6,117.9z"
					/>
				<path class="st0" d="M359.4,175.8c-1-0.3-1.5,0.6-2.4,0.6s-1.6-1.1-3-0.3v0.6c0.2,0.4,0.8,0.3,1,0.4c1.1,0.4,2,1.8,3.2,2.2
					c0,0.3,0.4,0.3,0.5,0.3s0.4-0.3,0.4-0.6c0-0.7-0.4-0.7-0.4-1.3c0.1-0.3,0.2-0.6,0.4-0.9L359.4,175.8z"/>
				<path class="st0" d="M347.7,166.5c0.2-0.5,0.4-2.3,0.6-3.3c-0.2-0.1-0.3-0.5-0.3-0.9c-0.3,0.1-0.6,0.8-1.1,0.8
					c-0.1,0-0.4,0.2-0.5,0.2C346.8,164,347,166.4,347.7,166.5z"/>
				<path class="st0" d="M346.7,169.9c0,0.6-0.3,1-0.4,1.7s0,1.7,0.7,1.7c1-0.3,1.7-1.3,1.8-2.3c0.2-1.1,0-2.3-0.4-3.4
					c-0.2,0-0.4-0.5-0.9-0.5s-0.7,0.8-1.5,1.1C346.1,168.8,346.7,169.3,346.7,169.9z"/>
				<path class="st0" d="M336.3,171.8c0-0.3-0.4-0.8-0.4-0.9c-0.4,0.1-0.8,0.3-1.1,0.6c0.1,0.1,0.6,0.7,0.9,0.7
					S336.3,172,336.3,171.8z"/>
				<path class="st0" d="M351,124.9c0-0.8-0.5-0.7-0.5-1.7h-1.3v0.8c0,0.8,0.8,1.1,1.6,1.1v0.7C350.9,125.3,351,125.5,351,124.9z"/>
				<path class="st0" d="M351.8,125.7l-0.1-0.3c-0.1,0.1-0.3,0.3-0.4,0.4c0.3,0.3,0.6,0.5,1,0.5c1.5,0,1-2.9,2.1-3.3
					c-0.3-1.4-0.4-2.2-1.8-2.2c-0.5,0-1.3,2.2-1.3,2.5c0,0.5,0.8,1.2,1.5,1.3C352.7,125.1,352.3,125.6,351.8,125.7z"/>
				<path class="st0" d="M366.7,114.7c-1.2,0.1-1.6,1.6-1.6,2.1s-0.2,0.8,0,1.1c0.5-0.8,1-1.2,1-2.1
					C366.1,115.4,366.5,115.1,366.7,114.7z"/>
				<path class="st0" d="M372.9,114.3c0.3,0,1.2-0.6,1.2-0.8v-1c0.3-0.3,0.5-0.7,0.6-1.1c-0.3-0.2-0.6-0.5-0.8-0.8
					c0,0-0.6,0.4-0.6,0.8s0.3,0.7,0.5,1c-0.5,0.1-1,0.6-1.5,0.7C372.2,113.6,372.3,114.3,372.9,114.3z"/>
				<path class="st0" d="M380.9,183.8c-1.4-0.5-2.9-0.7-4.4-0.5c0.8,0.4,1.7,0.7,2.6,0.7C379.6,183.9,380,184.3,380.9,183.8z"/>
				<path class="st0" d="M397.2,182.3c-1.4,0.4-2.7,0.9-4,1.6c0,0.2,0.2,0.4,0.3,0.4c0,0.2,0.2,0.4,0.5,0.4c0.6,0,1.9-0.4,2.1-0.9
					c0.1-0.3-0.1-0.7,0.1-0.8C396.7,182.8,397,183.1,397.2,182.3z"/>
				<path class="st0" d="M434.9,241.7c0.5,0,1.1-0.7,1.2-1c-0.7,0-1.4,0.1-2,0.4C434.3,241.4,434.6,241.7,434.9,241.7z"/>
				<path class="st0" d="M424.4,71.7c-0.4,0.6-0.7,1.2-0.9,1.9c0,0.8,0.4,1,1.2,1c1.2,0,2-0.8,2.9-1.4v-1.1c-1-0.2-1.5-1.2-2.4-1.2
					C424.9,70.8,424.8,71.7,424.4,71.7z"/>
				<path class="st0" d="M444.3,68.2c0,1,1.5,2.1,2.4,2.1c0,0,0.9,0.2,0.9-0.4C447.6,68.2,444.3,66.5,444.3,68.2z"/>
				<path class="st0" d="M469.7,54.8c-0.7-0.7-0.9-1.6-1.7-1.6c-0.6,0-1,0.9-1,1.7c0,0.3-0.2,0.8,0,0.8
					C467.9,55.7,468.9,55.4,469.7,54.8z"/>
				<path class="st0" d="M609.9,54.1h2.1c0-1.8-1.4-3.3-3.2-3.3c0,0,0,0,0,0c-1.6,0-2.5,1.2-3.3,2.5l0.3-0.4
					C607,53.4,608.6,53.3,609.9,54.1z"/>
				<path class="st0" d="M623.5,46.8c1.1,0,3.1-0.3,3.1-1.2c0-0.4-0.3-0.8-0.7-0.8c-0.3,0-7.5-1.1-8.2-1.7l0.7,0.7
					C618.5,45.8,621.8,46.8,623.5,46.8z"/>
				<path class="st0" d="M607.1,49.7c0-0.5-0.4-0.9-0.9-0.9c-0.5,0-0.9,0.4-0.9,0.9c0,0,0,0,0,0c0,0.8,0.1,1.1,0.8,1.1
					C606.7,50.8,607.1,50.3,607.1,49.7z"/>
				<path class="st0" d="M208.1,144c-1.4-1-2.8-2.6-4.9-2c0.8,0.7,2.8,2.5,3.9,2.5C207.7,144.5,207.9,144.4,208.1,144z"/>
				<path class="st0" d="M203.8,151c-0.2,0.1-0.3,0.4-0.3,0.6c0,0.6,2.6,2.2,3,2.2c0.1,0,0.8-0.4,0.8-0.9v-0.5h-2.1
					C204.6,152.2,204.1,151.7,203.8,151z"/>
				<path class="st0" d="M211.8,153.7v-0.6c-1.6,0-0.6-0.5-0.6-1.3c0-0.3-0.4-0.5-0.5-0.8c-0.6,0.2-1.6,2.3-1.6,2.8s0.4,0.9,1.1,0.9
					S211.8,154.3,211.8,153.7z"/>
				<path class="st0" d="M3,108c-0.5,0-0.8-0.2-1,0.6H0.9c0.1,0.3,0.6,0.6,0.8,0.8H4C3.9,108.5,3.8,108,3,108z"/>
			</g>
		</g>
	</g>
</g>
</svg>
